<?xml version="1.0" encoding="UTF-8" standalone="no"?>
<!DOCTYPE svg PUBLIC "-//W3C//DTD SVG 1.1//EN"
 "http://www.w3.org/Graphics/SVG/1.1/DTD/svg11.dtd">
<!-- Generated by graphviz version 8.0.5 (20230430.1635)
 -->
<!-- Title: dependency&#45;cruiser output Pages: 1 -->
<svg width="962pt" height="512pt"
 viewBox="0.00 0.00 962.00 512.00" xmlns="http://www.w3.org/2000/svg" xmlns:xlink="http://www.w3.org/1999/xlink">
<g id="graph0" class="graph" transform="scale(1 1) rotate(0) translate(4 508)">
<title>dependency&#45;cruiser output</title>
<polygon fill="white" stroke="none" points="-4,4 -4,-508 958,-508 958,4 -4,4"/>
<g id="clust1" class="cluster">
<title>cluster_src</title>
<path fill="#ffffff" stroke="black" stroke-width="2" d="M20,-8C20,-8 934,-8 934,-8 940,-8 946,-14 946,-20 946,-20 946,-484 946,-484 946,-490 940,-496 934,-496 934,-496 20,-496 20,-496 14,-496 8,-490 8,-484 8,-484 8,-20 8,-20 8,-14 14,-8 20,-8"/>
<text text-anchor="middle" x="477" y="-483.45" font-family="Helvetica,sans-Serif" font-weight="bold" font-size="9.00">src</text>
</g>
<g id="clust2" class="cluster">
<title>cluster_src/components</title>
<path fill="#ffffff" stroke="black" stroke-width="2" d="M219.75,-16C219.75,-16 502.88,-16 502.88,-16 508.88,-16 514.88,-22 514.88,-28 514.88,-28 514.88,-236 514.88,-236 514.88,-242 508.88,-248 502.88,-248 502.88,-248 219.75,-248 219.75,-248 213.75,-248 207.75,-242 207.75,-236 207.75,-236 207.75,-28 207.75,-28 207.75,-22 213.75,-16 219.75,-16"/>
<text text-anchor="middle" x="361.31" y="-235.45" font-family="Helvetica,sans-Serif" font-weight="bold" font-size="9.00">components</text>
</g>
<g id="clust3" class="cluster">
<title>cluster_src/composables</title>
<path fill="#ffffff" stroke="black" stroke-width="2" d="M433.75,-256C433.75,-256 844.5,-256 844.5,-256 850.5,-256 856.5,-262 856.5,-268 856.5,-268 856.5,-386 856.5,-386 856.5,-392 850.5,-398 844.5,-398 844.5,-398 433.75,-398 433.75,-398 427.75,-398 421.75,-392 421.75,-386 421.75,-386 421.75,-268 421.75,-268 421.75,-262 427.75,-256 433.75,-256"/>
<text text-anchor="middle" x="639.12" y="-385.45" font-family="Helvetica,sans-Serif" font-weight="bold" font-size="9.00">composables</text>
</g>
<g id="clust4" class="cluster">
<title>cluster_src/modules</title>
<path fill="#ffffff" stroke="black" stroke-width="2" d="M778.12,-406C778.12,-406 926,-406 926,-406 932,-406 938,-412 938,-418 938,-418 938,-446 938,-446 938,-452 932,-458 926,-458 926,-458 778.12,-458 778.12,-458 772.12,-458 766.12,-452 766.12,-446 766.12,-446 766.12,-418 766.12,-418 766.12,-412 772.12,-406 778.12,-406"/>
<text text-anchor="middle" x="852.06" y="-445.45" font-family="Helvetica,sans-Serif" font-weight="bold" font-size="9.00">modules</text>
</g>
<!-- src/App.vue -->
<g id="node1" class="node">
<title>src/App.vue</title>
<g id="a_node1"><a xlink:href="src/App.vue" xlink:title="App.vue">
<path fill="#41f083" stroke="black" d="M175.33,-221.88C175.33,-221.88 133.17,-221.88 133.17,-221.88 130.21,-221.88 127.25,-218.92 127.25,-215.96 127.25,-215.96 127.25,-210.04 127.25,-210.04 127.25,-207.08 130.21,-204.12 133.17,-204.12 133.17,-204.12 175.33,-204.12 175.33,-204.12 178.29,-204.12 181.25,-207.08 181.25,-210.04 181.25,-210.04 181.25,-215.96 181.25,-215.96 181.25,-218.92 178.29,-221.88 175.33,-221.88"/>
<text text-anchor="start" x="137.38" y="-209.32" font-family="Helvetica,sans-Serif" font-size="9.00">App.vue</text>
</a>
</g>
</g>
<!-- src/components/EditFlog.vue -->
<g id="node2" class="node">
<title>src/components/EditFlog.vue</title>
<g id="a_node2"><a xlink:href="src/components/EditFlog.vue" xlink:title="EditFlog.vue">
<path fill="#41f083" stroke="black" d="M280.83,-101.88C280.83,-101.88 238.67,-101.88 238.67,-101.88 235.71,-101.88 232.75,-98.92 232.75,-95.96 232.75,-95.96 232.75,-90.04 232.75,-90.04 232.75,-87.08 235.71,-84.12 238.67,-84.12 238.67,-84.12 280.83,-84.12 280.83,-84.12 283.79,-84.12 286.75,-87.08 286.75,-90.04 286.75,-90.04 286.75,-95.96 286.75,-95.96 286.75,-98.92 283.79,-101.88 280.83,-101.88"/>
<text text-anchor="start" x="242.12" y="-89.33" font-family="Helvetica,sans-Serif" font-size="9.00">EditFlog.vue</text>
</a>
</g>
</g>
<!-- src/App.vue&#45;&gt;src/components/EditFlog.vue -->
<g id="edge1" class="edge">
<title>src/App.vue&#45;&gt;src/components/EditFlog.vue</title>
<path fill="none" stroke="#000000" stroke-width="2" stroke-opacity="0.200000" d="M181.39,-209.53C188.36,-207.33 195.21,-203.76 199.75,-198 212.17,-182.23 195.02,-123.53 207.75,-108 211.89,-102.95 217.65,-99.54 223.8,-97.26"/>
<polygon fill="#000000" fill-opacity="0.200000" stroke="#000000" stroke-width="2" stroke-opacity="0.200000" points="225.15,-98.48 230.33,-94.79 223.99,-94.44 225.15,-98.48"/>
</g>
<!-- src/components/FlogList.vue -->
<g id="node3" class="node">
<title>src/components/FlogList.vue</title>
<g id="a_node3"><a xlink:href="src/components/FlogList.vue" xlink:title="FlogList.vue">
<path fill="#41f083" stroke="black" d="M286.58,-131.88C286.58,-131.88 232.92,-131.88 232.92,-131.88 229.96,-131.88 227,-128.92 227,-125.96 227,-125.96 227,-120.04 227,-120.04 227,-117.08 229.96,-114.12 232.92,-114.12 232.92,-114.12 286.58,-114.12 286.58,-114.12 289.54,-114.12 292.5,-117.08 292.5,-120.04 292.5,-120.04 292.5,-125.96 292.5,-125.96 292.5,-128.92 289.54,-131.88 286.58,-131.88"/>
<text text-anchor="start" x="235" y="-119.33" font-family="Helvetica,sans-Serif" font-size="9.00">FlogList.vue</text>
</a>
</g>
</g>
<!-- src/App.vue&#45;&gt;src/components/FlogList.vue -->
<g id="edge2" class="edge">
<title>src/App.vue&#45;&gt;src/components/FlogList.vue</title>
<path fill="none" stroke="#000000" stroke-width="2" stroke-opacity="0.200000" d="M181.7,-209.25C188.5,-207.04 195.19,-203.54 199.75,-198 216.86,-177.24 190.24,-158.43 207.75,-138 210.71,-134.54 214.43,-131.86 218.5,-129.78"/>
<polygon fill="#000000" fill-opacity="0.200000" stroke="#000000" stroke-width="2" stroke-opacity="0.200000" points="219.88,-131.68 224.66,-127.49 218.31,-127.79 219.88,-131.68"/>
</g>
<!-- src/components/FloggerHead.vue -->
<g id="node4" class="node">
<title>src/components/FloggerHead.vue</title>
<g id="a_node4"><a xlink:href="src/components/FloggerHead.vue" xlink:title="FloggerHead.vue">
<path fill="#41f083" stroke="black" d="M281.71,-221.88C281.71,-221.88 237.79,-221.88 237.79,-221.88 234.83,-221.88 231.88,-218.92 231.88,-215.96 231.88,-215.96 231.88,-210.04 231.88,-210.04 231.88,-207.08 234.83,-204.12 237.79,-204.12 237.79,-204.12 281.71,-204.12 281.71,-204.12 284.67,-204.12 287.62,-207.08 287.62,-210.04 287.62,-210.04 287.62,-215.96 287.62,-215.96 287.62,-218.92 284.67,-221.88 281.71,-221.88"/>
<text text-anchor="start" x="239.88" y="-209.32" font-family="Helvetica,sans-Serif" font-size="9.00">FloggerHead.vue</text>
</a>
</g>
</g>
<!-- src/App.vue&#45;&gt;src/components/FloggerHead.vue -->
<g id="edge3" class="edge">
<title>src/App.vue&#45;&gt;src/components/FloggerHead.vue</title>
<path fill="none" stroke="#000000" stroke-width="2" stroke-opacity="0.200000" d="M181.64,-213C194.21,-213 209.45,-213 223.04,-213"/>
<polygon fill="#000000" fill-opacity="0.200000" stroke="#000000" stroke-width="2" stroke-opacity="0.200000" points="222.69,-215.1 228.69,-213 222.69,-210.9 222.69,-215.1"/>
</g>
<!-- src/components/DropboxLogin.vue -->
<g id="node5" class="node">
<title>src/components/DropboxLogin.vue</title>
<g id="a_node5"><a xlink:href="src/components/DropboxLogin.vue" xlink:title="DropboxLogin.vue">
<path fill="#41f083" stroke="black" d="M282.08,-161.88C282.08,-161.88 237.42,-161.88 237.42,-161.88 234.46,-161.88 231.5,-158.92 231.5,-155.96 231.5,-155.96 231.5,-150.04 231.5,-150.04 231.5,-147.08 234.46,-144.12 237.42,-144.12 237.42,-144.12 282.08,-144.12 282.08,-144.12 285.04,-144.12 288,-147.08 288,-150.04 288,-150.04 288,-155.96 288,-155.96 288,-158.92 285.04,-161.88 282.08,-161.88"/>
<text text-anchor="start" x="239.5" y="-149.32" font-family="Helvetica,sans-Serif" font-size="9.00">DropboxLogin.vue</text>
</a>
</g>
</g>
<!-- src/App.vue&#45;&gt;src/components/DropboxLogin.vue -->
<g id="edge4" class="edge">
<title>src/App.vue&#45;&gt;src/components/DropboxLogin.vue</title>
<path fill="none" stroke="#000000" stroke-width="2" stroke-opacity="0.200000" d="M181.71,-208.71C188.36,-206.49 194.95,-203.12 199.75,-198 209.19,-187.93 198.12,-177.88 207.75,-168 211.91,-163.74 217.2,-160.67 222.81,-158.47"/>
<polygon fill="#000000" fill-opacity="0.200000" stroke="#000000" stroke-width="2" stroke-opacity="0.200000" points="224.05,-159.64 229.13,-155.82 222.78,-155.64 224.05,-159.64"/>
</g>
<!-- src/composables/useFlogSource.ts -->
<g id="node6" class="node">
<title>src/composables/useFlogSource.ts</title>
<g id="a_node6"><a xlink:href="src/composables/useFlogSource.ts" xlink:title="useFlogSource.ts">
<path fill="#ddfeff" stroke="black" d="M624.08,-371.88C624.08,-371.88 548.67,-371.88 548.67,-371.88 545.71,-371.88 542.75,-368.92 542.75,-365.96 542.75,-365.96 542.75,-360.04 542.75,-360.04 542.75,-357.08 545.71,-354.12 548.67,-354.12 548.67,-354.12 624.08,-354.12 624.08,-354.12 627.04,-354.12 630,-357.08 630,-360.04 630,-360.04 630,-365.96 630,-365.96 630,-368.92 627.04,-371.88 624.08,-371.88"/>
<text text-anchor="start" x="550.75" y="-359.32" font-family="Helvetica,sans-Serif" font-size="9.00">useFlogSource.ts</text>
</a>
</g>
</g>
<!-- src/App.vue&#45;&gt;src/composables/useFlogSource.ts -->
<g id="edge5" class="edge">
<title>src/App.vue&#45;&gt;src/composables/useFlogSource.ts</title>
<path fill="none" stroke="#000000" stroke-width="2" stroke-opacity="0.200000" d="M157.07,-222.24C161.79,-243.98 176.28,-298.98 207.75,-332 281.11,-408.98 318.26,-414.57 421.75,-439 468.47,-450.03 486.94,-460.72 529.75,-439 553.81,-426.79 569.96,-398.75 578.41,-380.36"/>
<polygon fill="#000000" fill-opacity="0.200000" stroke="#000000" stroke-width="2" stroke-opacity="0.200000" points="580.48,-380.55 580.93,-374.21 576.62,-378.88 580.48,-380.55"/>
</g>
<!-- src/composables/useOpenFlogs.ts -->
<g id="node7" class="node">
<title>src/composables/useOpenFlogs.ts</title>
<g id="a_node7"><a xlink:href="src/composables/useOpenFlogs.ts" xlink:title="useOpenFlogs.ts">
<path fill="#ddfeff" stroke="black" d="M516.33,-371.88C516.33,-371.88 443.17,-371.88 443.17,-371.88 440.21,-371.88 437.25,-368.92 437.25,-365.96 437.25,-365.96 437.25,-360.04 437.25,-360.04 437.25,-357.08 440.21,-354.12 443.17,-354.12 443.17,-354.12 516.33,-354.12 516.33,-354.12 519.29,-354.12 522.25,-357.08 522.25,-360.04 522.25,-360.04 522.25,-365.96 522.25,-365.96 522.25,-368.92 519.29,-371.88 516.33,-371.88"/>
<text text-anchor="start" x="445.25" y="-359.32" font-family="Helvetica,sans-Serif" font-size="9.00">useOpenFlogs.ts</text>
</a>
</g>
</g>
<!-- src/App.vue&#45;&gt;src/composables/useOpenFlogs.ts -->
<g id="edge6" class="edge">
<title>src/App.vue&#45;&gt;src/composables/useOpenFlogs.ts</title>
<path fill="none" stroke="#000000" stroke-width="2" stroke-opacity="0.200000" d="M160.51,-222.07C178.08,-251.33 238.06,-343.19 316.75,-376 356.54,-392.59 370.85,-380.25 413.75,-376 418.89,-375.49 424.22,-374.76 429.52,-373.91"/>
<polygon fill="#000000" fill-opacity="0.200000" stroke="#000000" stroke-width="2" stroke-opacity="0.200000" points="430.82,-375.46 436.37,-372.36 430.1,-371.32 430.82,-375.46"/>
</g>
<!-- src/components/EditFlog.vue&#45;&gt;src/composables/useFlogSource.ts -->
<g id="edge18" class="edge">
<title>src/components/EditFlog.vue&#45;&gt;src/composables/useFlogSource.ts</title>
<path fill="none" stroke="#000000" stroke-width="2" stroke-opacity="0.200000" d="M287.01,-96.89C293.44,-99.11 299.64,-102.58 303.75,-108 331.35,-144.36 289.35,-276.49 316.75,-313 344.26,-349.65 382.76,-314.23 413.75,-348 423.08,-358.17 410.81,-369.59 421.75,-378 440.78,-392.62 505.96,-381.15 529.75,-378 535.68,-377.21 541.87,-375.98 547.89,-374.54"/>
<polygon fill="#000000" fill-opacity="0.200000" stroke="#000000" stroke-width="2" stroke-opacity="0.200000" points="549.22,-375.85 554.51,-372.33 548.18,-371.79 549.22,-375.85"/>
</g>
<!-- src/components/EditFlog.vue&#45;&gt;src/composables/useOpenFlogs.ts -->
<g id="edge19" class="edge">
<title>src/components/EditFlog.vue&#45;&gt;src/composables/useOpenFlogs.ts</title>
<path fill="none" stroke="#000000" stroke-width="2" stroke-opacity="0.200000" d="M286.97,-96.93C293.39,-99.15 299.61,-102.61 303.75,-108 326.98,-138.21 296.95,-246.44 316.75,-279 343.09,-322.31 374.95,-306.38 413.75,-339 417.85,-342.44 417.19,-345.2 421.75,-348 423.92,-349.33 426.2,-350.54 428.56,-351.65"/>
<polygon fill="#000000" fill-opacity="0.200000" stroke="#000000" stroke-width="2" stroke-opacity="0.200000" points="428.44,-353.69 434.79,-354.02 430.03,-349.8 428.44,-353.69"/>
</g>
<!-- src/components/AddEntry.vue -->
<g id="node10" class="node">
<title>src/components/AddEntry.vue</title>
<g id="a_node10"><a xlink:href="src/components/AddEntry.vue" xlink:title="AddEntry.vue">
<path fill="#41f083" stroke="black" d="M394.71,-71.88C394.71,-71.88 335.79,-71.88 335.79,-71.88 332.83,-71.88 329.88,-68.92 329.88,-65.96 329.88,-65.96 329.88,-60.04 329.88,-60.04 329.88,-57.08 332.83,-54.12 335.79,-54.12 335.79,-54.12 394.71,-54.12 394.71,-54.12 397.67,-54.12 400.62,-57.08 400.62,-60.04 400.62,-60.04 400.62,-65.96 400.62,-65.96 400.62,-68.92 397.67,-71.88 394.71,-71.88"/>
<text text-anchor="start" x="337.88" y="-59.33" font-family="Helvetica,sans-Serif" font-size="9.00">AddEntry.vue</text>
</a>
</g>
</g>
<!-- src/components/EditFlog.vue&#45;&gt;src/components/AddEntry.vue -->
<g id="edge14" class="edge">
<title>src/components/EditFlog.vue&#45;&gt;src/components/AddEntry.vue</title>
<path fill="none" stroke="#000000" stroke-width="2" stroke-opacity="0.200000" d="M287.14,-85.35C298.23,-82.14 311.39,-78.32 323.67,-74.76"/>
<polygon fill="#000000" fill-opacity="0.200000" stroke="#000000" stroke-width="2" stroke-opacity="0.200000" points="324.82,-76.04 330,-72.35 323.65,-72 324.82,-76.04"/>
</g>
<!-- src/modules/EntryData.ts -->
<g id="node11" class="node">
<title>src/modules/EntryData.ts</title>
<g id="a_node11"><a xlink:href="src/modules/EntryData.ts" xlink:title="EntryData.ts">
<path fill="#ddfeff" stroke="black" d="M924.08,-431.88C924.08,-431.88 870.42,-431.88 870.42,-431.88 867.46,-431.88 864.5,-428.92 864.5,-425.96 864.5,-425.96 864.5,-420.04 864.5,-420.04 864.5,-417.08 867.46,-414.12 870.42,-414.12 870.42,-414.12 924.08,-414.12 924.08,-414.12 927.04,-414.12 930,-417.08 930,-420.04 930,-420.04 930,-425.96 930,-425.96 930,-428.92 927.04,-431.88 924.08,-431.88"/>
<text text-anchor="start" x="872.5" y="-419.32" font-family="Helvetica,sans-Serif" font-size="9.00">EntryData.ts</text>
</a>
</g>
</g>
<!-- src/components/EditFlog.vue&#45;&gt;src/modules/EntryData.ts -->
<g id="edge20" class="edge">
<title>src/components/EditFlog.vue&#45;&gt;src/modules/EntryData.ts</title>
<path fill="none" stroke="#000000" stroke-width="2" stroke-opacity="0.200000" d="M286.86,-97.02C293.28,-99.24 299.52,-102.68 303.75,-108 320.44,-129 297.29,-209.54 316.75,-228 342.9,-252.82 442.69,-237 478.75,-237 478.75,-237 478.75,-237 692.88,-237 765.94,-237 801.53,-204.86 856.5,-253 879.31,-272.97 890.74,-365.54 894.65,-405.05"/>
<polygon fill="#000000" fill-opacity="0.200000" stroke="#000000" stroke-width="2" stroke-opacity="0.200000" points="892.83,-405.1 895.49,-410.87 897.01,-404.7 892.83,-405.1"/>
</g>
<!-- src/composables/useFlog.ts -->
<g id="node14" class="node">
<title>src/composables/useFlog.ts</title>
<g id="a_node14"><a xlink:href="src/composables/useFlog.ts" xlink:title="useFlog.ts">
<path fill="#ddfeff" stroke="black" d="M502.83,-341.88C502.83,-341.88 456.67,-341.88 456.67,-341.88 453.71,-341.88 450.75,-338.92 450.75,-335.96 450.75,-335.96 450.75,-330.04 450.75,-330.04 450.75,-327.08 453.71,-324.12 456.67,-324.12 456.67,-324.12 502.83,-324.12 502.83,-324.12 505.79,-324.12 508.75,-327.08 508.75,-330.04 508.75,-330.04 508.75,-335.96 508.75,-335.96 508.75,-338.92 505.79,-341.88 502.83,-341.88"/>
<text text-anchor="start" x="458.75" y="-329.32" font-family="Helvetica,sans-Serif" font-size="9.00">useFlog.ts</text>
</a>
</g>
</g>
<!-- src/components/EditFlog.vue&#45;&gt;src/composables/useFlog.ts -->
<g id="edge17" class="edge">
<title>src/components/EditFlog.vue&#45;&gt;src/composables/useFlog.ts</title>
<path fill="none" stroke="#000000" stroke-width="2" stroke-opacity="0.200000" d="M286.89,-96.99C293.32,-99.21 299.55,-102.65 303.75,-108 322.1,-131.34 301.78,-215.35 316.75,-241 343.29,-286.47 374.44,-273.98 413.75,-309 417.75,-312.56 417.19,-315.2 421.75,-318 427.95,-321.81 435.11,-324.66 442.22,-326.79"/>
<polygon fill="#000000" fill-opacity="0.200000" stroke="#000000" stroke-width="2" stroke-opacity="0.200000" points="442.13,-329.47 448.47,-328.98 443.21,-325.41 442.13,-329.47"/>
</g>
<!-- src/components/EntryList.vue -->
<g id="node15" class="node">
<title>src/components/EntryList.vue</title>
<g id="a_node15"><a xlink:href="src/components/EntryList.vue" xlink:title="EntryList.vue">
<path fill="#41f083" stroke="black" d="M393.58,-41.88C393.58,-41.88 336.92,-41.88 336.92,-41.88 333.96,-41.88 331,-38.92 331,-35.96 331,-35.96 331,-30.04 331,-30.04 331,-27.08 333.96,-24.12 336.92,-24.12 336.92,-24.12 393.58,-24.12 393.58,-24.12 396.54,-24.12 399.5,-27.08 399.5,-30.04 399.5,-30.04 399.5,-35.96 399.5,-35.96 399.5,-38.92 396.54,-41.88 393.58,-41.88"/>
<text text-anchor="start" x="339" y="-29.32" font-family="Helvetica,sans-Serif" font-size="9.00">EntryList.vue</text>
</a>
</g>
</g>
<!-- src/components/EditFlog.vue&#45;&gt;src/components/EntryList.vue -->
<g id="edge15" class="edge">
<title>src/components/EditFlog.vue&#45;&gt;src/components/EntryList.vue</title>
<path fill="none" stroke="#000000" stroke-width="2" stroke-opacity="0.200000" d="M269.88,-83.85C280.37,-73.79 298.5,-57.77 316.75,-48 318.65,-46.98 320.63,-46.02 322.66,-45.11"/>
<polygon fill="#000000" fill-opacity="0.200000" stroke="#000000" stroke-width="2" stroke-opacity="0.200000" points="323.87,-47.08 328.64,-42.88 322.29,-43.19 323.87,-47.08"/>
</g>
<!-- src/components/FlogPretext.vue -->
<g id="node16" class="node">
<title>src/components/FlogPretext.vue</title>
<g id="a_node16"><a xlink:href="src/components/FlogPretext.vue" xlink:title="FlogPretext.vue">
<path fill="#41f083" stroke="black" d="M390.21,-101.88C390.21,-101.88 340.29,-101.88 340.29,-101.88 337.33,-101.88 334.38,-98.92 334.38,-95.96 334.38,-95.96 334.38,-90.04 334.38,-90.04 334.38,-87.08 337.33,-84.12 340.29,-84.12 340.29,-84.12 390.21,-84.12 390.21,-84.12 393.17,-84.12 396.12,-87.08 396.12,-90.04 396.12,-90.04 396.12,-95.96 396.12,-95.96 396.12,-98.92 393.17,-101.88 390.21,-101.88"/>
<text text-anchor="start" x="342.38" y="-89.33" font-family="Helvetica,sans-Serif" font-size="9.00">FlogPretext.vue</text>
</a>
</g>
</g>
<!-- src/components/EditFlog.vue&#45;&gt;src/components/FlogPretext.vue -->
<g id="edge16" class="edge">
<title>src/components/EditFlog.vue&#45;&gt;src/components/FlogPretext.vue</title>
<path fill="none" stroke="#000000" stroke-width="2" stroke-opacity="0.200000" d="M287.14,-93C298.61,-93 312.28,-93 324.91,-93"/>
<polygon fill="#000000" fill-opacity="0.200000" stroke="#000000" stroke-width="2" stroke-opacity="0.200000" points="324.88,-95.1 330.88,-93 324.88,-90.9 324.88,-95.1"/>
</g>
<!-- src/components/FlogList.vue&#45;&gt;src/composables/useFlogSource.ts -->
<g id="edge22" class="edge">
<title>src/components/FlogList.vue&#45;&gt;src/composables/useFlogSource.ts</title>
<path fill="none" stroke="#000000" stroke-width="2" stroke-opacity="0.200000" d="M292.73,-129.27C297,-131.39 300.88,-134.22 303.75,-138 331.35,-174.36 289.01,-306.75 316.75,-343 344.42,-379.17 378.16,-347.6 413.75,-376 419.05,-380.23 415.83,-385.69 421.75,-389 463.65,-412.41 482.89,-399.41 529.75,-389 541.13,-386.47 552.94,-381.36 562.74,-376.33"/>
<polygon fill="#000000" fill-opacity="0.200000" stroke="#000000" stroke-width="2" stroke-opacity="0.200000" points="564.15,-377.88 568.44,-373.18 562.16,-374.18 564.15,-377.88"/>
</g>
<!-- src/components/FlogList.vue&#45;&gt;src/composables/useOpenFlogs.ts -->
<g id="edge23" class="edge">
<title>src/components/FlogList.vue&#45;&gt;src/composables/useOpenFlogs.ts</title>
<path fill="none" stroke="#000000" stroke-width="2" stroke-opacity="0.200000" d="M292.7,-129.29C296.97,-131.41 300.86,-134.23 303.75,-138 328.01,-169.66 291.73,-285.94 316.75,-317 343.24,-349.88 391.4,-360.3 428.35,-363.14"/>
<polygon fill="#000000" fill-opacity="0.200000" stroke="#000000" stroke-width="2" stroke-opacity="0.200000" points="427.88,-365.41 434,-363.69 428.15,-361.21 427.88,-365.41"/>
</g>
<!-- src/components/AddFlog.vue -->
<g id="node12" class="node">
<title>src/components/AddFlog.vue</title>
<g id="a_node12"><a xlink:href="src/components/AddFlog.vue" xlink:title="AddFlog.vue">
<path fill="#41f083" stroke="black" d="M393.21,-131.88C393.21,-131.88 337.29,-131.88 337.29,-131.88 334.33,-131.88 331.38,-128.92 331.38,-125.96 331.38,-125.96 331.38,-120.04 331.38,-120.04 331.38,-117.08 334.33,-114.12 337.29,-114.12 337.29,-114.12 393.21,-114.12 393.21,-114.12 396.17,-114.12 399.12,-117.08 399.12,-120.04 399.12,-120.04 399.12,-125.96 399.12,-125.96 399.12,-128.92 396.17,-131.88 393.21,-131.88"/>
<text text-anchor="start" x="339.38" y="-119.33" font-family="Helvetica,sans-Serif" font-size="9.00">AddFlog.vue</text>
</a>
</g>
</g>
<!-- src/components/FlogList.vue&#45;&gt;src/components/AddFlog.vue -->
<g id="edge21" class="edge">
<title>src/components/FlogList.vue&#45;&gt;src/components/AddFlog.vue</title>
<path fill="none" stroke="#000000" stroke-width="2" stroke-opacity="0.200000" d="M292.93,-123C302.2,-123 312.45,-123 322.22,-123"/>
<polygon fill="#000000" fill-opacity="0.200000" stroke="#000000" stroke-width="2" stroke-opacity="0.200000" points="322.02,-125.1 328.02,-123 322.02,-120.9 322.02,-125.1"/>
</g>
<!-- src/components/FloggerHead.vue&#45;&gt;src/composables/useFlogSource.ts -->
<g id="edge25" class="edge">
<title>src/components/FloggerHead.vue&#45;&gt;src/composables/useFlogSource.ts</title>
<path fill="none" stroke="#000000" stroke-width="2" stroke-opacity="0.200000" d="M287.82,-215.92C293.92,-217.87 299.77,-221 303.75,-226 330.25,-259.28 287.65,-385.96 316.75,-417 332.85,-434.17 398.26,-429.44 421.75,-431 469.64,-434.18 486.37,-451.56 529.75,-431 551.82,-420.54 568.04,-396.57 577.09,-380.08"/>
<polygon fill="#000000" fill-opacity="0.200000" stroke="#000000" stroke-width="2" stroke-opacity="0.200000" points="579.26,-380.54 580.17,-374.25 575.54,-378.6 579.26,-380.54"/>
</g>
<!-- src/components/ThemeSwitcher.vue -->
<g id="node17" class="node">
<title>src/components/ThemeSwitcher.vue</title>
<g id="a_node17"><a xlink:href="src/components/ThemeSwitcher.vue" xlink:title="ThemeSwitcher.vue">
<path fill="#41f083" stroke="black" d="M407.83,-221.88C407.83,-221.88 322.67,-221.88 322.67,-221.88 319.71,-221.88 316.75,-218.92 316.75,-215.96 316.75,-215.96 316.75,-210.04 316.75,-210.04 316.75,-207.08 319.71,-204.12 322.67,-204.12 322.67,-204.12 407.83,-204.12 407.83,-204.12 410.79,-204.12 413.75,-207.08 413.75,-210.04 413.75,-210.04 413.75,-215.96 413.75,-215.96 413.75,-218.92 410.79,-221.88 407.83,-221.88"/>
<text text-anchor="start" x="324.75" y="-209.32" font-family="Helvetica,sans-Serif" font-size="9.00">ThemeSwitcher.vue</text>
</a>
</g>
</g>
<!-- src/components/FloggerHead.vue&#45;&gt;src/components/ThemeSwitcher.vue -->
<g id="edge24" class="edge">
<title>src/components/FloggerHead.vue&#45;&gt;src/components/ThemeSwitcher.vue</title>
<path fill="none" stroke="#000000" stroke-width="2" stroke-opacity="0.200000" d="M287.94,-213C294.09,-213 300.84,-213 307.71,-213"/>
<polygon fill="#000000" fill-opacity="0.200000" stroke="#000000" stroke-width="2" stroke-opacity="0.200000" points="307.42,-215.1 313.42,-213 307.42,-210.9 307.42,-215.1"/>
</g>
<!-- src/modules/Flog.ts -->
<g id="node18" class="node">
<title>src/modules/Flog.ts</title>
<g id="a_node18"><a xlink:href="src/modules/Flog.ts" xlink:title="EditFlog.ts">
<path fill="#ddfeff" stroke="black" d="M822.21,-431.88C822.21,-431.88 780.04,-431.88 780.04,-431.88 777.08,-431.88 774.12,-428.92 774.12,-425.96 774.12,-425.96 774.12,-420.04 774.12,-420.04 774.12,-417.08 777.08,-414.12 780.04,-414.12 780.04,-414.12 822.21,-414.12 822.21,-414.12 825.17,-414.12 828.12,-417.08 828.12,-420.04 828.12,-420.04 828.12,-425.96 828.12,-425.96 828.12,-428.92 825.17,-431.88 822.21,-431.88"/>
<text text-anchor="start" x="787.62" y="-419.32" font-family="Helvetica,sans-Serif" font-size="9.00">EditFlog.ts</text>
</a>
</g>
</g>
<!-- src/components/FloggerHead.vue&#45;&gt;src/modules/Flog.ts -->
<g id="edge26" class="edge">
<title>src/components/FloggerHead.vue&#45;&gt;src/modules/Flog.ts</title>
<path fill="none" stroke="#000000" stroke-width="2" stroke-opacity="0.200000" d="M261.92,-222.23C266.8,-259.32 286.71,-397.03 316.75,-427 369.4,-479.54 404.37,-469 478.75,-469 478.75,-469 478.75,-469 587.38,-469 651.58,-469 724.28,-448.74 765.91,-435.11"/>
<polygon fill="#000000" fill-opacity="0.200000" stroke="#000000" stroke-width="2" stroke-opacity="0.200000" points="767.28,-436.2 772.31,-432.31 765.96,-432.21 767.28,-436.2"/>
</g>
<!-- src/components/DropboxLogin.vue&#45;&gt;src/composables/useFlogSource.ts -->
<g id="edge30" class="edge">
<title>src/components/DropboxLogin.vue&#45;&gt;src/composables/useFlogSource.ts</title>
<path fill="none" stroke="#000000" stroke-width="2" stroke-opacity="0.200000" d="M288.36,-157.37C294.3,-159.61 299.93,-162.96 303.75,-168 331.73,-204.9 287.24,-340.3 316.75,-376 347.45,-413.14 373.95,-396.95 421.75,-403 469.37,-409.02 484.06,-417.72 529.75,-403 545.02,-398.08 559.64,-387.24 570.06,-378.09"/>
<polygon fill="#000000" fill-opacity="0.200000" stroke="#000000" stroke-width="2" stroke-opacity="0.200000" points="571.56,-379.72 574.55,-374.11 568.71,-376.63 571.56,-379.72"/>
</g>
<!-- src/components/DropboxLogin.vue&#45;&gt;src/composables/useOpenFlogs.ts -->
<g id="edge31" class="edge">
<title>src/components/DropboxLogin.vue&#45;&gt;src/composables/useOpenFlogs.ts</title>
<path fill="none" stroke="#000000" stroke-width="2" stroke-opacity="0.200000" d="M288.34,-157.39C294.28,-159.62 299.92,-162.97 303.75,-168 329.81,-202.19 285.53,-331.45 316.75,-361 350.22,-392.68 407.22,-384.63 443.91,-374.72"/>
<polygon fill="#000000" fill-opacity="0.200000" stroke="#000000" stroke-width="2" stroke-opacity="0.200000" points="445.13,-375.99 450.32,-372.32 443.97,-371.95 445.13,-375.99"/>
</g>
<!-- src/components/FloggerIntro.vue -->
<g id="node19" class="node">
<title>src/components/FloggerIntro.vue</title>
<g id="a_node19"><a xlink:href="src/components/FloggerIntro.vue" xlink:title="FloggerIntro.vue">
<path fill="#41f083" stroke="black" d="M386.33,-191.88C386.33,-191.88 344.17,-191.88 344.17,-191.88 341.21,-191.88 338.25,-188.92 338.25,-185.96 338.25,-185.96 338.25,-180.04 338.25,-180.04 338.25,-177.08 341.21,-174.12 344.17,-174.12 344.17,-174.12 386.33,-174.12 386.33,-174.12 389.29,-174.12 392.25,-177.08 392.25,-180.04 392.25,-180.04 392.25,-185.96 392.25,-185.96 392.25,-188.92 389.29,-191.88 386.33,-191.88"/>
<text text-anchor="start" x="347.62" y="-179.32" font-family="Helvetica,sans-Serif" font-size="9.00">FloggerIntro.vue</text>
</a>
</g>
</g>
<!-- src/components/DropboxLogin.vue&#45;&gt;src/components/FloggerIntro.vue -->
<g id="edge28" class="edge">
<title>src/components/DropboxLogin.vue&#45;&gt;src/components/FloggerIntro.vue</title>
<path fill="none" stroke="#000000" stroke-width="2" stroke-opacity="0.200000" d="M288.49,-161.04C301.06,-164.68 316.07,-169.03 329.39,-172.9"/>
<polygon fill="#000000" fill-opacity="0.200000" stroke="#000000" stroke-width="2" stroke-opacity="0.200000" points="329.52,-175.7 335.86,-175.35 330.69,-171.66 329.52,-175.7"/>
</g>
<!-- src/components/ModalContent.vue -->
<g id="node20" class="node">
<title>src/components/ModalContent.vue</title>
<g id="a_node20"><a xlink:href="src/components/ModalContent.vue" xlink:title="ModalContent.vue">
<path fill="#41f083" stroke="black" d="M388.71,-161.88C388.71,-161.88 341.79,-161.88 341.79,-161.88 338.83,-161.88 335.88,-158.92 335.88,-155.96 335.88,-155.96 335.88,-150.04 335.88,-150.04 335.88,-147.08 338.83,-144.12 341.79,-144.12 341.79,-144.12 388.71,-144.12 388.71,-144.12 391.67,-144.12 394.62,-147.08 394.62,-150.04 394.62,-150.04 394.62,-155.96 394.62,-155.96 394.62,-158.92 391.67,-161.88 388.71,-161.88"/>
<text text-anchor="start" x="343.88" y="-149.32" font-family="Helvetica,sans-Serif" font-size="9.00">ModalContent.vue</text>
</a>
</g>
</g>
<!-- src/components/DropboxLogin.vue&#45;&gt;src/components/ModalContent.vue -->
<g id="edge29" class="edge">
<title>src/components/DropboxLogin.vue&#45;&gt;src/components/ModalContent.vue</title>
<path fill="none" stroke="#000000" stroke-width="2" stroke-opacity="0.200000" d="M288.49,-153C300.24,-153 314.12,-153 326.77,-153"/>
<polygon fill="#000000" fill-opacity="0.200000" stroke="#000000" stroke-width="2" stroke-opacity="0.200000" points="326.72,-155.1 332.72,-153 326.72,-150.9 326.72,-155.1"/>
</g>
<!-- src/composables/useFlogSource.ts&#45;&gt;src/modules/Flog.ts -->
<g id="edge39" class="edge">
<title>src/composables/useFlogSource.ts&#45;&gt;src/modules/Flog.ts</title>
<path fill="none" stroke="#000000" stroke-width="2" stroke-opacity="0.200000" d="M620.62,-372.38C659.95,-383.47 725.13,-401.85 765.19,-413.15"/>
<polygon fill="#000000" fill-opacity="0.200000" stroke="#000000" stroke-width="2" stroke-opacity="0.200000" points="765.48,-415.98 771.82,-415.58 766.62,-411.93 765.48,-415.98"/>
</g>
<!-- src/composables/useDropboxFlogs.ts -->
<g id="node23" class="node">
<title>src/composables/useDropboxFlogs.ts</title>
<g id="a_node23"><a xlink:href="src/composables/useDropboxFlogs.ts" xlink:title="useDropboxFlogs.ts">
<path fill="#ddfeff" stroke="black" d="M734.83,-371.88C734.83,-371.88 648.92,-371.88 648.92,-371.88 645.96,-371.88 643,-368.92 643,-365.96 643,-365.96 643,-360.04 643,-360.04 643,-357.08 645.96,-354.12 648.92,-354.12 648.92,-354.12 734.83,-354.12 734.83,-354.12 737.79,-354.12 740.75,-357.08 740.75,-360.04 740.75,-360.04 740.75,-365.96 740.75,-365.96 740.75,-368.92 737.79,-371.88 734.83,-371.88"/>
<text text-anchor="start" x="651" y="-359.32" font-family="Helvetica,sans-Serif" font-size="9.00">useDropboxFlogs.ts</text>
</a>
</g>
</g>
<!-- src/composables/useFlogSource.ts&#45;&gt;src/composables/useDropboxFlogs.ts -->
<g id="edge38" class="edge">
<title>src/composables/useFlogSource.ts&#45;&gt;src/composables/useDropboxFlogs.ts</title>
<path fill="none" stroke="#000000" stroke-width="2" stroke-opacity="0.200000" d="M630.37,-363C631.53,-363 632.69,-363 633.85,-363"/>
<polygon fill="#000000" fill-opacity="0.200000" stroke="#000000" stroke-width="2" stroke-opacity="0.200000" points="633.82,-365.1 639.82,-363 633.82,-360.9 633.82,-365.1"/>
</g>
<!-- src/composables/useOpenFlogs.ts&#45;&gt;src/composables/useFlogSource.ts -->
<g id="edge41" class="edge">
<title>src/composables/useOpenFlogs.ts&#45;&gt;src/composables/useFlogSource.ts</title>
<path fill="none" stroke="#000000" stroke-width="2" stroke-opacity="0.200000" d="M522.7,-363C526.25,-363 529.86,-363 533.46,-363"/>
<polygon fill="#000000" fill-opacity="0.200000" stroke="#000000" stroke-width="2" stroke-opacity="0.200000" points="533.39,-365.1 539.39,-363 533.39,-360.9 533.39,-365.1"/>
</g>
<!-- src/DbAuthPopup.vue -->
<g id="node8" class="node">
<title>src/DbAuthPopup.vue</title>
<g id="a_node8"><a xlink:href="src/DbAuthPopup.vue" xlink:title="DbAuthPopup.vue">
<path fill="#41f083" stroke="black" d="M193.83,-191.88C193.83,-191.88 114.67,-191.88 114.67,-191.88 111.71,-191.88 108.75,-188.92 108.75,-185.96 108.75,-185.96 108.75,-180.04 108.75,-180.04 108.75,-177.08 111.71,-174.12 114.67,-174.12 114.67,-174.12 193.83,-174.12 193.83,-174.12 196.79,-174.12 199.75,-177.08 199.75,-180.04 199.75,-180.04 199.75,-185.96 199.75,-185.96 199.75,-188.92 196.79,-191.88 193.83,-191.88"/>
<text text-anchor="start" x="116.75" y="-179.32" font-family="Helvetica,sans-Serif" font-size="9.00">DbAuthPopup.vue</text>
</a>
</g>
</g>
<!-- src/components/DropBoxAuth.vue -->
<g id="node9" class="node">
<title>src/components/DropBoxAuth.vue</title>
<g id="a_node9"><a xlink:href="src/components/DropBoxAuth.vue" xlink:title="DropBoxAuth.vue">
<path fill="#41f083" stroke="black" d="M297.83,-191.88C297.83,-191.88 221.67,-191.88 221.67,-191.88 218.71,-191.88 215.75,-188.92 215.75,-185.96 215.75,-185.96 215.75,-180.04 215.75,-180.04 215.75,-177.08 218.71,-174.12 221.67,-174.12 221.67,-174.12 297.83,-174.12 297.83,-174.12 300.79,-174.12 303.75,-177.08 303.75,-180.04 303.75,-180.04 303.75,-185.96 303.75,-185.96 303.75,-188.92 300.79,-191.88 297.83,-191.88"/>
<text text-anchor="start" x="223.75" y="-179.32" font-family="Helvetica,sans-Serif" font-size="9.00">DropBoxAuth.vue</text>
</a>
</g>
</g>
<!-- src/DbAuthPopup.vue&#45;&gt;src/components/DropBoxAuth.vue -->
<g id="edge7" class="edge">
<title>src/DbAuthPopup.vue&#45;&gt;src/components/DropBoxAuth.vue</title>
<path fill="none" stroke="#000000" stroke-width="2" stroke-opacity="0.200000" d="M200.04,-183C202.29,-183 204.56,-183 206.82,-183"/>
<polygon fill="#000000" fill-opacity="0.200000" stroke="#000000" stroke-width="2" stroke-opacity="0.200000" points="206.52,-185.1 212.52,-183 206.52,-180.9 206.52,-185.1"/>
</g>
<!-- src/components/DropBoxAuth.vue&#45;&gt;src/composables/useFlogSource.ts -->
<g id="edge9" class="edge">
<title>src/components/DropBoxAuth.vue&#45;&gt;src/composables/useFlogSource.ts</title>
<path fill="none" stroke="#000000" stroke-width="2" stroke-opacity="0.200000" d="M297.63,-192.17C299.94,-193.81 302.03,-195.73 303.75,-198 331.35,-234.36 285.61,-369.63 316.75,-403 332.81,-420.21 398.26,-415.44 421.75,-417 469.64,-420.18 485.27,-435.04 529.75,-417 548.52,-409.39 564.44,-392.07 574.38,-379.08"/>
<polygon fill="#000000" fill-opacity="0.200000" stroke="#000000" stroke-width="2" stroke-opacity="0.200000" points="576.67,-380.13 578.51,-374.04 573.28,-377.65 576.67,-380.13"/>
</g>
<!-- src/components/AddEntry.vue&#45;&gt;src/modules/EntryData.ts -->
<g id="edge8" class="edge">
<title>src/components/AddEntry.vue&#45;&gt;src/modules/EntryData.ts</title>
<path fill="none" stroke="#000000" stroke-width="2" stroke-opacity="0.200000" d="M401.07,-68.5C405.97,-70.71 410.46,-73.77 413.75,-78 432.62,-102.24 399.87,-194.44 421.75,-216 447.68,-241.54 548.98,-223 585.38,-223 585.38,-223 585.38,-223 692.88,-223 765.73,-223 801.38,-185.35 856.5,-233 882.4,-255.39 892.23,-361.92 895.18,-404.93"/>
<polygon fill="#000000" fill-opacity="0.200000" stroke="#000000" stroke-width="2" stroke-opacity="0.200000" points="893.27,-404.9 895.75,-410.75 897.46,-404.63 893.27,-404.9"/>
</g>
<!-- src/components/FlogEntry.vue -->
<g id="node13" class="node">
<title>src/components/FlogEntry.vue</title>
<g id="a_node13"><a xlink:href="src/components/FlogEntry.vue" xlink:title="Entry.vue">
<path fill="#41f083" stroke="black" d="M500.96,-209.88C500.96,-209.88 458.54,-209.88 458.54,-209.88 455.58,-209.88 452.62,-206.92 452.62,-203.96 452.62,-203.96 452.62,-198.04 452.62,-198.04 452.62,-195.08 455.58,-192.12 458.54,-192.12 458.54,-192.12 500.96,-192.12 500.96,-192.12 503.92,-192.12 506.88,-195.08 506.88,-198.04 506.88,-198.04 506.88,-203.96 506.88,-203.96 506.88,-206.92 503.92,-209.88 500.96,-209.88"/>
<text text-anchor="start" x="460.62" y="-197.32" font-family="Helvetica,sans-Serif" font-size="9.00">Entry.vue</text>
</a>
</g>
</g>
<!-- src/components/FlogEntry.vue&#45;&gt;src/modules/EntryData.ts -->
<g id="edge10" class="edge">
<title>src/components/FlogEntry.vue&#45;&gt;src/modules/EntryData.ts</title>
<path fill="none" stroke="#000000" stroke-opacity="0.200000" d="M507,-192.58C574.33,-172.76 754.99,-131.2 856.5,-219 885.01,-243.66 893.46,-363.93 895.6,-407.34"/>
<polygon fill="none" stroke="#000000" stroke-opacity="0.200000" points="893.54,-407.17 895.92,-413.07 897.74,-406.98 893.54,-407.17"/>
</g>
<!-- src/components/FlogEntry.vue&#45;&gt;src/composables/useFlog.ts -->
<g id="edge11" class="edge">
<title>src/components/FlogEntry.vue&#45;&gt;src/composables/useFlog.ts</title>
<path fill="none" stroke="#000000" stroke-width="2" stroke-opacity="0.200000" d="M462.42,-210.19C446.53,-219.84 424.5,-236.71 417.75,-259 414.34,-270.27 414.34,-300.73 417.75,-312 421,-322.75 430.98,-328.33 442.01,-331.13"/>
<polygon fill="#000000" fill-opacity="0.200000" stroke="#000000" stroke-width="2" stroke-opacity="0.200000" points="442.27,-333.7 448.55,-332.77 443.06,-329.57 442.27,-333.7"/>
</g>
<!-- src/composables/useFlog.ts&#45;&gt;src/composables/useFlogSource.ts -->
<g id="edge35" class="edge">
<title>src/composables/useFlog.ts&#45;&gt;src/composables/useFlogSource.ts</title>
<path fill="none" stroke="#000000" stroke-width="2" stroke-opacity="0.200000" d="M509.06,-341.12C519.97,-344.25 532.66,-347.88 544.52,-351.28"/>
<polygon fill="#000000" fill-opacity="0.200000" stroke="#000000" stroke-width="2" stroke-opacity="0.200000" points="544.62,-354.07 550.97,-353.71 545.78,-350.04 544.62,-354.07"/>
</g>
<!-- src/composables/useFlog.ts&#45;&gt;src/modules/EntryData.ts -->
<g id="edge36" class="edge">
<title>src/composables/useFlog.ts&#45;&gt;src/modules/EntryData.ts</title>
<path fill="none" stroke="#000000" stroke-width="2" stroke-opacity="0.200000" d="M508.95,-325.35C575.46,-309.03 744.88,-277.76 856.5,-348 876.79,-360.77 887.34,-387.58 892.34,-405.45"/>
<polygon fill="#000000" fill-opacity="0.200000" stroke="#000000" stroke-width="2" stroke-opacity="0.200000" points="890.96,-406.55 894.47,-411.85 895.03,-405.52 890.96,-406.55"/>
</g>
<!-- src/composables/useFlog.ts&#45;&gt;src/modules/Flog.ts -->
<g id="edge37" class="edge">
<title>src/composables/useFlog.ts&#45;&gt;src/modules/Flog.ts</title>
<path fill="none" stroke="#000000" stroke-width="2" stroke-opacity="0.200000" d="M509.07,-337.24C516.47,-339.46 523.98,-342.84 529.75,-348 540.58,-357.68 531.36,-368.98 542.75,-378 607.8,-429.51 711.29,-430.38 765.08,-426.69"/>
<polygon fill="#000000" fill-opacity="0.200000" stroke="#000000" stroke-width="2" stroke-opacity="0.200000" points="765.08,-428.56 770.9,-426.01 764.75,-424.37 765.08,-428.56"/>
</g>
<!-- src/components/EntryList.vue&#45;&gt;src/modules/EntryData.ts -->
<g id="edge13" class="edge">
<title>src/components/EntryList.vue&#45;&gt;src/modules/EntryData.ts</title>
<path fill="none" stroke="#000000" stroke-width="2" stroke-opacity="0.200000" d="M396.18,-42.35C402.01,-44.2 408.08,-46.15 413.75,-48 490.28,-73.01 504.86,-106 585.38,-106 585.38,-106 585.38,-106 692.88,-106 770.8,-106 807.55,-108.37 856.5,-169 885.94,-205.46 893.83,-352.98 895.71,-404.85"/>
<polygon fill="#000000" fill-opacity="0.200000" stroke="#000000" stroke-width="2" stroke-opacity="0.200000" points="893.71,-404.71 896.01,-410.63 897.9,-404.57 893.71,-404.71"/>
</g>
<!-- src/components/EntryList.vue&#45;&gt;src/components/FlogEntry.vue -->
<g id="edge12" class="edge">
<title>src/components/EntryList.vue&#45;&gt;src/components/FlogEntry.vue</title>
<path fill="none" stroke="#000000" stroke-width="2" stroke-opacity="0.200000" d="M399.85,-38.29C405.16,-40.5 410.09,-43.62 413.75,-48 431.58,-69.31 412.38,-83.84 421.75,-110 431.98,-138.56 452.24,-167.59 465.64,-184.94"/>
<polygon fill="#000000" fill-opacity="0.200000" stroke="#000000" stroke-width="2" stroke-opacity="0.200000" points="464.55,-186.22 469.92,-189.63 467.85,-183.62 464.55,-186.22"/>
</g>
<!-- src/composables/useTheme.ts -->
<g id="node21" class="node">
<title>src/composables/useTheme.ts</title>
<g id="a_node21"><a xlink:href="src/composables/useTheme.ts" xlink:title="useTheme.ts">
<path fill="#ddfeff" stroke="black" d="M508.08,-311.88C508.08,-311.88 451.42,-311.88 451.42,-311.88 448.46,-311.88 445.5,-308.92 445.5,-305.96 445.5,-305.96 445.5,-300.04 445.5,-300.04 445.5,-297.08 448.46,-294.12 451.42,-294.12 451.42,-294.12 508.08,-294.12 508.08,-294.12 511.04,-294.12 514,-297.08 514,-300.04 514,-300.04 514,-305.96 514,-305.96 514,-308.92 511.04,-311.88 508.08,-311.88"/>
<text text-anchor="start" x="453.5" y="-299.32" font-family="Helvetica,sans-Serif" font-size="9.00">useTheme.ts</text>
</a>
</g>
</g>
<!-- src/components/ThemeSwitcher.vue&#45;&gt;src/composables/useTheme.ts -->
<g id="edge32" class="edge">
<title>src/components/ThemeSwitcher.vue&#45;&gt;src/composables/useTheme.ts</title>
<path fill="none" stroke="#000000" stroke-width="2" stroke-opacity="0.200000" d="M377.56,-222.22C388.28,-231.49 404.11,-246.72 413.75,-263 419.7,-273.04 413.29,-279.97 421.75,-288 426.04,-292.07 431.3,-295.07 436.86,-297.27"/>
<polygon fill="#000000" fill-opacity="0.200000" stroke="#000000" stroke-width="2" stroke-opacity="0.200000" points="436.82,-300.11 443.17,-299.95 438.11,-296.11 436.82,-300.11"/>
</g>
<!-- src/modules/Flog.ts&#45;&gt;src/modules/EntryData.ts -->
<g id="edge44" class="edge">
<title>src/modules/Flog.ts&#45;&gt;src/modules/EntryData.ts</title>
<path fill="none" stroke="#000000" stroke-opacity="0.200000" d="M828.59,-423C837.52,-423 847.68,-423 857.36,-423"/>
<polygon fill="none" stroke="#000000" stroke-opacity="0.200000" points="857.3,-425.1 863.3,-423 857.3,-420.9 857.3,-425.1"/>
</g>
<!-- src/components/FloggerIntro.vue&#45;&gt;src/composables/useFlogSource.ts -->
<g id="edge27" class="edge">
<title>src/components/FloggerIntro.vue&#45;&gt;src/composables/useFlogSource.ts</title>
<path fill="none" stroke="#000000" stroke-width="2" stroke-opacity="0.200000" d="M392.46,-186.39C400.21,-188.57 408.11,-192.15 413.75,-198 423.03,-207.63 412.34,-217.5 421.75,-227 456.88,-262.49 490.97,-226.54 529.75,-258 557.91,-280.85 573.62,-321.82 580.71,-345.26"/>
<polygon fill="#000000" fill-opacity="0.200000" stroke="#000000" stroke-width="2" stroke-opacity="0.200000" points="579.49,-346.66 583.15,-351.86 583.53,-345.51 579.49,-346.66"/>
</g>
<!-- src/composables/useDropboxFiles.ts -->
<g id="node22" class="node">
<title>src/composables/useDropboxFiles.ts</title>
<g id="a_node22"><a xlink:href="src/composables/useDropboxFiles.ts" xlink:title="useDropboxFiles.ts">
<path fill="#ddfeff" stroke="black" d="M842.58,-371.88C842.58,-371.88 759.67,-371.88 759.67,-371.88 756.71,-371.88 753.75,-368.92 753.75,-365.96 753.75,-365.96 753.75,-360.04 753.75,-360.04 753.75,-357.08 756.71,-354.12 759.67,-354.12 759.67,-354.12 842.58,-354.12 842.58,-354.12 845.54,-354.12 848.5,-357.08 848.5,-360.04 848.5,-360.04 848.5,-365.96 848.5,-365.96 848.5,-368.92 845.54,-371.88 842.58,-371.88"/>
<text text-anchor="start" x="761.75" y="-359.32" font-family="Helvetica,sans-Serif" font-size="9.00">useDropboxFiles.ts</text>
</a>
</g>
</g>
<!-- src/composables/useDropboxFlogs.ts&#45;&gt;src/modules/Flog.ts -->
<g id="edge34" class="edge">
<title>src/composables/useDropboxFlogs.ts&#45;&gt;src/modules/Flog.ts</title>
<path fill="none" stroke="#000000" stroke-width="2" stroke-opacity="0.200000" d="M707.78,-372.36C725.04,-383.2 751.41,-399.72 753.75,-401 759.34,-404.06 765.43,-407.12 771.29,-409.95"/>
<polygon fill="#000000" fill-opacity="0.200000" stroke="#000000" stroke-width="2" stroke-opacity="0.200000" points="770.77,-411.98 777.09,-412.65 772.57,-408.18 770.77,-411.98"/>
</g>
<!-- src/composables/useDropboxFlogs.ts&#45;&gt;src/composables/useDropboxFiles.ts -->
<g id="edge33" class="edge">
<title>src/composables/useDropboxFlogs.ts&#45;&gt;src/composables/useDropboxFiles.ts</title>
<path fill="none" stroke="#000000" stroke-width="2" stroke-opacity="0.200000" d="M741.17,-363C742.32,-363 743.48,-363 744.65,-363"/>
<polygon fill="#000000" fill-opacity="0.200000" stroke="#000000" stroke-width="2" stroke-opacity="0.200000" points="744.54,-365.1 750.54,-363 744.54,-360.9 744.54,-365.1"/>
</g>
<!-- src/composables/useLoadedEntries.ts -->
<g id="node24" class="node">
<title>src/composables/useLoadedEntries.ts</title>
<g id="a_node24"><a xlink:href="src/composables/useLoadedEntries.ts" xlink:title="useLoadedEntries.ts">
<path fill="#ddfeff" stroke="black" d="M523.83,-281.88C523.83,-281.88 435.67,-281.88 435.67,-281.88 432.71,-281.88 429.75,-278.92 429.75,-275.96 429.75,-275.96 429.75,-270.04 429.75,-270.04 429.75,-267.08 432.71,-264.12 435.67,-264.12 435.67,-264.12 523.83,-264.12 523.83,-264.12 526.79,-264.12 529.75,-267.08 529.75,-270.04 529.75,-270.04 529.75,-275.96 529.75,-275.96 529.75,-278.92 526.79,-281.88 523.83,-281.88"/>
<text text-anchor="start" x="437.75" y="-269.32" font-family="Helvetica,sans-Serif" font-size="9.00">useLoadedEntries.ts</text>
</a>
</g>
</g>
<!-- src/composables/useLoadedEntries.ts&#45;&gt;src/modules/EntryData.ts -->
<g id="edge40" class="edge">
<title>src/composables/useLoadedEntries.ts&#45;&gt;src/modules/EntryData.ts</title>
<path fill="none" stroke="#000000" stroke-width="2" stroke-opacity="0.200000" d="M522.08,-263.68C597.35,-249.28 758.06,-230.74 856.5,-308 886.41,-331.48 893.91,-378.8 895.73,-404.82"/>
<polygon fill="#000000" fill-opacity="0.200000" stroke="#000000" stroke-width="2" stroke-opacity="0.200000" points="893.78,-404.77 896.18,-410.66 897.97,-404.56 893.78,-404.77"/>
</g>
<!-- src/dbauthpopup.js -->
<g id="node25" class="node">
<title>src/dbauthpopup.js</title>
<g id="a_node25"><a xlink:href="src/dbauthpopup.js" xlink:title="dbauthpopup.js">
<path fill="#ffffcc" stroke="black" d="M89.83,-191.88C89.83,-191.88 21.92,-191.88 21.92,-191.88 18.96,-191.88 16,-188.92 16,-185.96 16,-185.96 16,-180.04 16,-180.04 16,-177.08 18.96,-174.12 21.92,-174.12 21.92,-174.12 89.83,-174.12 89.83,-174.12 92.79,-174.12 95.75,-177.08 95.75,-180.04 95.75,-180.04 95.75,-185.96 95.75,-185.96 95.75,-188.92 92.79,-191.88 89.83,-191.88"/>
<text text-anchor="start" x="24" y="-179.32" font-family="Helvetica,sans-Serif" font-size="9.00">dbauthpopup.js</text>
</a>
</g>
</g>
<!-- src/dbauthpopup.js&#45;&gt;src/DbAuthPopup.vue -->
<g id="edge42" class="edge">
<title>src/dbauthpopup.js&#45;&gt;src/DbAuthPopup.vue</title>
<path fill="none" stroke="#000000" stroke-width="2" stroke-opacity="0.200000" d="M96.07,-183C97.22,-183 98.37,-183 99.52,-183"/>
<polygon fill="#000000" fill-opacity="0.200000" stroke="#000000" stroke-width="2" stroke-opacity="0.200000" points="99.41,-185.1 105.41,-183 99.41,-180.9 99.41,-185.1"/>
</g>
<!-- src/main.js -->
<g id="node26" class="node">
<title>src/main.js</title>
<g id="a_node26"><a xlink:href="src/main.js" xlink:title="main.js">
<path fill="#ffffcc" stroke="black" d="M76.96,-221.88C76.96,-221.88 34.79,-221.88 34.79,-221.88 31.83,-221.88 28.88,-218.92 28.88,-215.96 28.88,-215.96 28.88,-210.04 28.88,-210.04 28.88,-207.08 31.83,-204.12 34.79,-204.12 34.79,-204.12 76.96,-204.12 76.96,-204.12 79.92,-204.12 82.88,-207.08 82.88,-210.04 82.88,-210.04 82.88,-215.96 82.88,-215.96 82.88,-218.92 79.92,-221.88 76.96,-221.88"/>
<text text-anchor="start" x="41.25" y="-209.32" font-family="Helvetica,sans-Serif" font-size="9.00">main.js</text>
</a>
</g>
</g>
<!-- src/main.js&#45;&gt;src/App.vue -->
<g id="edge43" class="edge">
<title>src/main.js&#45;&gt;src/App.vue</title>
<path fill="none" stroke="#000000" stroke-width="2" stroke-opacity="0.200000" d="M83.21,-213C93.94,-213 106.5,-213 118.01,-213"/>
<polygon fill="#000000" fill-opacity="0.200000" stroke="#000000" stroke-width="2" stroke-opacity="0.200000" points="117.95,-215.1 123.95,-213 117.95,-210.9 117.95,-215.1"/>
</g>
</g>
</svg>
