<?xml version="1.0" encoding="UTF-8" standalone="no"?>
<!DOCTYPE svg PUBLIC "-//W3C//DTD SVG 1.1//EN"
 "http://www.w3.org/Graphics/SVG/1.1/DTD/svg11.dtd">
<!-- Generated by graphviz version 8.0.5 (20230430.1635)
 -->
<!-- Title: dependency&#45;cruiser output Pages: 1 -->
<svg width="881pt" height="516pt"
 viewBox="0.00 0.00 880.50 516.00" xmlns="http://www.w3.org/2000/svg" xmlns:xlink="http://www.w3.org/1999/xlink">
<g id="graph0" class="graph" transform="scale(1 1) rotate(0) translate(4 512)">
<title>dependency&#45;cruiser output</title>
<polygon fill="white" stroke="none" points="-4,4 -4,-512 876.5,-512 876.5,4 -4,4"/>
<g id="clust1" class="cluster">
<title>cluster_src</title>
<path fill="#ffffff" stroke="black" stroke-width="2" d="M20,-8C20,-8 852.5,-8 852.5,-8 858.5,-8 864.5,-14 864.5,-20 864.5,-20 864.5,-488 864.5,-488 864.5,-494 858.5,-500 852.5,-500 852.5,-500 20,-500 20,-500 14,-500 8,-494 8,-488 8,-488 8,-20 8,-20 8,-14 14,-8 20,-8"/>
<text text-anchor="middle" x="436.25" y="-487.45" font-family="Helvetica,sans-Serif" font-weight="bold" font-size="9.00">src</text>
</g>
<g id="clust2" class="cluster">
<title>cluster_src/components</title>
<path fill="#ffffff" stroke="black" stroke-width="2" d="M219.75,-242C219.75,-242 502.88,-242 502.88,-242 508.88,-242 514.88,-248 514.88,-254 514.88,-254 514.88,-462 514.88,-462 514.88,-468 508.88,-474 502.88,-474 502.88,-474 219.75,-474 219.75,-474 213.75,-474 207.75,-468 207.75,-462 207.75,-462 207.75,-254 207.75,-254 207.75,-248 213.75,-242 219.75,-242"/>
<text text-anchor="middle" x="361.31" y="-461.45" font-family="Helvetica,sans-Serif" font-weight="bold" font-size="9.00">components</text>
</g>
<g id="clust3" class="cluster">
<title>cluster_src/composables</title>
<path fill="#ffffff" stroke="black" stroke-width="2" d="M433.75,-92C433.75,-92 844.5,-92 844.5,-92 850.5,-92 856.5,-98 856.5,-104 856.5,-104 856.5,-222 856.5,-222 856.5,-228 850.5,-234 844.5,-234 844.5,-234 433.75,-234 433.75,-234 427.75,-234 421.75,-228 421.75,-222 421.75,-222 421.75,-104 421.75,-104 421.75,-98 427.75,-92 433.75,-92"/>
<text text-anchor="middle" x="639.12" y="-221.45" font-family="Helvetica,sans-Serif" font-weight="bold" font-size="9.00">composables</text>
</g>
<g id="clust4" class="cluster">
<title>cluster_src/modules</title>
<path fill="#ffffff" stroke="black" stroke-width="2" d="M668.88,-242C668.88,-242 829.88,-242 829.88,-242 835.88,-242 841.88,-248 841.88,-254 841.88,-254 841.88,-282 841.88,-282 841.88,-288 835.88,-294 829.88,-294 829.88,-294 668.88,-294 668.88,-294 662.88,-294 656.88,-288 656.88,-282 656.88,-282 656.88,-254 656.88,-254 656.88,-248 662.88,-242 668.88,-242"/>
<text text-anchor="middle" x="749.38" y="-281.45" font-family="Helvetica,sans-Serif" font-weight="bold" font-size="9.00">modules</text>
</g>
<!-- src/App.vue -->
<g id="node1" class="node">
<title>src/App.vue</title>
<g id="a_node1"><a xlink:href="src/App.vue" xlink:title="App.vue">
<path fill="#41f083" stroke="black" d="M175.33,-312.88C175.33,-312.88 133.17,-312.88 133.17,-312.88 130.21,-312.88 127.25,-309.92 127.25,-306.96 127.25,-306.96 127.25,-301.04 127.25,-301.04 127.25,-298.08 130.21,-295.12 133.17,-295.12 133.17,-295.12 175.33,-295.12 175.33,-295.12 178.29,-295.12 181.25,-298.08 181.25,-301.04 181.25,-301.04 181.25,-306.96 181.25,-306.96 181.25,-309.92 178.29,-312.88 175.33,-312.88"/>
<text text-anchor="start" x="137.38" y="-300.32" font-family="Helvetica,sans-Serif" font-size="9.00">App.vue</text>
</a>
</g>
</g>
<!-- src/components/Flog.vue -->
<g id="node2" class="node">
<title>src/components/Flog.vue</title>
<g id="a_node2"><a xlink:href="src/components/Flog.vue" xlink:title="Flog.vue">
<path fill="#41f083" stroke="black" d="M280.83,-387.88C280.83,-387.88 238.67,-387.88 238.67,-387.88 235.71,-387.88 232.75,-384.92 232.75,-381.96 232.75,-381.96 232.75,-376.04 232.75,-376.04 232.75,-373.08 235.71,-370.12 238.67,-370.12 238.67,-370.12 280.83,-370.12 280.83,-370.12 283.79,-370.12 286.75,-373.08 286.75,-376.04 286.75,-376.04 286.75,-381.96 286.75,-381.96 286.75,-384.92 283.79,-387.88 280.83,-387.88"/>
<text text-anchor="start" x="242.12" y="-375.32" font-family="Helvetica,sans-Serif" font-size="9.00">Flog.vue</text>
</a>
</g>
</g>
<!-- src/App.vue&#45;&gt;src/components/Flog.vue -->
<g id="edge1" class="edge">
<title>src/App.vue&#45;&gt;src/components/Flog.vue</title>
<path fill="none" stroke="#000000" stroke-width="2" stroke-opacity="0.200000" d="M160.83,-313.18C169.33,-326.37 186.76,-350.58 207.75,-364 212.71,-367.17 218.37,-369.7 224.07,-371.7"/>
<polygon fill="#000000" fill-opacity="0.200000" stroke="#000000" stroke-width="2" stroke-opacity="0.200000" points="224.02,-374.5 230.37,-374.27 225.26,-370.49 224.02,-374.5"/>
</g>
<!-- src/components/FlogList.vue -->
<g id="node3" class="node">
<title>src/components/FlogList.vue</title>
<g id="a_node3"><a xlink:href="src/components/FlogList.vue" xlink:title="FlogList.vue">
<path fill="#41f083" stroke="black" d="M286.58,-297.88C286.58,-297.88 232.92,-297.88 232.92,-297.88 229.96,-297.88 227,-294.92 227,-291.96 227,-291.96 227,-286.04 227,-286.04 227,-283.08 229.96,-280.12 232.92,-280.12 232.92,-280.12 286.58,-280.12 286.58,-280.12 289.54,-280.12 292.5,-283.08 292.5,-286.04 292.5,-286.04 292.5,-291.96 292.5,-291.96 292.5,-294.92 289.54,-297.88 286.58,-297.88"/>
<text text-anchor="start" x="235" y="-285.32" font-family="Helvetica,sans-Serif" font-size="9.00">FlogList.vue</text>
</a>
</g>
</g>
<!-- src/App.vue&#45;&gt;src/components/FlogList.vue -->
<g id="edge2" class="edge">
<title>src/App.vue&#45;&gt;src/components/FlogList.vue</title>
<path fill="none" stroke="#000000" stroke-width="2" stroke-opacity="0.200000" d="M181.64,-300.18C192.72,-298.57 205.87,-296.66 218.14,-294.89"/>
<polygon fill="#000000" fill-opacity="0.200000" stroke="#000000" stroke-width="2" stroke-opacity="0.200000" points="219.24,-296.56 224.88,-293.62 218.64,-292.4 219.24,-296.56"/>
</g>
<!-- src/components/Head.vue -->
<g id="node4" class="node">
<title>src/components/Head.vue</title>
<g id="a_node4"><a xlink:href="src/components/Head.vue" xlink:title="Head.vue">
<path fill="#41f083" stroke="black" d="M281.71,-357.88C281.71,-357.88 237.79,-357.88 237.79,-357.88 234.83,-357.88 231.88,-354.92 231.88,-351.96 231.88,-351.96 231.88,-346.04 231.88,-346.04 231.88,-343.08 234.83,-340.12 237.79,-340.12 237.79,-340.12 281.71,-340.12 281.71,-340.12 284.67,-340.12 287.62,-343.08 287.62,-346.04 287.62,-346.04 287.62,-351.96 287.62,-351.96 287.62,-354.92 284.67,-357.88 281.71,-357.88"/>
<text text-anchor="start" x="239.88" y="-345.32" font-family="Helvetica,sans-Serif" font-size="9.00">Head.vue</text>
</a>
</g>
</g>
<!-- src/App.vue&#45;&gt;src/components/Head.vue -->
<g id="edge3" class="edge">
<title>src/App.vue&#45;&gt;src/components/Head.vue</title>
<path fill="none" stroke="#000000" stroke-width="2" stroke-opacity="0.200000" d="M169.49,-313.35C179.79,-319.81 194.23,-328.24 207.75,-334 212.71,-336.11 218.06,-338.04 223.37,-339.76"/>
<polygon fill="#000000" fill-opacity="0.200000" stroke="#000000" stroke-width="2" stroke-opacity="0.200000" points="223.25,-342.54 229.6,-342.29 224.48,-338.52 223.25,-342.54"/>
</g>
<!-- src/components/Login.vue -->
<g id="node5" class="node">
<title>src/components/Login.vue</title>
<g id="a_node5"><a xlink:href="src/components/Login.vue" xlink:title="Login.vue">
<path fill="#41f083" stroke="black" d="M282.08,-327.88C282.08,-327.88 237.42,-327.88 237.42,-327.88 234.46,-327.88 231.5,-324.92 231.5,-321.96 231.5,-321.96 231.5,-316.04 231.5,-316.04 231.5,-313.08 234.46,-310.12 237.42,-310.12 237.42,-310.12 282.08,-310.12 282.08,-310.12 285.04,-310.12 288,-313.08 288,-316.04 288,-316.04 288,-321.96 288,-321.96 288,-324.92 285.04,-327.88 282.08,-327.88"/>
<text text-anchor="start" x="239.5" y="-315.32" font-family="Helvetica,sans-Serif" font-size="9.00">Login.vue</text>
</a>
</g>
</g>
<!-- src/App.vue&#45;&gt;src/components/Login.vue -->
<g id="edge4" class="edge">
<title>src/App.vue&#45;&gt;src/components/Login.vue</title>
<path fill="none" stroke="#000000" stroke-width="2" stroke-opacity="0.200000" d="M181.64,-307.82C194.11,-309.63 209.21,-311.82 222.72,-313.78"/>
<polygon fill="#000000" fill-opacity="0.200000" stroke="#000000" stroke-width="2" stroke-opacity="0.200000" points="223.09,-316.24 229.33,-315.03 223.69,-312.09 223.09,-316.24"/>
</g>
<!-- src/composables/useFlogSource.ts -->
<g id="node6" class="node">
<title>src/composables/useFlogSource.ts</title>
<g id="a_node6"><a xlink:href="src/composables/useFlogSource.ts" xlink:title="useFlogSource.ts">
<path fill="#ddfeff" stroke="black" d="M624.08,-117.88C624.08,-117.88 548.67,-117.88 548.67,-117.88 545.71,-117.88 542.75,-114.92 542.75,-111.96 542.75,-111.96 542.75,-106.04 542.75,-106.04 542.75,-103.08 545.71,-100.12 548.67,-100.12 548.67,-100.12 624.08,-100.12 624.08,-100.12 627.04,-100.12 630,-103.08 630,-106.04 630,-106.04 630,-111.96 630,-111.96 630,-114.92 627.04,-117.88 624.08,-117.88"/>
<text text-anchor="start" x="550.75" y="-105.33" font-family="Helvetica,sans-Serif" font-size="9.00">useFlogSource.ts</text>
</a>
</g>
</g>
<!-- src/App.vue&#45;&gt;src/composables/useFlogSource.ts -->
<g id="edge5" class="edge">
<title>src/App.vue&#45;&gt;src/composables/useFlogSource.ts</title>
<path fill="none" stroke="#000000" stroke-width="2" stroke-opacity="0.200000" d="M176.81,-294.84C185.5,-289.99 194.65,-283.1 199.75,-274 219.75,-238.29 186.41,-124.92 207.75,-90 236.81,-42.44 262.87,-42.25 316.75,-28 328.89,-24.79 525.71,-26.87 529.75,-29 554.8,-42.23 570.88,-72.39 579.01,-91.66"/>
<polygon fill="#000000" fill-opacity="0.200000" stroke="#000000" stroke-width="2" stroke-opacity="0.200000" points="577.11,-93.09 581.27,-97.89 581.01,-91.54 577.11,-93.09"/>
</g>
<!-- src/composables/useOpenFlogs.ts -->
<g id="node7" class="node">
<title>src/composables/useOpenFlogs.ts</title>
<g id="a_node7"><a xlink:href="src/composables/useOpenFlogs.ts" xlink:title="useOpenFlogs.ts">
<path fill="#ddfeff" stroke="black" d="M516.33,-117.88C516.33,-117.88 443.17,-117.88 443.17,-117.88 440.21,-117.88 437.25,-114.92 437.25,-111.96 437.25,-111.96 437.25,-106.04 437.25,-106.04 437.25,-103.08 440.21,-100.12 443.17,-100.12 443.17,-100.12 516.33,-100.12 516.33,-100.12 519.29,-100.12 522.25,-103.08 522.25,-106.04 522.25,-106.04 522.25,-111.96 522.25,-111.96 522.25,-114.92 519.29,-117.88 516.33,-117.88"/>
<text text-anchor="start" x="445.25" y="-105.33" font-family="Helvetica,sans-Serif" font-size="9.00">useOpenFlogs.ts</text>
</a>
</g>
</g>
<!-- src/App.vue&#45;&gt;src/composables/useOpenFlogs.ts -->
<g id="edge6" class="edge">
<title>src/App.vue&#45;&gt;src/composables/useOpenFlogs.ts</title>
<path fill="none" stroke="#000000" stroke-width="2" stroke-opacity="0.200000" d="M175.59,-294.63C184.26,-289.67 193.74,-282.76 199.75,-274 208.78,-260.84 201.24,-253.57 207.75,-239 241.97,-162.44 242.27,-123.53 316.75,-85 355.04,-65.19 375.33,-65.44 413.75,-85 419.14,-87.74 416.7,-92.67 421.75,-96 423.89,-97.41 426.17,-98.68 428.54,-99.8"/>
<polygon fill="#000000" fill-opacity="0.200000" stroke="#000000" stroke-width="2" stroke-opacity="0.200000" points="428.48,-101.85 434.83,-102.13 430.05,-97.95 428.48,-101.85"/>
</g>
<!-- src/components/Flog.vue&#45;&gt;src/composables/useFlogSource.ts -->
<g id="edge18" class="edge">
<title>src/components/Flog.vue&#45;&gt;src/composables/useFlogSource.ts</title>
<path fill="none" stroke="#000000" stroke-width="2" stroke-opacity="0.200000" d="M287.04,-375.12C293.46,-372.9 299.66,-369.43 303.75,-364 334.56,-323.12 284.45,-173.72 316.75,-134 344.91,-99.37 378.4,-135.25 413.75,-108 419.43,-103.62 415.55,-97.6 421.75,-94 442.51,-81.95 505.96,-90.85 529.75,-94 535.68,-94.79 541.87,-96.02 547.89,-97.46"/>
<polygon fill="#000000" fill-opacity="0.200000" stroke="#000000" stroke-width="2" stroke-opacity="0.200000" points="548.18,-100.21 554.51,-99.67 549.22,-96.15 548.18,-100.21"/>
</g>
<!-- src/components/Flog.vue&#45;&gt;src/composables/useOpenFlogs.ts -->
<g id="edge19" class="edge">
<title>src/components/Flog.vue&#45;&gt;src/composables/useOpenFlogs.ts</title>
<path fill="none" stroke="#000000" stroke-width="2" stroke-opacity="0.200000" d="M286.99,-375.09C293.41,-372.87 299.62,-369.4 303.75,-364 328.52,-331.62 294.03,-214.85 316.75,-181 343.56,-141.06 375.51,-162.18 413.75,-133 418,-129.75 417.19,-126.8 421.75,-124 423.92,-122.67 426.2,-121.46 428.56,-120.35"/>
<polygon fill="#000000" fill-opacity="0.200000" stroke="#000000" stroke-width="2" stroke-opacity="0.200000" points="430.03,-122.2 434.79,-117.98 428.44,-118.31 430.03,-122.2"/>
</g>
<!-- src/components/AddEntry.vue -->
<g id="node10" class="node">
<title>src/components/AddEntry.vue</title>
<g id="a_node10"><a xlink:href="src/components/AddEntry.vue" xlink:title="AddEntry.vue">
<path fill="#41f083" stroke="black" d="M394.71,-447.88C394.71,-447.88 335.79,-447.88 335.79,-447.88 332.83,-447.88 329.88,-444.92 329.88,-441.96 329.88,-441.96 329.88,-436.04 329.88,-436.04 329.88,-433.08 332.83,-430.12 335.79,-430.12 335.79,-430.12 394.71,-430.12 394.71,-430.12 397.67,-430.12 400.62,-433.08 400.62,-436.04 400.62,-436.04 400.62,-441.96 400.62,-441.96 400.62,-444.92 397.67,-447.88 394.71,-447.88"/>
<text text-anchor="start" x="337.88" y="-435.32" font-family="Helvetica,sans-Serif" font-size="9.00">AddEntry.vue</text>
</a>
</g>
</g>
<!-- src/components/Flog.vue&#45;&gt;src/components/AddEntry.vue -->
<g id="edge14" class="edge">
<title>src/components/Flog.vue&#45;&gt;src/components/AddEntry.vue</title>
<path fill="none" stroke="#000000" stroke-width="2" stroke-opacity="0.200000" d="M269.88,-388.15C280.37,-398.21 298.5,-414.23 316.75,-424 318.24,-424.8 319.77,-425.56 321.34,-426.29"/>
<polygon fill="#000000" fill-opacity="0.200000" stroke="#000000" stroke-width="2" stroke-opacity="0.200000" points="321.04,-428.27 327.39,-428.65 322.66,-424.4 321.04,-428.27"/>
</g>
<!-- src/modules/EntryData.ts -->
<g id="node11" class="node">
<title>src/modules/EntryData.ts</title>
<g id="a_node11"><a xlink:href="src/modules/EntryData.ts" xlink:title="EntryData.ts">
<path fill="#ddfeff" stroke="black" d="M827.96,-267.88C827.96,-267.88 774.29,-267.88 774.29,-267.88 771.33,-267.88 768.38,-264.92 768.38,-261.96 768.38,-261.96 768.38,-256.04 768.38,-256.04 768.38,-253.08 771.33,-250.12 774.29,-250.12 774.29,-250.12 827.96,-250.12 827.96,-250.12 830.92,-250.12 833.88,-253.08 833.88,-256.04 833.88,-256.04 833.88,-261.96 833.88,-261.96 833.88,-264.92 830.92,-267.88 827.96,-267.88"/>
<text text-anchor="start" x="776.38" y="-255.32" font-family="Helvetica,sans-Serif" font-size="9.00">EntryData.ts</text>
</a>
</g>
</g>
<!-- src/components/Flog.vue&#45;&gt;src/modules/EntryData.ts -->
<g id="edge20" class="edge">
<title>src/components/Flog.vue&#45;&gt;src/modules/EntryData.ts</title>
<path fill="none" stroke="#000000" stroke-width="2" stroke-opacity="0.200000" d="M264.44,-388.24C271.64,-404.88 289.31,-439.49 316.75,-454 380.46,-487.68 406.68,-461 478.75,-461 478.75,-461 478.75,-461 587.38,-461 694.3,-461 768.93,-325.16 792.32,-276.27"/>
<polygon fill="#000000" fill-opacity="0.200000" stroke="#000000" stroke-width="2" stroke-opacity="0.200000" points="794.45,-276.53 795.09,-270.2 790.65,-274.75 794.45,-276.53"/>
</g>
<!-- src/composables/useFlog.ts -->
<g id="node14" class="node">
<title>src/composables/useFlog.ts</title>
<g id="a_node14"><a xlink:href="src/composables/useFlog.ts" xlink:title="useFlog.ts">
<path fill="#ddfeff" stroke="black" d="M502.83,-177.88C502.83,-177.88 456.67,-177.88 456.67,-177.88 453.71,-177.88 450.75,-174.92 450.75,-171.96 450.75,-171.96 450.75,-166.04 450.75,-166.04 450.75,-163.08 453.71,-160.12 456.67,-160.12 456.67,-160.12 502.83,-160.12 502.83,-160.12 505.79,-160.12 508.75,-163.08 508.75,-166.04 508.75,-166.04 508.75,-171.96 508.75,-171.96 508.75,-174.92 505.79,-177.88 502.83,-177.88"/>
<text text-anchor="start" x="458.75" y="-165.32" font-family="Helvetica,sans-Serif" font-size="9.00">useFlog.ts</text>
</a>
</g>
</g>
<!-- src/components/Flog.vue&#45;&gt;src/composables/useFlog.ts -->
<g id="edge17" class="edge">
<title>src/components/Flog.vue&#45;&gt;src/composables/useFlog.ts</title>
<path fill="none" stroke="#000000" stroke-width="2" stroke-opacity="0.200000" d="M286.86,-374.98C293.28,-372.76 299.52,-369.32 303.75,-364 337.13,-322 287.36,-288.88 316.75,-244 344.61,-201.45 403.31,-182.64 441.87,-174.61"/>
<polygon fill="#000000" fill-opacity="0.200000" stroke="#000000" stroke-width="2" stroke-opacity="0.200000" points="442.77,-176.18 448.25,-172.97 441.96,-172.06 442.77,-176.18"/>
</g>
<!-- src/components/EntryList.vue -->
<g id="node15" class="node">
<title>src/components/EntryList.vue</title>
<g id="a_node15"><a xlink:href="src/components/EntryList.vue" xlink:title="EntryList.vue">
<path fill="#41f083" stroke="black" d="M393.58,-417.88C393.58,-417.88 336.92,-417.88 336.92,-417.88 333.96,-417.88 331,-414.92 331,-411.96 331,-411.96 331,-406.04 331,-406.04 331,-403.08 333.96,-400.12 336.92,-400.12 336.92,-400.12 393.58,-400.12 393.58,-400.12 396.54,-400.12 399.5,-403.08 399.5,-406.04 399.5,-406.04 399.5,-411.96 399.5,-411.96 399.5,-414.92 396.54,-417.88 393.58,-417.88"/>
<text text-anchor="start" x="339" y="-405.32" font-family="Helvetica,sans-Serif" font-size="9.00">EntryList.vue</text>
</a>
</g>
</g>
<!-- src/components/Flog.vue&#45;&gt;src/components/EntryList.vue -->
<g id="edge15" class="edge">
<title>src/components/Flog.vue&#45;&gt;src/components/EntryList.vue</title>
<path fill="none" stroke="#000000" stroke-width="2" stroke-opacity="0.200000" d="M287.14,-386.65C298.23,-389.86 311.39,-393.68 323.67,-397.24"/>
<polygon fill="#000000" fill-opacity="0.200000" stroke="#000000" stroke-width="2" stroke-opacity="0.200000" points="323.65,-400 330,-399.65 324.82,-395.96 323.65,-400"/>
</g>
<!-- src/components/Pretext.vue -->
<g id="node16" class="node">
<title>src/components/Pretext.vue</title>
<g id="a_node16"><a xlink:href="src/components/Pretext.vue" xlink:title="Pretext.vue">
<path fill="#41f083" stroke="black" d="M390.21,-387.88C390.21,-387.88 340.29,-387.88 340.29,-387.88 337.33,-387.88 334.38,-384.92 334.38,-381.96 334.38,-381.96 334.38,-376.04 334.38,-376.04 334.38,-373.08 337.33,-370.12 340.29,-370.12 340.29,-370.12 390.21,-370.12 390.21,-370.12 393.17,-370.12 396.12,-373.08 396.12,-376.04 396.12,-376.04 396.12,-381.96 396.12,-381.96 396.12,-384.92 393.17,-387.88 390.21,-387.88"/>
<text text-anchor="start" x="342.38" y="-375.32" font-family="Helvetica,sans-Serif" font-size="9.00">Pretext.vue</text>
</a>
</g>
</g>
<!-- src/components/Flog.vue&#45;&gt;src/components/Pretext.vue -->
<g id="edge16" class="edge">
<title>src/components/Flog.vue&#45;&gt;src/components/Pretext.vue</title>
<path fill="none" stroke="#000000" stroke-width="2" stroke-opacity="0.200000" d="M287.14,-379C298.61,-379 312.28,-379 324.91,-379"/>
<polygon fill="#000000" fill-opacity="0.200000" stroke="#000000" stroke-width="2" stroke-opacity="0.200000" points="324.88,-381.1 330.88,-379 324.88,-376.9 324.88,-381.1"/>
</g>
<!-- src/components/FlogList.vue&#45;&gt;src/composables/useFlogSource.ts -->
<g id="edge22" class="edge">
<title>src/components/FlogList.vue&#45;&gt;src/composables/useFlogSource.ts</title>
<path fill="none" stroke="#000000" stroke-width="2" stroke-opacity="0.200000" d="M292.73,-282.73C297,-280.61 300.88,-277.78 303.75,-274 331.35,-237.64 285.61,-102.37 316.75,-69 349.11,-34.32 485.79,-37.17 529.75,-55 548.52,-62.61 564.44,-79.93 574.38,-92.92"/>
<polygon fill="#000000" fill-opacity="0.200000" stroke="#000000" stroke-width="2" stroke-opacity="0.200000" points="573.28,-94.35 578.51,-97.96 576.67,-91.87 573.28,-94.35"/>
</g>
<!-- src/components/FlogList.vue&#45;&gt;src/composables/useOpenFlogs.ts -->
<g id="edge23" class="edge">
<title>src/components/FlogList.vue&#45;&gt;src/composables/useOpenFlogs.ts</title>
<path fill="none" stroke="#000000" stroke-width="2" stroke-opacity="0.200000" d="M292.67,-282.69C296.95,-280.57 300.85,-277.76 303.75,-274 325.95,-245.24 290.21,-135.82 316.75,-111 350.32,-79.61 407.04,-87.48 443.67,-97.28"/>
<polygon fill="#000000" fill-opacity="0.200000" stroke="#000000" stroke-width="2" stroke-opacity="0.200000" points="443.73,-100.04 450.08,-99.65 444.87,-96 443.73,-100.04"/>
</g>
<!-- src/components/AddFlog.vue -->
<g id="node12" class="node">
<title>src/components/AddFlog.vue</title>
<g id="a_node12"><a xlink:href="src/components/AddFlog.vue" xlink:title="AddFlog.vue">
<path fill="#41f083" stroke="black" d="M393.21,-267.88C393.21,-267.88 337.29,-267.88 337.29,-267.88 334.33,-267.88 331.38,-264.92 331.38,-261.96 331.38,-261.96 331.38,-256.04 331.38,-256.04 331.38,-253.08 334.33,-250.12 337.29,-250.12 337.29,-250.12 393.21,-250.12 393.21,-250.12 396.17,-250.12 399.12,-253.08 399.12,-256.04 399.12,-256.04 399.12,-261.96 399.12,-261.96 399.12,-264.92 396.17,-267.88 393.21,-267.88"/>
<text text-anchor="start" x="339.38" y="-255.32" font-family="Helvetica,sans-Serif" font-size="9.00">AddFlog.vue</text>
</a>
</g>
</g>
<!-- src/components/FlogList.vue&#45;&gt;src/components/AddFlog.vue -->
<g id="edge21" class="edge">
<title>src/components/FlogList.vue&#45;&gt;src/components/AddFlog.vue</title>
<path fill="none" stroke="#000000" stroke-width="2" stroke-opacity="0.200000" d="M292.93,-279.67C302.67,-276.85 313.49,-273.71 323.69,-270.76"/>
<polygon fill="#000000" fill-opacity="0.200000" stroke="#000000" stroke-width="2" stroke-opacity="0.200000" points="324.91,-272.01 330.09,-268.32 323.74,-267.98 324.91,-272.01"/>
</g>
<!-- src/components/Head.vue&#45;&gt;src/composables/useFlogSource.ts -->
<g id="edge25" class="edge">
<title>src/components/Head.vue&#45;&gt;src/composables/useFlogSource.ts</title>
<path fill="none" stroke="#000000" stroke-width="2" stroke-opacity="0.200000" d="M287.91,-344.79C294.01,-342.56 299.83,-339.17 303.75,-334 331.86,-296.92 289.48,-162.7 316.75,-125 346.21,-84.28 372.4,-92.5 421.75,-83 468.88,-73.92 482.89,-72.59 529.75,-83 541.13,-85.53 552.94,-90.64 562.74,-95.67"/>
<polygon fill="#000000" fill-opacity="0.200000" stroke="#000000" stroke-width="2" stroke-opacity="0.200000" points="562.16,-97.82 568.44,-98.82 564.15,-94.12 562.16,-97.82"/>
</g>
<!-- src/components/ThemeSwitcher.vue -->
<g id="node17" class="node">
<title>src/components/ThemeSwitcher.vue</title>
<g id="a_node17"><a xlink:href="src/components/ThemeSwitcher.vue" xlink:title="ThemeSwitcher.vue">
<path fill="#41f083" stroke="black" d="M407.83,-327.88C407.83,-327.88 322.67,-327.88 322.67,-327.88 319.71,-327.88 316.75,-324.92 316.75,-321.96 316.75,-321.96 316.75,-316.04 316.75,-316.04 316.75,-313.08 319.71,-310.12 322.67,-310.12 322.67,-310.12 407.83,-310.12 407.83,-310.12 410.79,-310.12 413.75,-313.08 413.75,-316.04 413.75,-316.04 413.75,-321.96 413.75,-321.96 413.75,-324.92 410.79,-327.88 407.83,-327.88"/>
<text text-anchor="start" x="324.75" y="-315.32" font-family="Helvetica,sans-Serif" font-size="9.00">ThemeSwitcher.vue</text>
</a>
</g>
</g>
<!-- src/components/Head.vue&#45;&gt;src/components/ThemeSwitcher.vue -->
<g id="edge24" class="edge">
<title>src/components/Head.vue&#45;&gt;src/components/ThemeSwitcher.vue</title>
<path fill="none" stroke="#000000" stroke-width="2" stroke-opacity="0.200000" d="M287.94,-341.12C298.84,-337.96 311.62,-334.26 323.57,-330.79"/>
<polygon fill="#000000" fill-opacity="0.200000" stroke="#000000" stroke-width="2" stroke-opacity="0.200000" points="324.91,-332.01 330.09,-328.32 323.74,-327.97 324.91,-332.01"/>
</g>
<!-- src/modules/Flog.ts -->
<g id="node18" class="node">
<title>src/modules/Flog.ts</title>
<g id="a_node18"><a xlink:href="src/modules/Flog.ts" xlink:title="Flog.ts">
<path fill="#ddfeff" stroke="black" d="M712.96,-267.88C712.96,-267.88 670.79,-267.88 670.79,-267.88 667.83,-267.88 664.88,-264.92 664.88,-261.96 664.88,-261.96 664.88,-256.04 664.88,-256.04 664.88,-253.08 667.83,-250.12 670.79,-250.12 670.79,-250.12 712.96,-250.12 712.96,-250.12 715.92,-250.12 718.88,-253.08 718.88,-256.04 718.88,-256.04 718.88,-261.96 718.88,-261.96 718.88,-264.92 715.92,-267.88 712.96,-267.88"/>
<text text-anchor="start" x="678.38" y="-255.32" font-family="Helvetica,sans-Serif" font-size="9.00">Flog.ts</text>
</a>
</g>
</g>
<!-- src/components/Head.vue&#45;&gt;src/modules/Flog.ts -->
<g id="edge26" class="edge">
<title>src/components/Head.vue&#45;&gt;src/modules/Flog.ts</title>
<path fill="none" stroke="#000000" stroke-width="2" stroke-opacity="0.200000" d="M288.07,-344.4C294.02,-342.18 299.73,-338.88 303.75,-334 329.45,-302.81 286.2,-270.46 316.75,-244 329.43,-233.02 564.88,-249.5 655.63,-256.29"/>
<polygon fill="#000000" fill-opacity="0.200000" stroke="#000000" stroke-width="2" stroke-opacity="0.200000" points="655.31,-258.6 661.45,-256.96 655.62,-254.41 655.31,-258.6"/>
</g>
<!-- src/components/Login.vue&#45;&gt;src/composables/useFlogSource.ts -->
<g id="edge30" class="edge">
<title>src/components/Login.vue&#45;&gt;src/composables/useFlogSource.ts</title>
<path fill="none" stroke="#000000" stroke-width="2" stroke-opacity="0.200000" d="M288.36,-314.62C294.29,-312.39 299.93,-309.04 303.75,-304 331.6,-267.28 287.54,-132.65 316.75,-97 347.01,-60.07 484.31,-54.36 529.75,-69 545.02,-73.92 559.64,-84.76 570.06,-93.91"/>
<polygon fill="#000000" fill-opacity="0.200000" stroke="#000000" stroke-width="2" stroke-opacity="0.200000" points="568.71,-95.37 574.55,-97.89 571.56,-92.28 568.71,-95.37"/>
</g>
<!-- src/components/Login.vue&#45;&gt;src/composables/useOpenFlogs.ts -->
<g id="edge31" class="edge">
<title>src/components/Login.vue&#45;&gt;src/composables/useOpenFlogs.ts</title>
<path fill="none" stroke="#000000" stroke-width="2" stroke-opacity="0.200000" d="M288.23,-314.53C294.17,-312.3 299.84,-308.97 303.75,-304 340.2,-257.67 282.49,-219.98 316.75,-172 342.16,-136.42 390.7,-120.93 428.04,-114.19"/>
<polygon fill="#000000" fill-opacity="0.200000" stroke="#000000" stroke-width="2" stroke-opacity="0.200000" points="429.22,-115.79 434.79,-112.74 428.53,-111.65 429.22,-115.79"/>
</g>
<!-- src/components/Intro.vue -->
<g id="node19" class="node">
<title>src/components/Intro.vue</title>
<g id="a_node19"><a xlink:href="src/components/Intro.vue" xlink:title="Intro.vue">
<path fill="#41f083" stroke="black" d="M386.33,-357.88C386.33,-357.88 344.17,-357.88 344.17,-357.88 341.21,-357.88 338.25,-354.92 338.25,-351.96 338.25,-351.96 338.25,-346.04 338.25,-346.04 338.25,-343.08 341.21,-340.12 344.17,-340.12 344.17,-340.12 386.33,-340.12 386.33,-340.12 389.29,-340.12 392.25,-343.08 392.25,-346.04 392.25,-346.04 392.25,-351.96 392.25,-351.96 392.25,-354.92 389.29,-357.88 386.33,-357.88"/>
<text text-anchor="start" x="347.62" y="-345.32" font-family="Helvetica,sans-Serif" font-size="9.00">Intro.vue</text>
</a>
</g>
</g>
<!-- src/components/Login.vue&#45;&gt;src/components/Intro.vue -->
<g id="edge28" class="edge">
<title>src/components/Login.vue&#45;&gt;src/components/Intro.vue</title>
<path fill="none" stroke="#000000" stroke-width="2" stroke-opacity="0.200000" d="M288.49,-327.04C301.06,-330.68 316.07,-335.03 329.39,-338.9"/>
<polygon fill="#000000" fill-opacity="0.200000" stroke="#000000" stroke-width="2" stroke-opacity="0.200000" points="329.52,-341.7 335.86,-341.35 330.69,-337.66 329.52,-341.7"/>
</g>
<!-- src/components/Modal.vue -->
<g id="node20" class="node">
<title>src/components/Modal.vue</title>
<g id="a_node20"><a xlink:href="src/components/Modal.vue" xlink:title="Modal.vue">
<path fill="#41f083" stroke="black" d="M388.71,-297.88C388.71,-297.88 341.79,-297.88 341.79,-297.88 338.83,-297.88 335.88,-294.92 335.88,-291.96 335.88,-291.96 335.88,-286.04 335.88,-286.04 335.88,-283.08 338.83,-280.12 341.79,-280.12 341.79,-280.12 388.71,-280.12 388.71,-280.12 391.67,-280.12 394.62,-283.08 394.62,-286.04 394.62,-286.04 394.62,-291.96 394.62,-291.96 394.62,-294.92 391.67,-297.88 388.71,-297.88"/>
<text text-anchor="start" x="343.88" y="-285.32" font-family="Helvetica,sans-Serif" font-size="9.00">Modal.vue</text>
</a>
</g>
</g>
<!-- src/components/Login.vue&#45;&gt;src/components/Modal.vue -->
<g id="edge29" class="edge">
<title>src/components/Login.vue&#45;&gt;src/components/Modal.vue</title>
<path fill="none" stroke="#000000" stroke-width="2" stroke-opacity="0.200000" d="M288.49,-310.96C300.36,-307.52 314.39,-303.45 327.14,-299.76"/>
<polygon fill="#000000" fill-opacity="0.200000" stroke="#000000" stroke-width="2" stroke-opacity="0.200000" points="328.54,-300.96 333.72,-297.27 327.37,-296.92 328.54,-300.96"/>
</g>
<!-- src/composables/useFlogSource.ts&#45;&gt;src/modules/EntryData.ts -->
<g id="edge39" class="edge">
<title>src/composables/useFlogSource.ts&#45;&gt;src/modules/EntryData.ts</title>
<path fill="none" stroke="#000000" stroke-width="2" stroke-opacity="0.200000" d="M621.32,-118.29C664.02,-130.27 732.76,-150.68 740.75,-160 763.33,-186.35 732.81,-209.32 753.75,-237 756.05,-240.04 758.87,-242.68 761.98,-244.96"/>
<polygon fill="#000000" fill-opacity="0.200000" stroke="#000000" stroke-width="2" stroke-opacity="0.200000" points="761.43,-247.32 767.64,-248.68 763.64,-243.74 761.43,-247.32"/>
</g>
<!-- src/composables/useFlogSource.ts&#45;&gt;src/modules/Flog.ts -->
<g id="edge40" class="edge">
<title>src/composables/useFlogSource.ts&#45;&gt;src/modules/Flog.ts</title>
<path fill="none" stroke="#000000" stroke-width="2" stroke-opacity="0.200000" d="M590.94,-118.23C601.76,-146.07 634.01,-227.83 643,-237 646.95,-241.03 651.77,-244.4 656.82,-247.18"/>
<polygon fill="#000000" fill-opacity="0.200000" stroke="#000000" stroke-width="2" stroke-opacity="0.200000" points="656.54,-249.36 662.85,-250.1 658.38,-245.58 656.54,-249.36"/>
</g>
<!-- src/composables/useDropboxFlogs.ts -->
<g id="node23" class="node">
<title>src/composables/useDropboxFlogs.ts</title>
<g id="a_node23"><a xlink:href="src/composables/useDropboxFlogs.ts" xlink:title="useDropboxFlogs.ts">
<path fill="#ddfeff" stroke="black" d="M734.83,-117.88C734.83,-117.88 648.92,-117.88 648.92,-117.88 645.96,-117.88 643,-114.92 643,-111.96 643,-111.96 643,-106.04 643,-106.04 643,-103.08 645.96,-100.12 648.92,-100.12 648.92,-100.12 734.83,-100.12 734.83,-100.12 737.79,-100.12 740.75,-103.08 740.75,-106.04 740.75,-106.04 740.75,-111.96 740.75,-111.96 740.75,-114.92 737.79,-117.88 734.83,-117.88"/>
<text text-anchor="start" x="651" y="-105.33" font-family="Helvetica,sans-Serif" font-size="9.00">useDropboxFlogs.ts</text>
</a>
</g>
</g>
<!-- src/composables/useFlogSource.ts&#45;&gt;src/composables/useDropboxFlogs.ts -->
<g id="edge38" class="edge">
<title>src/composables/useFlogSource.ts&#45;&gt;src/composables/useDropboxFlogs.ts</title>
<path fill="none" stroke="#000000" stroke-width="2" stroke-opacity="0.200000" d="M630.37,-109C631.53,-109 632.69,-109 633.85,-109"/>
<polygon fill="#000000" fill-opacity="0.200000" stroke="#000000" stroke-width="2" stroke-opacity="0.200000" points="633.82,-111.1 639.82,-109 633.82,-106.9 633.82,-111.1"/>
</g>
<!-- src/composables/useOpenFlogs.ts&#45;&gt;src/composables/useFlogSource.ts -->
<g id="edge42" class="edge">
<title>src/composables/useOpenFlogs.ts&#45;&gt;src/composables/useFlogSource.ts</title>
<path fill="none" stroke="#000000" stroke-width="2" stroke-opacity="0.200000" d="M522.7,-109C526.25,-109 529.86,-109 533.46,-109"/>
<polygon fill="#000000" fill-opacity="0.200000" stroke="#000000" stroke-width="2" stroke-opacity="0.200000" points="533.39,-111.1 539.39,-109 533.39,-106.9 533.39,-111.1"/>
</g>
<!-- src/DbAuthPopup.vue -->
<g id="node8" class="node">
<title>src/DbAuthPopup.vue</title>
<g id="a_node8"><a xlink:href="src/DbAuthPopup.vue" xlink:title="DbAuthPopup.vue">
<path fill="#41f083" stroke="black" d="M193.83,-267.88C193.83,-267.88 114.67,-267.88 114.67,-267.88 111.71,-267.88 108.75,-264.92 108.75,-261.96 108.75,-261.96 108.75,-256.04 108.75,-256.04 108.75,-253.08 111.71,-250.12 114.67,-250.12 114.67,-250.12 193.83,-250.12 193.83,-250.12 196.79,-250.12 199.75,-253.08 199.75,-256.04 199.75,-256.04 199.75,-261.96 199.75,-261.96 199.75,-264.92 196.79,-267.88 193.83,-267.88"/>
<text text-anchor="start" x="116.75" y="-255.32" font-family="Helvetica,sans-Serif" font-size="9.00">DbAuthPopup.vue</text>
</a>
</g>
</g>
<!-- src/components/DropBoxAuth.vue -->
<g id="node9" class="node">
<title>src/components/DropBoxAuth.vue</title>
<g id="a_node9"><a xlink:href="src/components/DropBoxAuth.vue" xlink:title="DropBoxAuth.vue">
<path fill="#41f083" stroke="black" d="M297.83,-267.88C297.83,-267.88 221.67,-267.88 221.67,-267.88 218.71,-267.88 215.75,-264.92 215.75,-261.96 215.75,-261.96 215.75,-256.04 215.75,-256.04 215.75,-253.08 218.71,-250.12 221.67,-250.12 221.67,-250.12 297.83,-250.12 297.83,-250.12 300.79,-250.12 303.75,-253.08 303.75,-256.04 303.75,-256.04 303.75,-261.96 303.75,-261.96 303.75,-264.92 300.79,-267.88 297.83,-267.88"/>
<text text-anchor="start" x="223.75" y="-255.32" font-family="Helvetica,sans-Serif" font-size="9.00">DropBoxAuth.vue</text>
</a>
</g>
</g>
<!-- src/DbAuthPopup.vue&#45;&gt;src/components/DropBoxAuth.vue -->
<g id="edge7" class="edge">
<title>src/DbAuthPopup.vue&#45;&gt;src/components/DropBoxAuth.vue</title>
<path fill="none" stroke="#000000" stroke-width="2" stroke-opacity="0.200000" d="M200.04,-259C202.29,-259 204.56,-259 206.82,-259"/>
<polygon fill="#000000" fill-opacity="0.200000" stroke="#000000" stroke-width="2" stroke-opacity="0.200000" points="206.52,-261.1 212.52,-259 206.52,-256.9 206.52,-261.1"/>
</g>
<!-- src/components/DropBoxAuth.vue&#45;&gt;src/composables/useFlogSource.ts -->
<g id="edge9" class="edge">
<title>src/components/DropBoxAuth.vue&#45;&gt;src/composables/useFlogSource.ts</title>
<path fill="none" stroke="#000000" stroke-width="2" stroke-opacity="0.200000" d="M300.18,-249.64C301.48,-248.55 302.68,-247.34 303.75,-246 332.11,-210.23 283.47,-72.24 316.75,-41 334.01,-24.8 508.36,-30.86 529.75,-41 551.82,-51.46 568.04,-75.43 577.09,-91.92"/>
<polygon fill="#000000" fill-opacity="0.200000" stroke="#000000" stroke-width="2" stroke-opacity="0.200000" points="575.54,-93.4 580.17,-97.75 579.26,-91.46 575.54,-93.4"/>
</g>
<!-- src/components/AddEntry.vue&#45;&gt;src/modules/EntryData.ts -->
<g id="edge8" class="edge">
<title>src/components/AddEntry.vue&#45;&gt;src/modules/EntryData.ts</title>
<path fill="none" stroke="#000000" stroke-width="2" stroke-opacity="0.200000" d="M396.74,-429.67C461.71,-409.29 617.9,-357.66 740.75,-296 754.16,-289.27 768.45,-280.42 779.65,-273.07"/>
<polygon fill="#000000" fill-opacity="0.200000" stroke="#000000" stroke-width="2" stroke-opacity="0.200000" points="781.03,-274.33 784.86,-269.26 778.7,-270.84 781.03,-274.33"/>
</g>
<!-- src/components/Entry.vue -->
<g id="node13" class="node">
<title>src/components/Entry.vue</title>
<g id="a_node13"><a xlink:href="src/components/Entry.vue" xlink:title="Entry.vue">
<path fill="#41f083" stroke="black" d="M500.96,-311.88C500.96,-311.88 458.54,-311.88 458.54,-311.88 455.58,-311.88 452.62,-308.92 452.62,-305.96 452.62,-305.96 452.62,-300.04 452.62,-300.04 452.62,-297.08 455.58,-294.12 458.54,-294.12 458.54,-294.12 500.96,-294.12 500.96,-294.12 503.92,-294.12 506.88,-297.08 506.88,-300.04 506.88,-300.04 506.88,-305.96 506.88,-305.96 506.88,-308.92 503.92,-311.88 500.96,-311.88"/>
<text text-anchor="start" x="460.62" y="-299.32" font-family="Helvetica,sans-Serif" font-size="9.00">Entry.vue</text>
</a>
</g>
</g>
<!-- src/components/Entry.vue&#45;&gt;src/modules/EntryData.ts -->
<g id="edge10" class="edge">
<title>src/components/Entry.vue&#45;&gt;src/modules/EntryData.ts</title>
<path fill="none" stroke="#000000" stroke-opacity="0.200000" d="M507.04,-304.12C554.48,-305.49 657.26,-305.51 740.75,-285 753.27,-281.92 766.47,-276.4 777.23,-271.23"/>
<polygon fill="none" stroke="#000000" stroke-opacity="0.200000" points="777.82,-272.79 782.27,-268.25 775.96,-269.02 777.82,-272.79"/>
</g>
<!-- src/components/Entry.vue&#45;&gt;src/composables/useFlog.ts -->
<g id="edge11" class="edge">
<title>src/components/Entry.vue&#45;&gt;src/composables/useFlog.ts</title>
<path fill="none" stroke="#000000" stroke-width="2" stroke-opacity="0.200000" d="M452.3,-301.66C437.77,-299.23 422.06,-293.25 417.75,-279 414.88,-269.54 414.88,-199.46 417.75,-190 421,-179.25 430.98,-173.67 442.01,-170.87"/>
<polygon fill="#000000" fill-opacity="0.200000" stroke="#000000" stroke-width="2" stroke-opacity="0.200000" points="443.06,-172.43 448.55,-169.23 442.27,-168.3 443.06,-172.43"/>
</g>
<!-- src/composables/useFlog.ts&#45;&gt;src/composables/useFlogSource.ts -->
<g id="edge35" class="edge">
<title>src/composables/useFlog.ts&#45;&gt;src/composables/useFlogSource.ts</title>
<path fill="none" stroke="#000000" stroke-width="2" stroke-opacity="0.200000" d="M509.22,-162.3C516.15,-160.13 523.39,-157.38 529.75,-154 544.69,-146.06 559.47,-133.83 570.04,-124.13"/>
<polygon fill="#000000" fill-opacity="0.200000" stroke="#000000" stroke-width="2" stroke-opacity="0.200000" points="571.41,-125.83 574.33,-120.19 568.53,-122.78 571.41,-125.83"/>
</g>
<!-- src/composables/useFlog.ts&#45;&gt;src/modules/EntryData.ts -->
<g id="edge36" class="edge">
<title>src/composables/useFlog.ts&#45;&gt;src/modules/EntryData.ts</title>
<path fill="none" stroke="#000000" stroke-width="2" stroke-opacity="0.200000" d="M508.98,-169.77C539.34,-171.16 588.79,-175.06 630,-186 658.13,-193.46 731.61,-226.91 772.19,-245.83"/>
<polygon fill="#000000" fill-opacity="0.200000" stroke="#000000" stroke-width="2" stroke-opacity="0.200000" points="772,-248 778.32,-248.64 773.78,-244.19 772,-248"/>
</g>
<!-- src/composables/useFlog.ts&#45;&gt;src/modules/Flog.ts -->
<g id="edge37" class="edge">
<title>src/composables/useFlog.ts&#45;&gt;src/modules/Flog.ts</title>
<path fill="none" stroke="#000000" stroke-width="2" stroke-opacity="0.200000" d="M509.22,-176.98C516.01,-179.08 523.19,-181.48 529.75,-184 581.61,-203.96 592.58,-213.62 643,-237 649.42,-239.98 656.33,-243.16 662.85,-246.16"/>
<polygon fill="#000000" fill-opacity="0.200000" stroke="#000000" stroke-width="2" stroke-opacity="0.200000" points="662.5,-248.23 668.83,-248.83 664.25,-244.41 662.5,-248.23"/>
</g>
<!-- src/components/EntryList.vue&#45;&gt;src/modules/EntryData.ts -->
<g id="edge13" class="edge">
<title>src/components/EntryList.vue&#45;&gt;src/modules/EntryData.ts</title>
<path fill="none" stroke="#000000" stroke-width="2" stroke-opacity="0.200000" d="M399.57,-404.07C405.03,-401.83 410.1,-398.61 413.75,-394 428.42,-375.49 404.79,-304.44 421.75,-288 447.23,-263.31 705.65,-279.15 740.75,-274 746.97,-273.09 753.48,-271.8 759.82,-270.35"/>
<polygon fill="#000000" fill-opacity="0.200000" stroke="#000000" stroke-width="2" stroke-opacity="0.200000" points="760.98,-271.75 766.32,-268.3 759.99,-267.67 760.98,-271.75"/>
</g>
<!-- src/components/EntryList.vue&#45;&gt;src/components/Entry.vue -->
<g id="edge12" class="edge">
<title>src/components/EntryList.vue&#45;&gt;src/components/Entry.vue</title>
<path fill="none" stroke="#000000" stroke-width="2" stroke-opacity="0.200000" d="M399.71,-402.21C404.78,-400.16 409.67,-397.48 413.75,-394 419.8,-388.84 417.55,-384.75 421.75,-378 435.12,-356.52 453.14,-333.62 465.32,-318.85"/>
<polygon fill="#000000" fill-opacity="0.200000" stroke="#000000" stroke-width="2" stroke-opacity="0.200000" points="467.55,-320.25 469.77,-314.3 464.32,-317.56 467.55,-320.25"/>
</g>
<!-- src/composables/useTheme.ts -->
<g id="node21" class="node">
<title>src/composables/useTheme.ts</title>
<g id="a_node21"><a xlink:href="src/composables/useTheme.ts" xlink:title="useTheme.ts">
<path fill="#ddfeff" stroke="black" d="M508.08,-207.88C508.08,-207.88 451.42,-207.88 451.42,-207.88 448.46,-207.88 445.5,-204.92 445.5,-201.96 445.5,-201.96 445.5,-196.04 445.5,-196.04 445.5,-193.08 448.46,-190.12 451.42,-190.12 451.42,-190.12 508.08,-190.12 508.08,-190.12 511.04,-190.12 514,-193.08 514,-196.04 514,-196.04 514,-201.96 514,-201.96 514,-204.92 511.04,-207.88 508.08,-207.88"/>
<text text-anchor="start" x="453.5" y="-195.32" font-family="Helvetica,sans-Serif" font-size="9.00">useTheme.ts</text>
</a>
</g>
</g>
<!-- src/components/ThemeSwitcher.vue&#45;&gt;src/composables/useTheme.ts -->
<g id="edge32" class="edge">
<title>src/components/ThemeSwitcher.vue&#45;&gt;src/composables/useTheme.ts</title>
<path fill="none" stroke="#000000" stroke-width="2" stroke-opacity="0.200000" d="M407.22,-309.82C409.65,-308.19 411.87,-306.26 413.75,-304 432.36,-281.62 406.77,-263.96 421.75,-239 428.41,-227.91 439.46,-219.1 450.07,-212.6"/>
<polygon fill="#000000" fill-opacity="0.200000" stroke="#000000" stroke-width="2" stroke-opacity="0.200000" points="451.48,-214.08 455.65,-209.28 449.4,-210.43 451.48,-214.08"/>
</g>
<!-- src/modules/Flog.ts&#45;&gt;src/modules/EntryData.ts -->
<g id="edge45" class="edge">
<title>src/modules/Flog.ts&#45;&gt;src/modules/EntryData.ts</title>
<path fill="none" stroke="#000000" stroke-opacity="0.200000" d="M719.11,-259C731.8,-259 747.27,-259 761.29,-259"/>
<polygon fill="none" stroke="#000000" stroke-opacity="0.200000" points="761.03,-261.1 767.03,-259 761.03,-256.9 761.03,-261.1"/>
</g>
<!-- src/components/Intro.vue&#45;&gt;src/composables/useFlogSource.ts -->
<g id="edge27" class="edge">
<title>src/components/Intro.vue&#45;&gt;src/composables/useFlogSource.ts</title>
<path fill="none" stroke="#000000" stroke-width="2" stroke-opacity="0.200000" d="M392.44,-346.17C400.37,-344.03 408.39,-340.34 413.75,-334 430.27,-314.47 407.49,-298.24 421.75,-277 452.72,-230.86 491.27,-254.09 529.75,-214 554.61,-188.1 571.38,-148.89 579.56,-126.44"/>
<polygon fill="#000000" fill-opacity="0.200000" stroke="#000000" stroke-width="2" stroke-opacity="0.200000" points="581.45,-126.55 581.46,-120.19 577.49,-125.16 581.45,-126.55"/>
</g>
<!-- src/composables/useDropboxFiles.ts -->
<g id="node22" class="node">
<title>src/composables/useDropboxFiles.ts</title>
<g id="a_node22"><a xlink:href="src/composables/useDropboxFiles.ts" xlink:title="useDropboxFiles.ts">
<path fill="#ddfeff" stroke="black" d="M842.58,-117.88C842.58,-117.88 759.67,-117.88 759.67,-117.88 756.71,-117.88 753.75,-114.92 753.75,-111.96 753.75,-111.96 753.75,-106.04 753.75,-106.04 753.75,-103.08 756.71,-100.12 759.67,-100.12 759.67,-100.12 842.58,-100.12 842.58,-100.12 845.54,-100.12 848.5,-103.08 848.5,-106.04 848.5,-106.04 848.5,-111.96 848.5,-111.96 848.5,-114.92 845.54,-117.88 842.58,-117.88"/>
<text text-anchor="start" x="761.75" y="-105.33" font-family="Helvetica,sans-Serif" font-size="9.00">useDropboxFiles.ts</text>
</a>
</g>
</g>
<!-- src/composables/useDropboxFlogs.ts&#45;&gt;src/modules/Flog.ts -->
<g id="edge34" class="edge">
<title>src/composables/useDropboxFlogs.ts&#45;&gt;src/modules/Flog.ts</title>
<path fill="none" stroke="#000000" stroke-width="2" stroke-opacity="0.200000" d="M691.88,-118.38C691.88,-159.15 691.88,-199.92 691.88,-240.69"/>
<polygon fill="#000000" fill-opacity="0.200000" stroke="#000000" stroke-width="2" stroke-opacity="0.200000" points="689.78,-240.66 691.88,-246.66 693.98,-240.66 689.78,-240.66"/>
</g>
<!-- src/composables/useDropboxFlogs.ts&#45;&gt;src/composables/useDropboxFiles.ts -->
<g id="edge33" class="edge">
<title>src/composables/useDropboxFlogs.ts&#45;&gt;src/composables/useDropboxFiles.ts</title>
<path fill="none" stroke="#000000" stroke-width="2" stroke-opacity="0.200000" d="M741.17,-109C742.32,-109 743.48,-109 744.65,-109"/>
<polygon fill="#000000" fill-opacity="0.200000" stroke="#000000" stroke-width="2" stroke-opacity="0.200000" points="744.54,-111.1 750.54,-109 744.54,-106.9 744.54,-111.1"/>
</g>
<!-- src/composables/useLoadedEntries.ts -->
<g id="node24" class="node">
<title>src/composables/useLoadedEntries.ts</title>
<g id="a_node24"><a xlink:href="src/composables/useLoadedEntries.ts" xlink:title="useLoadedEntries.ts">
<path fill="#ddfeff" stroke="black" d="M523.83,-147.88C523.83,-147.88 435.67,-147.88 435.67,-147.88 432.71,-147.88 429.75,-144.92 429.75,-141.96 429.75,-141.96 429.75,-136.04 429.75,-136.04 429.75,-133.08 432.71,-130.12 435.67,-130.12 435.67,-130.12 523.83,-130.12 523.83,-130.12 526.79,-130.12 529.75,-133.08 529.75,-136.04 529.75,-136.04 529.75,-141.96 529.75,-141.96 529.75,-144.92 526.79,-147.88 523.83,-147.88"/>
<text text-anchor="start" x="437.75" y="-135.32" font-family="Helvetica,sans-Serif" font-size="9.00">useLoadedEntries.ts</text>
</a>
</g>
</g>
<!-- src/composables/useLoadedEntries.ts&#45;&gt;src/modules/EntryData.ts -->
<g id="edge41" class="edge">
<title>src/composables/useLoadedEntries.ts&#45;&gt;src/modules/EntryData.ts</title>
<path fill="none" stroke="#000000" stroke-width="2" stroke-opacity="0.200000" d="M530.12,-141.9C596.83,-146.83 710.84,-159.17 740.75,-187 757.56,-202.64 739.11,-219.31 753.75,-237 756.31,-240.1 759.41,-242.78 762.78,-245.11"/>
<polygon fill="#000000" fill-opacity="0.200000" stroke="#000000" stroke-width="2" stroke-opacity="0.200000" points="762.23,-247.41 768.47,-248.65 764.37,-243.79 762.23,-247.41"/>
</g>
<!-- src/dbauthpopup.js -->
<g id="node25" class="node">
<title>src/dbauthpopup.js</title>
<g id="a_node25"><a xlink:href="src/dbauthpopup.js" xlink:title="dbauthpopup.js">
<path fill="#ffffcc" stroke="black" d="M89.83,-267.88C89.83,-267.88 21.92,-267.88 21.92,-267.88 18.96,-267.88 16,-264.92 16,-261.96 16,-261.96 16,-256.04 16,-256.04 16,-253.08 18.96,-250.12 21.92,-250.12 21.92,-250.12 89.83,-250.12 89.83,-250.12 92.79,-250.12 95.75,-253.08 95.75,-256.04 95.75,-256.04 95.75,-261.96 95.75,-261.96 95.75,-264.92 92.79,-267.88 89.83,-267.88"/>
<text text-anchor="start" x="24" y="-255.32" font-family="Helvetica,sans-Serif" font-size="9.00">dbauthpopup.js</text>
</a>
</g>
</g>
<!-- src/dbauthpopup.js&#45;&gt;src/DbAuthPopup.vue -->
<g id="edge43" class="edge">
<title>src/dbauthpopup.js&#45;&gt;src/DbAuthPopup.vue</title>
<path fill="none" stroke="#000000" stroke-width="2" stroke-opacity="0.200000" d="M96.07,-259C97.22,-259 98.37,-259 99.52,-259"/>
<polygon fill="#000000" fill-opacity="0.200000" stroke="#000000" stroke-width="2" stroke-opacity="0.200000" points="99.41,-261.1 105.41,-259 99.41,-256.9 99.41,-261.1"/>
</g>
<!-- src/main.js -->
<g id="node26" class="node">
<title>src/main.js</title>
<g id="a_node26"><a xlink:href="src/main.js" xlink:title="main.js">
<path fill="#ffffcc" stroke="black" d="M76.96,-312.88C76.96,-312.88 34.79,-312.88 34.79,-312.88 31.83,-312.88 28.88,-309.92 28.88,-306.96 28.88,-306.96 28.88,-301.04 28.88,-301.04 28.88,-298.08 31.83,-295.12 34.79,-295.12 34.79,-295.12 76.96,-295.12 76.96,-295.12 79.92,-295.12 82.88,-298.08 82.88,-301.04 82.88,-301.04 82.88,-306.96 82.88,-306.96 82.88,-309.92 79.92,-312.88 76.96,-312.88"/>
<text text-anchor="start" x="41.25" y="-300.32" font-family="Helvetica,sans-Serif" font-size="9.00">main.js</text>
</a>
</g>
</g>
<!-- src/main.js&#45;&gt;src/App.vue -->
<g id="edge44" class="edge">
<title>src/main.js&#45;&gt;src/App.vue</title>
<path fill="none" stroke="#000000" stroke-width="2" stroke-opacity="0.200000" d="M83.21,-304C93.94,-304 106.5,-304 118.01,-304"/>
<polygon fill="#000000" fill-opacity="0.200000" stroke="#000000" stroke-width="2" stroke-opacity="0.200000" points="117.95,-306.1 123.95,-304 117.95,-301.9 117.95,-306.1"/>
</g>
</g>
</svg>
