<?xml version="1.0" encoding="UTF-8" standalone="no"?>
<!DOCTYPE svg PUBLIC "-//W3C//DTD SVG 1.1//EN"
 "http://www.w3.org/Graphics/SVG/1.1/DTD/svg11.dtd">
<!-- Generated by graphviz version 8.0.5 (20230430.1635)
 -->
<!-- Title: dependency&#45;cruiser output Pages: 1 -->
<svg width="983pt" height="1006pt"
 viewBox="0.00 0.00 982.75 1005.54" xmlns="http://www.w3.org/2000/svg" xmlns:xlink="http://www.w3.org/1999/xlink">
<g id="graph0" class="graph" transform="scale(1 1) rotate(0) translate(4 1001.54)">
<title>dependency&#45;cruiser output</title>
<polygon fill="white" stroke="none" points="-4,4 -4,-1001.54 978.75,-1001.54 978.75,4 -4,4"/>
<g id="clust1" class="cluster">
<title>cluster_node_modules</title>
<path fill="#ffffff" stroke="black" stroke-width="2" d="M884.5,-247.54C884.5,-247.54 954.75,-247.54 954.75,-247.54 960.75,-247.54 966.75,-253.54 966.75,-259.54 966.75,-259.54 966.75,-463.54 966.75,-463.54 966.75,-469.54 960.75,-475.54 954.75,-475.54 954.75,-475.54 884.5,-475.54 884.5,-475.54 878.5,-475.54 872.5,-469.54 872.5,-463.54 872.5,-463.54 872.5,-259.54 872.5,-259.54 872.5,-253.54 878.5,-247.54 884.5,-247.54"/>
<text text-anchor="middle" x="919.62" y="-462.99" font-family="Helvetica,sans-Serif" font-weight="bold" font-size="9.00">node_modules</text>
</g>
<g id="clust2" class="cluster">
<title>cluster_node_modules/@vueuse</title>
<path fill="#ffffff" stroke="black" stroke-width="2" d="M896.62,-341.54C896.62,-341.54 942.62,-341.54 942.62,-341.54 948.62,-341.54 954.62,-347.54 954.62,-353.54 954.62,-353.54 954.62,-381.54 954.62,-381.54 954.62,-387.54 948.62,-393.54 942.62,-393.54 942.62,-393.54 896.62,-393.54 896.62,-393.54 890.62,-393.54 884.62,-387.54 884.62,-381.54 884.62,-381.54 884.62,-353.54 884.62,-353.54 884.62,-347.54 890.62,-341.54 896.62,-341.54"/>
<text text-anchor="middle" x="919.62" y="-380.99" font-family="Helvetica,sans-Serif" font-weight="bold" font-size="9.00">@vueuse</text>
</g>
<g id="clust3" class="cluster">
<title>cluster_src</title>
<path fill="#ffffff" stroke="black" stroke-width="2" d="M20,-487.54C20,-487.54 852.5,-487.54 852.5,-487.54 858.5,-487.54 864.5,-493.54 864.5,-499.54 864.5,-499.54 864.5,-977.54 864.5,-977.54 864.5,-983.54 858.5,-989.54 852.5,-989.54 852.5,-989.54 20,-989.54 20,-989.54 14,-989.54 8,-983.54 8,-977.54 8,-977.54 8,-499.54 8,-499.54 8,-493.54 14,-487.54 20,-487.54"/>
<text text-anchor="middle" x="436.25" y="-976.99" font-family="Helvetica,sans-Serif" font-weight="bold" font-size="9.00">src</text>
</g>
<g id="clust4" class="cluster">
<title>cluster_src/components</title>
<path fill="#ffffff" stroke="black" stroke-width="2" d="M219.75,-645.54C219.75,-645.54 502.88,-645.54 502.88,-645.54 508.88,-645.54 514.88,-651.54 514.88,-657.54 514.88,-657.54 514.88,-865.54 514.88,-865.54 514.88,-871.54 508.88,-877.54 502.88,-877.54 502.88,-877.54 219.75,-877.54 219.75,-877.54 213.75,-877.54 207.75,-871.54 207.75,-865.54 207.75,-865.54 207.75,-657.54 207.75,-657.54 207.75,-651.54 213.75,-645.54 219.75,-645.54"/>
<text text-anchor="middle" x="361.31" y="-864.99" font-family="Helvetica,sans-Serif" font-weight="bold" font-size="9.00">components</text>
</g>
<g id="clust5" class="cluster">
<title>cluster_src/composables</title>
<path fill="#ffffff" stroke="black" stroke-width="2" d="M433.75,-495.54C433.75,-495.54 844.5,-495.54 844.5,-495.54 850.5,-495.54 856.5,-501.54 856.5,-507.54 856.5,-507.54 856.5,-625.54 856.5,-625.54 856.5,-631.54 850.5,-637.54 844.5,-637.54 844.5,-637.54 433.75,-637.54 433.75,-637.54 427.75,-637.54 421.75,-631.54 421.75,-625.54 421.75,-625.54 421.75,-507.54 421.75,-507.54 421.75,-501.54 427.75,-495.54 433.75,-495.54"/>
<text text-anchor="middle" x="639.12" y="-624.99" font-family="Helvetica,sans-Serif" font-weight="bold" font-size="9.00">composables</text>
</g>
<g id="clust6" class="cluster">
<title>cluster_src/modules</title>
<path fill="#ffffff" stroke="black" stroke-width="2" d="M668.88,-645.54C668.88,-645.54 829.88,-645.54 829.88,-645.54 835.88,-645.54 841.88,-651.54 841.88,-657.54 841.88,-657.54 841.88,-685.54 841.88,-685.54 841.88,-691.54 835.88,-697.54 829.88,-697.54 829.88,-697.54 668.88,-697.54 668.88,-697.54 662.88,-697.54 656.88,-691.54 656.88,-685.54 656.88,-685.54 656.88,-657.54 656.88,-657.54 656.88,-651.54 662.88,-645.54 668.88,-645.54"/>
<text text-anchor="middle" x="749.38" y="-684.99" font-family="Helvetica,sans-Serif" font-weight="bold" font-size="9.00">modules</text>
</g>
<!-- node_modules/@vueuse/core -->
<g id="node1" class="node">
<title>node_modules/@vueuse/core</title>
<g id="a_node1"><a xlink:href="https://www.npmjs.com/package/@vueuse/core" xlink:title="core">
<polygon fill="#c40b0a" fill-opacity="0.101961" stroke="black" points="946.62,-367.41 894.6,-367.41 892.62,-365.44 892.62,-349.66 944.65,-349.66 946.62,-351.63 946.62,-367.41"/>
<polyline fill="none" stroke="black" points="944.65,-365.44 892.62,-365.44"/>
<polyline fill="none" stroke="black" points="944.65,-365.44 944.65,-349.66"/>
<polyline fill="none" stroke="black" points="944.65,-365.44 946.62,-367.41"/>
<text text-anchor="start" x="910.62" y="-354.86" font-family="Helvetica,sans-Serif" font-size="9.00" fill="#c40b0a">core</text>
</a>
</g>
</g>
<!-- node_modules/cross&#45;fetch -->
<g id="node2" class="node">
<title>node_modules/cross&#45;fetch</title>
<g id="a_node2"><a xlink:href="https://www.npmjs.com/package/cross-fetch" xlink:title="cross&#45;fetch">
<polygon fill="#c40b0a" fill-opacity="0.101961" stroke="black" points="949.75,-449.41 891.47,-449.41 889.5,-447.44 889.5,-431.66 947.78,-431.66 949.75,-433.63 949.75,-449.41"/>
<polyline fill="none" stroke="black" points="947.78,-447.44 889.5,-447.44"/>
<polyline fill="none" stroke="black" points="947.78,-447.44 947.78,-431.66"/>
<polyline fill="none" stroke="black" points="947.78,-447.44 949.75,-449.41"/>
<text text-anchor="start" x="897.5" y="-436.86" font-family="Helvetica,sans-Serif" font-size="9.00" fill="#c40b0a">cross&#45;fetch</text>
</a>
</g>
</g>
<!-- node_modules/dropbox -->
<g id="node3" class="node">
<title>node_modules/dropbox</title>
<g id="a_node3"><a xlink:href="https://www.npmjs.com/package/dropbox" xlink:title="dropbox">
<polygon fill="#c40b0a" fill-opacity="0.101961" stroke="black" points="946.62,-419.41 894.6,-419.41 892.62,-417.44 892.62,-401.66 944.65,-401.66 946.62,-403.63 946.62,-419.41"/>
<polyline fill="none" stroke="black" points="944.65,-417.44 892.62,-417.44"/>
<polyline fill="none" stroke="black" points="944.65,-417.44 944.65,-401.66"/>
<polyline fill="none" stroke="black" points="944.65,-417.44 946.62,-419.41"/>
<text text-anchor="start" x="902.75" y="-406.86" font-family="Helvetica,sans-Serif" font-size="9.00" fill="#c40b0a">dropbox</text>
</a>
</g>
</g>
<!-- node_modules/vue -->
<g id="node4" class="node">
<title>node_modules/vue</title>
<g id="a_node4"><a xlink:href="https://www.npmjs.com/package/vue" xlink:title="vue">
<polygon fill="#c40b0a" fill-opacity="0.101961" stroke="black" points="946.62,-333.41 894.6,-333.41 892.62,-331.44 892.62,-315.66 944.65,-315.66 946.62,-317.63 946.62,-333.41"/>
<polyline fill="none" stroke="black" points="944.65,-331.44 892.62,-331.44"/>
<polyline fill="none" stroke="black" points="944.65,-331.44 944.65,-315.66"/>
<polyline fill="none" stroke="black" points="944.65,-331.44 946.62,-333.41"/>
<text text-anchor="start" x="912.12" y="-320.86" font-family="Helvetica,sans-Serif" font-size="9.00" fill="#c40b0a">vue</text>
</a>
</g>
</g>
<!-- node_modules/vue&#45;showdown -->
<g id="node5" class="node">
<title>node_modules/vue&#45;showdown</title>
<g id="a_node5"><a xlink:href="https://www.npmjs.com/package/vue-showdown" xlink:title="vue&#45;showdown">
<polygon fill="#c40b0a" fill-opacity="0.101961" stroke="black" points="958.75,-273.41 882.47,-273.41 880.5,-271.44 880.5,-255.66 956.78,-255.66 958.75,-257.63 958.75,-273.41"/>
<polyline fill="none" stroke="black" points="956.78,-271.44 880.5,-271.44"/>
<polyline fill="none" stroke="black" points="956.78,-271.44 956.78,-255.66"/>
<polyline fill="none" stroke="black" points="956.78,-271.44 958.75,-273.41"/>
<text text-anchor="start" x="888.5" y="-260.86" font-family="Helvetica,sans-Serif" font-size="9.00" fill="#c40b0a">vue&#45;showdown</text>
</a>
</g>
</g>
<!-- node_modules/vue&#45;spinner -->
<g id="node6" class="node">
<title>node_modules/vue&#45;spinner</title>
<g id="a_node6"><a xlink:href="https://www.npmjs.com/package/vue-spinner" xlink:title="vue&#45;spinner">
<polygon fill="#c40b0a" fill-opacity="0.101961" stroke="black" points="952,-303.41 889.22,-303.41 887.25,-301.44 887.25,-285.66 950.03,-285.66 952,-287.63 952,-303.41"/>
<polyline fill="none" stroke="black" points="950.03,-301.44 887.25,-301.44"/>
<polyline fill="none" stroke="black" points="950.03,-301.44 950.03,-285.66"/>
<polyline fill="none" stroke="black" points="950.03,-301.44 952,-303.41"/>
<text text-anchor="start" x="895.25" y="-290.86" font-family="Helvetica,sans-Serif" font-size="9.00" fill="#c40b0a">vue&#45;spinner</text>
</a>
</g>
</g>
<!-- src/App.vue -->
<g id="node7" class="node">
<title>src/App.vue</title>
<g id="a_node7"><a xlink:href="src/App.vue" xlink:title="App.vue">
<path fill="#41f083" stroke="black" d="M175.33,-686.41C175.33,-686.41 133.17,-686.41 133.17,-686.41 130.21,-686.41 127.25,-683.45 127.25,-680.49 127.25,-680.49 127.25,-674.58 127.25,-674.58 127.25,-671.62 130.21,-668.66 133.17,-668.66 133.17,-668.66 175.33,-668.66 175.33,-668.66 178.29,-668.66 181.25,-671.62 181.25,-674.58 181.25,-674.58 181.25,-680.49 181.25,-680.49 181.25,-683.45 178.29,-686.41 175.33,-686.41"/>
<text text-anchor="start" x="137.38" y="-673.86" font-family="Helvetica,sans-Serif" font-size="9.00">App.vue</text>
</a>
</g>
</g>
<!-- src/App.vue&#45;&gt;node_modules/vue -->
<g id="edge7" class="edge">
<title>src/App.vue&#45;&gt;node_modules/vue</title>
<path fill="none" stroke="#000000" stroke-opacity="0.200000" d="M158.66,-668.28C166.34,-647.27 185.46,-594.37 199.75,-549.54 262.27,-353.39 158.39,-116.54 364.25,-116.54 364.25,-116.54 364.25,-116.54 587.38,-116.54 649.5,-116.54 822.39,-107.85 864.5,-153.54 876.26,-166.3 861.94,-295.76 872.5,-309.54 875.96,-314.05 880.81,-317.23 886.07,-319.46"/>
<polygon fill="#000000" fill-opacity="0.200000" stroke="#000000" stroke-opacity="0.200000" points="885.02,-321.67 891.37,-321.67 886.4,-317.7 885.02,-321.67"/>
</g>
<!-- src/components/Flog.vue -->
<g id="node8" class="node">
<title>src/components/Flog.vue</title>
<g id="a_node8"><a xlink:href="src/components/Flog.vue" xlink:title="Flog.vue">
<path fill="#41f083" stroke="black" d="M280.83,-701.41C280.83,-701.41 238.67,-701.41 238.67,-701.41 235.71,-701.41 232.75,-698.45 232.75,-695.49 232.75,-695.49 232.75,-689.58 232.75,-689.58 232.75,-686.62 235.71,-683.66 238.67,-683.66 238.67,-683.66 280.83,-683.66 280.83,-683.66 283.79,-683.66 286.75,-686.62 286.75,-689.58 286.75,-689.58 286.75,-695.49 286.75,-695.49 286.75,-698.45 283.79,-701.41 280.83,-701.41"/>
<text text-anchor="start" x="242.12" y="-688.86" font-family="Helvetica,sans-Serif" font-size="9.00">Flog.vue</text>
</a>
</g>
</g>
<!-- src/App.vue&#45;&gt;src/components/Flog.vue -->
<g id="edge1" class="edge">
<title>src/App.vue&#45;&gt;src/components/Flog.vue</title>
<path fill="none" stroke="#000000" stroke-width="2" stroke-opacity="0.200000" d="M181.64,-681.36C194.41,-683.21 209.92,-685.46 223.68,-687.45"/>
<polygon fill="#000000" fill-opacity="0.200000" stroke="#000000" stroke-width="2" stroke-opacity="0.200000" points="224.17,-689.94 230.41,-688.72 224.78,-685.78 224.17,-689.94"/>
</g>
<!-- src/components/FlogList.vue -->
<g id="node9" class="node">
<title>src/components/FlogList.vue</title>
<g id="a_node9"><a xlink:href="src/components/FlogList.vue" xlink:title="FlogList.vue">
<path fill="#41f083" stroke="black" d="M286.58,-671.41C286.58,-671.41 232.92,-671.41 232.92,-671.41 229.96,-671.41 227,-668.45 227,-665.49 227,-665.49 227,-659.58 227,-659.58 227,-656.62 229.96,-653.66 232.92,-653.66 232.92,-653.66 286.58,-653.66 286.58,-653.66 289.54,-653.66 292.5,-656.62 292.5,-659.58 292.5,-659.58 292.5,-665.49 292.5,-665.49 292.5,-668.45 289.54,-671.41 286.58,-671.41"/>
<text text-anchor="start" x="235" y="-658.86" font-family="Helvetica,sans-Serif" font-size="9.00">FlogList.vue</text>
</a>
</g>
</g>
<!-- src/App.vue&#45;&gt;src/components/FlogList.vue -->
<g id="edge2" class="edge">
<title>src/App.vue&#45;&gt;src/components/FlogList.vue</title>
<path fill="none" stroke="#000000" stroke-width="2" stroke-opacity="0.200000" d="M181.64,-673.71C192.72,-672.11 205.87,-670.2 218.14,-668.42"/>
<polygon fill="#000000" fill-opacity="0.200000" stroke="#000000" stroke-width="2" stroke-opacity="0.200000" points="219.24,-670.09 224.88,-667.16 218.64,-665.94 219.24,-670.09"/>
</g>
<!-- src/components/Head.vue -->
<g id="node10" class="node">
<title>src/components/Head.vue</title>
<g id="a_node10"><a xlink:href="src/components/Head.vue" xlink:title="Head.vue">
<path fill="#41f083" stroke="black" d="M281.71,-821.41C281.71,-821.41 237.79,-821.41 237.79,-821.41 234.83,-821.41 231.88,-818.45 231.88,-815.49 231.88,-815.49 231.88,-809.58 231.88,-809.58 231.88,-806.62 234.83,-803.66 237.79,-803.66 237.79,-803.66 281.71,-803.66 281.71,-803.66 284.67,-803.66 287.62,-806.62 287.62,-809.58 287.62,-809.58 287.62,-815.49 287.62,-815.49 287.62,-818.45 284.67,-821.41 281.71,-821.41"/>
<text text-anchor="start" x="239.88" y="-808.86" font-family="Helvetica,sans-Serif" font-size="9.00">Head.vue</text>
</a>
</g>
</g>
<!-- src/App.vue&#45;&gt;src/components/Head.vue -->
<g id="edge3" class="edge">
<title>src/App.vue&#45;&gt;src/components/Head.vue</title>
<path fill="none" stroke="#000000" stroke-width="2" stroke-opacity="0.200000" d="M159.44,-686.83C167.39,-703.88 185.81,-740.84 207.75,-767.54 217.04,-778.84 229.29,-789.75 239.45,-797.99"/>
<polygon fill="#000000" fill-opacity="0.200000" stroke="#000000" stroke-width="2" stroke-opacity="0.200000" points="238.4,-800.42 244.41,-802.49 241.01,-797.12 238.4,-800.42"/>
</g>
<!-- src/components/Login.vue -->
<g id="node11" class="node">
<title>src/components/Login.vue</title>
<g id="a_node11"><a xlink:href="src/components/Login.vue" xlink:title="Login.vue">
<path fill="#41f083" stroke="black" d="M282.08,-761.41C282.08,-761.41 237.42,-761.41 237.42,-761.41 234.46,-761.41 231.5,-758.45 231.5,-755.49 231.5,-755.49 231.5,-749.58 231.5,-749.58 231.5,-746.62 234.46,-743.66 237.42,-743.66 237.42,-743.66 282.08,-743.66 282.08,-743.66 285.04,-743.66 288,-746.62 288,-749.58 288,-749.58 288,-755.49 288,-755.49 288,-758.45 285.04,-761.41 282.08,-761.41"/>
<text text-anchor="start" x="239.5" y="-748.86" font-family="Helvetica,sans-Serif" font-size="9.00">Login.vue</text>
</a>
</g>
</g>
<!-- src/App.vue&#45;&gt;src/components/Login.vue -->
<g id="edge4" class="edge">
<title>src/App.vue&#45;&gt;src/components/Login.vue</title>
<path fill="none" stroke="#000000" stroke-width="2" stroke-opacity="0.200000" d="M167.94,-686.73C185.63,-699.55 217.89,-722.92 238.81,-738.08"/>
<polygon fill="#000000" fill-opacity="0.200000" stroke="#000000" stroke-width="2" stroke-opacity="0.200000" points="237.86,-740.44 243.96,-742.26 240.33,-737.04 237.86,-740.44"/>
</g>
<!-- src/composables/useFlogSource.ts -->
<g id="node12" class="node">
<title>src/composables/useFlogSource.ts</title>
<g id="a_node12"><a xlink:href="src/composables/useFlogSource.ts" xlink:title="useFlogSource.ts">
<path fill="#ddfeff" stroke="black" d="M624.08,-611.41C624.08,-611.41 548.67,-611.41 548.67,-611.41 545.71,-611.41 542.75,-608.45 542.75,-605.49 542.75,-605.49 542.75,-599.58 542.75,-599.58 542.75,-596.62 545.71,-593.66 548.67,-593.66 548.67,-593.66 624.08,-593.66 624.08,-593.66 627.04,-593.66 630,-596.62 630,-599.58 630,-599.58 630,-605.49 630,-605.49 630,-608.45 627.04,-611.41 624.08,-611.41"/>
<text text-anchor="start" x="550.75" y="-598.86" font-family="Helvetica,sans-Serif" font-size="9.00">useFlogSource.ts</text>
</a>
</g>
</g>
<!-- src/App.vue&#45;&gt;src/composables/useFlogSource.ts -->
<g id="edge5" class="edge">
<title>src/App.vue&#45;&gt;src/composables/useFlogSource.ts</title>
<path fill="none" stroke="#000000" stroke-width="2" stroke-opacity="0.200000" d="M155.01,-686.86C154.7,-718.07 157.74,-820.33 207.75,-880.54 299.96,-991.56 422.98,-1019.64 529.75,-922.54 574.8,-881.56 583.43,-681.96 585.02,-620.55"/>
<polygon fill="#000000" fill-opacity="0.200000" stroke="#000000" stroke-width="2" stroke-opacity="0.200000" points="587.19,-620.68 585.23,-614.63 582.99,-620.58 587.19,-620.68"/>
</g>
<!-- src/composables/useOpenFlogs.ts -->
<g id="node13" class="node">
<title>src/composables/useOpenFlogs.ts</title>
<g id="a_node13"><a xlink:href="src/composables/useOpenFlogs.ts" xlink:title="useOpenFlogs.ts">
<path fill="#ddfeff" stroke="black" d="M516.33,-521.41C516.33,-521.41 443.17,-521.41 443.17,-521.41 440.21,-521.41 437.25,-518.45 437.25,-515.49 437.25,-515.49 437.25,-509.58 437.25,-509.58 437.25,-506.62 440.21,-503.66 443.17,-503.66 443.17,-503.66 516.33,-503.66 516.33,-503.66 519.29,-503.66 522.25,-506.62 522.25,-509.58 522.25,-509.58 522.25,-515.49 522.25,-515.49 522.25,-518.45 519.29,-521.41 516.33,-521.41"/>
<text text-anchor="start" x="445.25" y="-508.86" font-family="Helvetica,sans-Serif" font-size="9.00">useOpenFlogs.ts</text>
</a>
</g>
</g>
<!-- src/App.vue&#45;&gt;src/composables/useOpenFlogs.ts -->
<g id="edge6" class="edge">
<title>src/App.vue&#45;&gt;src/composables/useOpenFlogs.ts</title>
<path fill="none" stroke="#000000" stroke-width="2" stroke-opacity="0.200000" d="M164.97,-668.27C188.87,-645.99 253.17,-588.93 316.75,-557.54 360.27,-536.05 374.95,-540.38 421.75,-527.54 425.79,-526.43 430,-525.29 434.22,-524.16"/>
<polygon fill="#000000" fill-opacity="0.200000" stroke="#000000" stroke-width="2" stroke-opacity="0.200000" points="435.58,-525.44 440.84,-521.86 434.5,-521.38 435.58,-525.44"/>
</g>
<!-- src/components/Flog.vue&#45;&gt;node_modules/vue -->
<g id="edge27" class="edge">
<title>src/components/Flog.vue&#45;&gt;node_modules/vue</title>
<path fill="none" stroke="#000000" stroke-opacity="0.200000" d="M287.14,-688.74C293.57,-686.52 299.74,-683.02 303.75,-677.54 334.39,-635.64 281.36,-248.51 316.75,-210.54 366.07,-157.6 406.4,-194.54 478.75,-194.54 478.75,-194.54 478.75,-194.54 692.88,-194.54 769.48,-194.54 810.66,-156.03 864.5,-210.54 880.01,-226.24 858.82,-292.21 872.5,-309.54 876.03,-314 880.9,-317.15 886.17,-319.38"/>
<polygon fill="#000000" fill-opacity="0.200000" stroke="#000000" stroke-opacity="0.200000" points="885.13,-321.58 891.48,-321.58 886.51,-317.62 885.13,-321.58"/>
</g>
<!-- src/components/Flog.vue&#45;&gt;node_modules/vue&#45;spinner -->
<g id="edge28" class="edge">
<title>src/components/Flog.vue&#45;&gt;node_modules/vue&#45;spinner</title>
<path fill="none" stroke="#000000" stroke-opacity="0.200000" d="M287.15,-688.74C293.57,-686.52 299.74,-683.03 303.75,-677.54 320.07,-655.18 296.97,-198.89 316.75,-179.54 338.5,-158.25 842.16,-156.88 864.5,-177.54 881.19,-192.97 858.43,-261.68 872.5,-279.54 874.85,-282.51 877.79,-284.91 881.05,-286.83"/>
<polygon fill="#000000" fill-opacity="0.200000" stroke="#000000" stroke-opacity="0.200000" points="879.89,-289.08 886.21,-289.81 881.72,-285.3 879.89,-289.08"/>
</g>
<!-- src/components/Flog.vue&#45;&gt;src/composables/useFlogSource.ts -->
<g id="edge24" class="edge">
<title>src/components/Flog.vue&#45;&gt;src/composables/useFlogSource.ts</title>
<path fill="none" stroke="#000000" stroke-width="2" stroke-opacity="0.200000" d="M273.27,-701.72C283.37,-709.9 296.96,-722.82 303.75,-737.54 315.72,-763.5 295.54,-846.37 316.75,-865.54 348.74,-894.44 372.36,-877.61 413.75,-865.54 414.21,-865.4 529.46,-791.92 529.75,-791.54 569.76,-738.3 581.09,-656.72 584.22,-620.7"/>
<polygon fill="#000000" fill-opacity="0.200000" stroke="#000000" stroke-width="2" stroke-opacity="0.200000" points="586.53,-620.96 584.9,-614.81 582.35,-620.63 586.53,-620.96"/>
</g>
<!-- src/components/Flog.vue&#45;&gt;src/composables/useOpenFlogs.ts -->
<g id="edge25" class="edge">
<title>src/components/Flog.vue&#45;&gt;src/composables/useOpenFlogs.ts</title>
<path fill="none" stroke="#000000" stroke-width="2" stroke-opacity="0.200000" d="M287.07,-688.17C293.33,-685.94 299.44,-682.59 303.75,-677.54 325.12,-652.45 294.23,-628.6 316.75,-604.54 347.1,-572.11 383.84,-613.36 413.75,-580.54 429.8,-562.93 405.83,-545.26 421.75,-527.54 423.93,-525.11 426.45,-523.05 429.19,-521.32"/>
<polygon fill="#000000" fill-opacity="0.200000" stroke="#000000" stroke-width="2" stroke-opacity="0.200000" points="430.49,-523 434.89,-518.42 428.59,-519.25 430.49,-523"/>
</g>
<!-- src/components/AddEntry.vue -->
<g id="node16" class="node">
<title>src/components/AddEntry.vue</title>
<g id="a_node16"><a xlink:href="src/components/AddEntry.vue" xlink:title="AddEntry.vue">
<path fill="#41f083" stroke="black" d="M394.71,-731.41C394.71,-731.41 335.79,-731.41 335.79,-731.41 332.83,-731.41 329.88,-728.45 329.88,-725.49 329.88,-725.49 329.88,-719.58 329.88,-719.58 329.88,-716.62 332.83,-713.66 335.79,-713.66 335.79,-713.66 394.71,-713.66 394.71,-713.66 397.67,-713.66 400.62,-716.62 400.62,-719.58 400.62,-719.58 400.62,-725.49 400.62,-725.49 400.62,-728.45 397.67,-731.41 394.71,-731.41"/>
<text text-anchor="start" x="337.88" y="-718.86" font-family="Helvetica,sans-Serif" font-size="9.00">AddEntry.vue</text>
</a>
</g>
</g>
<!-- src/components/Flog.vue&#45;&gt;src/components/AddEntry.vue -->
<g id="edge20" class="edge">
<title>src/components/Flog.vue&#45;&gt;src/components/AddEntry.vue</title>
<path fill="none" stroke="#000000" stroke-width="2" stroke-opacity="0.200000" d="M287.14,-700.18C298.23,-703.4 311.39,-707.21 323.67,-710.77"/>
<polygon fill="#000000" fill-opacity="0.200000" stroke="#000000" stroke-width="2" stroke-opacity="0.200000" points="323.65,-713.53 330,-713.19 324.82,-709.5 323.65,-713.53"/>
</g>
<!-- src/modules/EntryData.ts -->
<g id="node17" class="node">
<title>src/modules/EntryData.ts</title>
<g id="a_node17"><a xlink:href="src/modules/EntryData.ts" xlink:title="EntryData.ts">
<path fill="#ddfeff" stroke="black" d="M827.96,-671.41C827.96,-671.41 774.29,-671.41 774.29,-671.41 771.33,-671.41 768.38,-668.45 768.38,-665.49 768.38,-665.49 768.38,-659.58 768.38,-659.58 768.38,-656.62 771.33,-653.66 774.29,-653.66 774.29,-653.66 827.96,-653.66 827.96,-653.66 830.92,-653.66 833.88,-656.62 833.88,-659.58 833.88,-659.58 833.88,-665.49 833.88,-665.49 833.88,-668.45 830.92,-671.41 827.96,-671.41"/>
<text text-anchor="start" x="776.38" y="-658.86" font-family="Helvetica,sans-Serif" font-size="9.00">EntryData.ts</text>
</a>
</g>
</g>
<!-- src/components/Flog.vue&#45;&gt;src/modules/EntryData.ts -->
<g id="edge26" class="edge">
<title>src/components/Flog.vue&#45;&gt;src/modules/EntryData.ts</title>
<path fill="none" stroke="#000000" stroke-width="2" stroke-opacity="0.200000" d="M273.3,-701.71C283.42,-709.87 297.02,-722.79 303.75,-737.54 316.63,-765.76 296.78,-852.8 316.75,-876.54 364.78,-933.63 404.14,-920.54 478.75,-920.54 478.75,-920.54 478.75,-920.54 587.38,-920.54 712.21,-920.54 777.44,-738.51 795.11,-680.25"/>
<polygon fill="#000000" fill-opacity="0.200000" stroke="#000000" stroke-width="2" stroke-opacity="0.200000" points="797.95,-680.07 797.63,-673.72 793.92,-678.88 797.95,-680.07"/>
</g>
<!-- src/composables/useFlog.ts -->
<g id="node20" class="node">
<title>src/composables/useFlog.ts</title>
<g id="a_node20"><a xlink:href="src/composables/useFlog.ts" xlink:title="useFlog.ts">
<path fill="#ddfeff" stroke="black" d="M502.83,-611.41C502.83,-611.41 456.67,-611.41 456.67,-611.41 453.71,-611.41 450.75,-608.45 450.75,-605.49 450.75,-605.49 450.75,-599.58 450.75,-599.58 450.75,-596.62 453.71,-593.66 456.67,-593.66 456.67,-593.66 502.83,-593.66 502.83,-593.66 505.79,-593.66 508.75,-596.62 508.75,-599.58 508.75,-599.58 508.75,-605.49 508.75,-605.49 508.75,-608.45 505.79,-611.41 502.83,-611.41"/>
<text text-anchor="start" x="458.75" y="-598.86" font-family="Helvetica,sans-Serif" font-size="9.00">useFlog.ts</text>
</a>
</g>
</g>
<!-- src/components/Flog.vue&#45;&gt;src/composables/useFlog.ts -->
<g id="edge23" class="edge">
<title>src/components/Flog.vue&#45;&gt;src/composables/useFlog.ts</title>
<path fill="none" stroke="#000000" stroke-width="2" stroke-opacity="0.200000" d="M287.21,-687.12C293.18,-684.92 299.12,-681.84 303.75,-677.54 314.39,-667.64 305.79,-657.08 316.75,-647.54 351.76,-617.05 405.78,-607.08 441.69,-603.89"/>
<polygon fill="#000000" fill-opacity="0.200000" stroke="#000000" stroke-width="2" stroke-opacity="0.200000" points="441.59,-605.78 447.41,-603.22 441.26,-601.59 441.59,-605.78"/>
</g>
<!-- src/components/EntryList.vue -->
<g id="node21" class="node">
<title>src/components/EntryList.vue</title>
<g id="a_node21"><a xlink:href="src/components/EntryList.vue" xlink:title="EntryList.vue">
<path fill="#41f083" stroke="black" d="M393.58,-761.41C393.58,-761.41 336.92,-761.41 336.92,-761.41 333.96,-761.41 331,-758.45 331,-755.49 331,-755.49 331,-749.58 331,-749.58 331,-746.62 333.96,-743.66 336.92,-743.66 336.92,-743.66 393.58,-743.66 393.58,-743.66 396.54,-743.66 399.5,-746.62 399.5,-749.58 399.5,-749.58 399.5,-755.49 399.5,-755.49 399.5,-758.45 396.54,-761.41 393.58,-761.41"/>
<text text-anchor="start" x="339" y="-748.86" font-family="Helvetica,sans-Serif" font-size="9.00">EntryList.vue</text>
</a>
</g>
</g>
<!-- src/components/Flog.vue&#45;&gt;src/components/EntryList.vue -->
<g id="edge21" class="edge">
<title>src/components/Flog.vue&#45;&gt;src/components/EntryList.vue</title>
<path fill="none" stroke="#000000" stroke-width="2" stroke-opacity="0.200000" d="M269.88,-701.69C280.37,-711.75 298.5,-727.77 316.75,-737.54 318.65,-738.55 320.63,-739.51 322.66,-740.42"/>
<polygon fill="#000000" fill-opacity="0.200000" stroke="#000000" stroke-width="2" stroke-opacity="0.200000" points="322.29,-742.35 328.64,-742.65 323.87,-738.45 322.29,-742.35"/>
</g>
<!-- src/components/Pretext.vue -->
<g id="node22" class="node">
<title>src/components/Pretext.vue</title>
<g id="a_node22"><a xlink:href="src/components/Pretext.vue" xlink:title="Pretext.vue">
<path fill="#41f083" stroke="black" d="M390.21,-701.41C390.21,-701.41 340.29,-701.41 340.29,-701.41 337.33,-701.41 334.38,-698.45 334.38,-695.49 334.38,-695.49 334.38,-689.58 334.38,-689.58 334.38,-686.62 337.33,-683.66 340.29,-683.66 340.29,-683.66 390.21,-683.66 390.21,-683.66 393.17,-683.66 396.12,-686.62 396.12,-689.58 396.12,-689.58 396.12,-695.49 396.12,-695.49 396.12,-698.45 393.17,-701.41 390.21,-701.41"/>
<text text-anchor="start" x="342.38" y="-688.86" font-family="Helvetica,sans-Serif" font-size="9.00">Pretext.vue</text>
</a>
</g>
</g>
<!-- src/components/Flog.vue&#45;&gt;src/components/Pretext.vue -->
<g id="edge22" class="edge">
<title>src/components/Flog.vue&#45;&gt;src/components/Pretext.vue</title>
<path fill="none" stroke="#000000" stroke-width="2" stroke-opacity="0.200000" d="M287.14,-692.54C298.61,-692.54 312.28,-692.54 324.91,-692.54"/>
<polygon fill="#000000" fill-opacity="0.200000" stroke="#000000" stroke-width="2" stroke-opacity="0.200000" points="324.88,-694.64 330.88,-692.54 324.88,-690.44 324.88,-694.64"/>
</g>
<!-- src/components/FlogList.vue&#45;&gt;node_modules/vue -->
<g id="edge32" class="edge">
<title>src/components/FlogList.vue&#45;&gt;node_modules/vue</title>
<path fill="none" stroke="#000000" stroke-opacity="0.200000" d="M261.05,-653.2C263.3,-587.22 278.29,-192.96 316.75,-158.54 329.88,-146.78 814.12,-134.47 864.5,-184.54 884.24,-204.16 855.43,-287.55 872.5,-309.54 875.99,-314.03 880.85,-317.2 886.11,-319.42"/>
<polygon fill="#000000" fill-opacity="0.200000" stroke="#000000" stroke-opacity="0.200000" points="885.06,-321.63 891.42,-321.63 886.45,-317.67 885.06,-321.63"/>
</g>
<!-- src/components/FlogList.vue&#45;&gt;src/composables/useFlogSource.ts -->
<g id="edge30" class="edge">
<title>src/components/FlogList.vue&#45;&gt;src/composables/useFlogSource.ts</title>
<path fill="none" stroke="#000000" stroke-width="2" stroke-opacity="0.200000" d="M292.7,-668.83C296.97,-670.94 300.87,-673.77 303.75,-677.54 328.14,-709.37 287.39,-830.22 316.75,-857.54 332.53,-872.22 394.54,-867.32 413.75,-857.54 419.14,-854.79 417.92,-851.21 421.75,-846.54 466.64,-791.83 491.02,-788.76 529.75,-729.54 553.45,-693.29 571.31,-645.27 579.83,-619.92"/>
<polygon fill="#000000" fill-opacity="0.200000" stroke="#000000" stroke-width="2" stroke-opacity="0.200000" points="582.67,-620.03 582.55,-613.67 578.68,-618.72 582.67,-620.03"/>
</g>
<!-- src/components/FlogList.vue&#45;&gt;src/composables/useOpenFlogs.ts -->
<g id="edge31" class="edge">
<title>src/components/FlogList.vue&#45;&gt;src/composables/useOpenFlogs.ts</title>
<path fill="none" stroke="#000000" stroke-width="2" stroke-opacity="0.200000" d="M292.58,-657.16C296.76,-655.31 300.66,-652.84 303.75,-649.54 321.22,-630.89 299.61,-612.48 316.75,-593.54 347.3,-559.77 383.03,-594.15 413.75,-560.54 423.93,-549.39 411.18,-538.31 421.75,-527.54 424,-525.25 426.55,-523.29 429.29,-521.63"/>
<polygon fill="#000000" fill-opacity="0.200000" stroke="#000000" stroke-width="2" stroke-opacity="0.200000" points="430.49,-523.39 434.95,-518.86 428.64,-519.62 430.49,-523.39"/>
</g>
<!-- src/components/AddFlog.vue -->
<g id="node18" class="node">
<title>src/components/AddFlog.vue</title>
<g id="a_node18"><a xlink:href="src/components/AddFlog.vue" xlink:title="AddFlog.vue">
<path fill="#41f083" stroke="black" d="M393.21,-671.41C393.21,-671.41 337.29,-671.41 337.29,-671.41 334.33,-671.41 331.38,-668.45 331.38,-665.49 331.38,-665.49 331.38,-659.58 331.38,-659.58 331.38,-656.62 334.33,-653.66 337.29,-653.66 337.29,-653.66 393.21,-653.66 393.21,-653.66 396.17,-653.66 399.12,-656.62 399.12,-659.58 399.12,-659.58 399.12,-665.49 399.12,-665.49 399.12,-668.45 396.17,-671.41 393.21,-671.41"/>
<text text-anchor="start" x="339.38" y="-658.86" font-family="Helvetica,sans-Serif" font-size="9.00">AddFlog.vue</text>
</a>
</g>
</g>
<!-- src/components/FlogList.vue&#45;&gt;src/components/AddFlog.vue -->
<g id="edge29" class="edge">
<title>src/components/FlogList.vue&#45;&gt;src/components/AddFlog.vue</title>
<path fill="none" stroke="#000000" stroke-width="2" stroke-opacity="0.200000" d="M292.93,-662.54C302.2,-662.54 312.45,-662.54 322.22,-662.54"/>
<polygon fill="#000000" fill-opacity="0.200000" stroke="#000000" stroke-width="2" stroke-opacity="0.200000" points="322.02,-664.64 328.02,-662.54 322.02,-660.44 322.02,-664.64"/>
</g>
<!-- src/components/Head.vue&#45;&gt;node_modules/vue -->
<g id="edge36" class="edge">
<title>src/components/Head.vue&#45;&gt;node_modules/vue</title>
<path fill="none" stroke="#000000" stroke-opacity="0.200000" d="M273.25,-803.34C283.33,-795.16 296.92,-782.23 303.75,-767.54 326.37,-718.89 306.86,-700.26 316.75,-647.54 352.19,-458.62 286.53,-246.54 478.75,-246.54 478.75,-246.54 478.75,-246.54 692.88,-246.54 769.37,-246.54 808.21,-207.74 864.5,-259.54 881.06,-274.77 857.87,-292.43 872.5,-309.54 876.04,-313.68 880.74,-316.68 885.78,-318.86"/>
<polygon fill="#000000" fill-opacity="0.200000" stroke="#000000" stroke-opacity="0.200000" points="884.93,-321.15 891.29,-321.2 886.35,-317.2 884.93,-321.15"/>
</g>
<!-- src/components/Head.vue&#45;&gt;src/composables/useFlogSource.ts -->
<g id="edge34" class="edge">
<title>src/components/Head.vue&#45;&gt;src/composables/useFlogSource.ts</title>
<path fill="none" stroke="#000000" stroke-width="2" stroke-opacity="0.200000" d="M287.83,-817.34C293.79,-819.56 299.56,-822.8 303.75,-827.54 321.83,-847.97 295.51,-870.41 316.75,-887.54 391.26,-947.63 463.87,-924.99 529.75,-855.54 562.32,-821.2 578.93,-672.36 583.81,-620.46"/>
<polygon fill="#000000" fill-opacity="0.200000" stroke="#000000" stroke-width="2" stroke-opacity="0.200000" points="586.16,-620.86 584.61,-614.69 581.97,-620.48 586.16,-620.86"/>
</g>
<!-- src/components/ThemeSwitcher.vue -->
<g id="node23" class="node">
<title>src/components/ThemeSwitcher.vue</title>
<g id="a_node23"><a xlink:href="src/components/ThemeSwitcher.vue" xlink:title="ThemeSwitcher.vue">
<path fill="#41f083" stroke="black" d="M407.83,-851.41C407.83,-851.41 322.67,-851.41 322.67,-851.41 319.71,-851.41 316.75,-848.45 316.75,-845.49 316.75,-845.49 316.75,-839.58 316.75,-839.58 316.75,-836.62 319.71,-833.66 322.67,-833.66 322.67,-833.66 407.83,-833.66 407.83,-833.66 410.79,-833.66 413.75,-836.62 413.75,-839.58 413.75,-839.58 413.75,-845.49 413.75,-845.49 413.75,-848.45 410.79,-851.41 407.83,-851.41"/>
<text text-anchor="start" x="324.75" y="-838.86" font-family="Helvetica,sans-Serif" font-size="9.00">ThemeSwitcher.vue</text>
</a>
</g>
</g>
<!-- src/components/Head.vue&#45;&gt;src/components/ThemeSwitcher.vue -->
<g id="edge33" class="edge">
<title>src/components/Head.vue&#45;&gt;src/components/ThemeSwitcher.vue</title>
<path fill="none" stroke="#000000" stroke-width="2" stroke-opacity="0.200000" d="M287.94,-820.42C298.84,-823.57 311.62,-827.28 323.57,-830.74"/>
<polygon fill="#000000" fill-opacity="0.200000" stroke="#000000" stroke-width="2" stroke-opacity="0.200000" points="323.74,-833.56 330.09,-833.21 324.91,-829.53 323.74,-833.56"/>
</g>
<!-- src/modules/Flog.ts -->
<g id="node24" class="node">
<title>src/modules/Flog.ts</title>
<g id="a_node24"><a xlink:href="src/modules/Flog.ts" xlink:title="Flog.ts">
<path fill="#ddfeff" stroke="black" d="M712.96,-671.41C712.96,-671.41 670.79,-671.41 670.79,-671.41 667.83,-671.41 664.88,-668.45 664.88,-665.49 664.88,-665.49 664.88,-659.58 664.88,-659.58 664.88,-656.62 667.83,-653.66 670.79,-653.66 670.79,-653.66 712.96,-653.66 712.96,-653.66 715.92,-653.66 718.88,-656.62 718.88,-659.58 718.88,-659.58 718.88,-665.49 718.88,-665.49 718.88,-668.45 715.92,-671.41 712.96,-671.41"/>
<text text-anchor="start" x="678.38" y="-658.86" font-family="Helvetica,sans-Serif" font-size="9.00">Flog.ts</text>
</a>
</g>
</g>
<!-- src/components/Head.vue&#45;&gt;src/modules/Flog.ts -->
<g id="edge35" class="edge">
<title>src/components/Head.vue&#45;&gt;src/modules/Flog.ts</title>
<path fill="none" stroke="#000000" stroke-width="2" stroke-opacity="0.200000" d="M288.02,-817.18C293.97,-819.4 299.69,-822.69 303.75,-827.54 327.16,-855.49 289,-884.88 316.75,-908.54 389.03,-970.14 448.87,-941.3 529.75,-891.54 614.79,-839.21 667.09,-723.44 684.44,-679.71"/>
<polygon fill="#000000" fill-opacity="0.200000" stroke="#000000" stroke-width="2" stroke-opacity="0.200000" points="686.41,-679.88 686.62,-673.52 682.49,-678.36 686.41,-679.88"/>
</g>
<!-- src/components/Login.vue&#45;&gt;node_modules/vue -->
<g id="edge42" class="edge">
<title>src/components/Login.vue&#45;&gt;node_modules/vue</title>
<path fill="none" stroke="#000000" stroke-opacity="0.200000" d="M273.55,-743.47C283.82,-735.37 297.51,-722.5 303.75,-707.54 313.83,-683.38 298.91,-255.69 316.75,-236.54 366.07,-183.6 406.4,-220.54 478.75,-220.54 478.75,-220.54 478.75,-220.54 692.88,-220.54 769.48,-220.54 809.89,-182.81 864.5,-236.54 876.13,-247.98 862.2,-296.87 872.5,-309.54 876.09,-313.95 881,-317.08 886.28,-319.29"/>
<polygon fill="#000000" fill-opacity="0.200000" stroke="#000000" stroke-opacity="0.200000" points="885.23,-321.5 891.59,-321.5 886.62,-317.54 885.23,-321.5"/>
</g>
<!-- src/components/Login.vue&#45;&gt;src/composables/useFlogSource.ts -->
<g id="edge40" class="edge">
<title>src/components/Login.vue&#45;&gt;src/composables/useFlogSource.ts</title>
<path fill="none" stroke="#000000" stroke-width="2" stroke-opacity="0.200000" d="M273.04,-761.83C282.99,-770.08 296.51,-783.03 303.75,-797.54 319.64,-829.37 289.62,-853.51 316.75,-876.54 349.62,-904.44 371.44,-884.78 413.75,-876.54 427.4,-873.88 520.65,-840.05 529.75,-829.54 583.32,-767.6 587,-662.24 586.15,-620.41"/>
<polygon fill="#000000" fill-opacity="0.200000" stroke="#000000" stroke-width="2" stroke-opacity="0.200000" points="588.17,-620.57 585.89,-614.63 583.97,-620.69 588.17,-620.57"/>
</g>
<!-- src/components/Login.vue&#45;&gt;src/composables/useOpenFlogs.ts -->
<g id="edge41" class="edge">
<title>src/components/Login.vue&#45;&gt;src/composables/useOpenFlogs.ts</title>
<path fill="none" stroke="#000000" stroke-width="2" stroke-opacity="0.200000" d="M272.46,-743.47C282.33,-735.19 296.05,-722.04 303.75,-707.54 316.54,-683.44 300.24,-669.26 316.75,-647.54 346.23,-608.76 386.2,-636.71 413.75,-596.54 431.21,-571.07 401.52,-550.86 421.75,-527.54 423.92,-525.03 426.46,-522.92 429.23,-521.14"/>
<polygon fill="#000000" fill-opacity="0.200000" stroke="#000000" stroke-width="2" stroke-opacity="0.200000" points="430.64,-522.77 435.04,-518.18 428.73,-519.02 430.64,-522.77"/>
</g>
<!-- src/components/Intro.vue -->
<g id="node25" class="node">
<title>src/components/Intro.vue</title>
<g id="a_node25"><a xlink:href="src/components/Intro.vue" xlink:title="Intro.vue">
<path fill="#41f083" stroke="black" d="M386.33,-791.41C386.33,-791.41 344.17,-791.41 344.17,-791.41 341.21,-791.41 338.25,-788.45 338.25,-785.49 338.25,-785.49 338.25,-779.58 338.25,-779.58 338.25,-776.62 341.21,-773.66 344.17,-773.66 344.17,-773.66 386.33,-773.66 386.33,-773.66 389.29,-773.66 392.25,-776.62 392.25,-779.58 392.25,-779.58 392.25,-785.49 392.25,-785.49 392.25,-788.45 389.29,-791.41 386.33,-791.41"/>
<text text-anchor="start" x="347.62" y="-778.86" font-family="Helvetica,sans-Serif" font-size="9.00">Intro.vue</text>
</a>
</g>
</g>
<!-- src/components/Login.vue&#45;&gt;src/components/Intro.vue -->
<g id="edge38" class="edge">
<title>src/components/Login.vue&#45;&gt;src/components/Intro.vue</title>
<path fill="none" stroke="#000000" stroke-width="2" stroke-opacity="0.200000" d="M288.49,-760.58C301.06,-764.22 316.07,-768.57 329.39,-772.43"/>
<polygon fill="#000000" fill-opacity="0.200000" stroke="#000000" stroke-width="2" stroke-opacity="0.200000" points="329.52,-775.23 335.86,-774.89 330.69,-771.2 329.52,-775.23"/>
</g>
<!-- src/components/Modal.vue -->
<g id="node26" class="node">
<title>src/components/Modal.vue</title>
<g id="a_node26"><a xlink:href="src/components/Modal.vue" xlink:title="Modal.vue">
<path fill="#41f083" stroke="black" d="M388.71,-821.41C388.71,-821.41 341.79,-821.41 341.79,-821.41 338.83,-821.41 335.88,-818.45 335.88,-815.49 335.88,-815.49 335.88,-809.58 335.88,-809.58 335.88,-806.62 338.83,-803.66 341.79,-803.66 341.79,-803.66 388.71,-803.66 388.71,-803.66 391.67,-803.66 394.62,-806.62 394.62,-809.58 394.62,-809.58 394.62,-815.49 394.62,-815.49 394.62,-818.45 391.67,-821.41 388.71,-821.41"/>
<text text-anchor="start" x="343.88" y="-808.86" font-family="Helvetica,sans-Serif" font-size="9.00">Modal.vue</text>
</a>
</g>
</g>
<!-- src/components/Login.vue&#45;&gt;src/components/Modal.vue -->
<g id="edge39" class="edge">
<title>src/components/Login.vue&#45;&gt;src/components/Modal.vue</title>
<path fill="none" stroke="#000000" stroke-width="2" stroke-opacity="0.200000" d="M269.88,-761.69C280.37,-771.75 298.5,-787.77 316.75,-797.54 320.01,-799.28 323.51,-800.86 327.07,-802.28"/>
<polygon fill="#000000" fill-opacity="0.200000" stroke="#000000" stroke-width="2" stroke-opacity="0.200000" points="327.06,-804.24 333.42,-804.32 328.5,-800.29 327.06,-804.24"/>
</g>
<!-- src/composables/useFlogSource.ts&#45;&gt;node_modules/vue -->
<g id="edge59" class="edge">
<title>src/composables/useFlogSource.ts&#45;&gt;node_modules/vue</title>
<path fill="none" stroke="#000000" stroke-opacity="0.200000" d="M603.31,-593.35C614.37,-587.05 629.47,-578.6 643,-571.54 691.55,-546.2 702.24,-536.13 753.75,-517.54 801.4,-500.33 832.17,-529.54 864.5,-490.54 886.09,-464.49 851.65,-365.17 872.5,-338.54 875.99,-334.08 880.84,-331.01 886.11,-328.89"/>
<polygon fill="#000000" fill-opacity="0.200000" stroke="#000000" stroke-opacity="0.200000" points="886.37,-330.69 891.42,-326.82 885.06,-326.69 886.37,-330.69"/>
</g>
<!-- src/composables/useFlogSource.ts&#45;&gt;src/modules/EntryData.ts -->
<g id="edge57" class="edge">
<title>src/composables/useFlogSource.ts&#45;&gt;src/modules/EntryData.ts</title>
<path fill="none" stroke="#000000" stroke-width="2" stroke-opacity="0.200000" d="M630.38,-603.95C669.15,-605.92 722.76,-610.58 740.75,-621.54 749.49,-626.86 745.97,-633.89 753.75,-640.54 757.66,-643.87 762.16,-646.82 766.78,-649.39"/>
<polygon fill="#000000" fill-opacity="0.200000" stroke="#000000" stroke-width="2" stroke-opacity="0.200000" points="766.31,-651.51 772.61,-652.35 768.2,-647.77 766.31,-651.51"/>
</g>
<!-- src/composables/useFlogSource.ts&#45;&gt;src/modules/Flog.ts -->
<g id="edge58" class="edge">
<title>src/composables/useFlogSource.ts&#45;&gt;src/modules/Flog.ts</title>
<path fill="none" stroke="#000000" stroke-width="2" stroke-opacity="0.200000" d="M599.36,-611.6C610.38,-619.71 627.33,-631.66 643,-640.54 648.58,-643.7 654.7,-646.77 660.64,-649.58"/>
<polygon fill="#000000" fill-opacity="0.200000" stroke="#000000" stroke-width="2" stroke-opacity="0.200000" points="660.23,-651.62 666.56,-652.22 661.98,-647.81 660.23,-651.62"/>
</g>
<!-- src/composables/useDropboxFlogs.ts -->
<g id="node29" class="node">
<title>src/composables/useDropboxFlogs.ts</title>
<g id="a_node29"><a xlink:href="src/composables/useDropboxFlogs.ts" xlink:title="useDropboxFlogs.ts">
<path fill="#ddfeff" stroke="black" d="M734.83,-595.41C734.83,-595.41 648.92,-595.41 648.92,-595.41 645.96,-595.41 643,-592.45 643,-589.49 643,-589.49 643,-583.58 643,-583.58 643,-580.62 645.96,-577.66 648.92,-577.66 648.92,-577.66 734.83,-577.66 734.83,-577.66 737.79,-577.66 740.75,-580.62 740.75,-583.58 740.75,-583.58 740.75,-589.49 740.75,-589.49 740.75,-592.45 737.79,-595.41 734.83,-595.41"/>
<text text-anchor="start" x="651" y="-582.86" font-family="Helvetica,sans-Serif" font-size="9.00">useDropboxFlogs.ts</text>
</a>
</g>
</g>
<!-- src/composables/useFlogSource.ts&#45;&gt;src/composables/useDropboxFlogs.ts -->
<g id="edge56" class="edge">
<title>src/composables/useFlogSource.ts&#45;&gt;src/composables/useDropboxFlogs.ts</title>
<path fill="none" stroke="#000000" stroke-width="2" stroke-opacity="0.200000" d="M630.37,-595.89C631.65,-595.69 632.95,-595.49 634.24,-595.29"/>
<polygon fill="#000000" fill-opacity="0.200000" stroke="#000000" stroke-width="2" stroke-opacity="0.200000" points="635.21,-596.96 640.82,-593.96 634.57,-592.81 635.21,-596.96"/>
</g>
<!-- src/composables/useOpenFlogs.ts&#45;&gt;node_modules/vue -->
<g id="edge63" class="edge">
<title>src/composables/useOpenFlogs.ts&#45;&gt;node_modules/vue</title>
<path fill="none" stroke="#000000" stroke-opacity="0.200000" d="M482.42,-503.36C487.15,-480.25 502.98,-419.54 542.75,-392.54 661.64,-311.81 751.02,-448.71 864.5,-360.54 872.72,-354.15 864.95,-345.69 872.5,-338.54 876.34,-334.89 881.11,-332.2 886.1,-330.2"/>
<polygon fill="#000000" fill-opacity="0.200000" stroke="#000000" stroke-opacity="0.200000" points="886.49,-331.95 891.49,-328.03 885.13,-327.97 886.49,-331.95"/>
</g>
<!-- src/composables/useOpenFlogs.ts&#45;&gt;src/composables/useFlogSource.ts -->
<g id="edge62" class="edge">
<title>src/composables/useOpenFlogs.ts&#45;&gt;src/composables/useFlogSource.ts</title>
<path fill="none" stroke="#000000" stroke-width="2" stroke-opacity="0.200000" d="M519.58,-521.83C523.17,-523.44 526.63,-525.33 529.75,-527.54 551.14,-542.64 567.69,-568.55 576.99,-585.61"/>
<polygon fill="#000000" fill-opacity="0.200000" stroke="#000000" stroke-width="2" stroke-opacity="0.200000" points="575.31,-586.85 579.96,-591.19 579.03,-584.9 575.31,-586.85"/>
</g>
<!-- src/DbAuthPopup.vue -->
<g id="node14" class="node">
<title>src/DbAuthPopup.vue</title>
<g id="a_node14"><a xlink:href="src/DbAuthPopup.vue" xlink:title="DbAuthPopup.vue">
<path fill="#41f083" stroke="black" d="M193.83,-543.41C193.83,-543.41 114.67,-543.41 114.67,-543.41 111.71,-543.41 108.75,-540.45 108.75,-537.49 108.75,-537.49 108.75,-531.58 108.75,-531.58 108.75,-528.62 111.71,-525.66 114.67,-525.66 114.67,-525.66 193.83,-525.66 193.83,-525.66 196.79,-525.66 199.75,-528.62 199.75,-531.58 199.75,-531.58 199.75,-537.49 199.75,-537.49 199.75,-540.45 196.79,-543.41 193.83,-543.41"/>
<text text-anchor="start" x="116.75" y="-530.86" font-family="Helvetica,sans-Serif" font-size="9.00">DbAuthPopup.vue</text>
</a>
</g>
</g>
<!-- src/DbAuthPopup.vue&#45;&gt;node_modules/vue&#45;spinner -->
<g id="edge9" class="edge">
<title>src/DbAuthPopup.vue&#45;&gt;node_modules/vue&#45;spinner</title>
<path fill="none" stroke="#000000" stroke-opacity="0.200000" d="M155.69,-525.53C158.66,-466.57 176.61,-137.06 207.75,-106.54 257.69,-57.6 294.33,-90.54 364.25,-90.54 364.25,-90.54 364.25,-90.54 587.38,-90.54 714.52,-90.54 791.65,-57.33 864.5,-161.54 879.56,-183.08 856.34,-258.81 872.5,-279.54 874.83,-282.52 877.77,-284.93 881.02,-286.85"/>
<polygon fill="#000000" fill-opacity="0.200000" stroke="#000000" stroke-opacity="0.200000" points="879.85,-289.11 886.17,-289.84 881.69,-285.33 879.85,-289.11"/>
</g>
<!-- src/components/DropBoxAuth.vue -->
<g id="node15" class="node">
<title>src/components/DropBoxAuth.vue</title>
<g id="a_node15"><a xlink:href="src/components/DropBoxAuth.vue" xlink:title="DropBoxAuth.vue">
<path fill="#41f083" stroke="black" d="M297.83,-851.41C297.83,-851.41 221.67,-851.41 221.67,-851.41 218.71,-851.41 215.75,-848.45 215.75,-845.49 215.75,-845.49 215.75,-839.58 215.75,-839.58 215.75,-836.62 218.71,-833.66 221.67,-833.66 221.67,-833.66 297.83,-833.66 297.83,-833.66 300.79,-833.66 303.75,-836.62 303.75,-839.58 303.75,-839.58 303.75,-845.49 303.75,-845.49 303.75,-848.45 300.79,-851.41 297.83,-851.41"/>
<text text-anchor="start" x="223.75" y="-838.86" font-family="Helvetica,sans-Serif" font-size="9.00">DropBoxAuth.vue</text>
</a>
</g>
</g>
<!-- src/DbAuthPopup.vue&#45;&gt;src/components/DropBoxAuth.vue -->
<g id="edge8" class="edge">
<title>src/DbAuthPopup.vue&#45;&gt;src/components/DropBoxAuth.vue</title>
<path fill="none" stroke="#000000" stroke-width="2" stroke-opacity="0.200000" d="M159.42,-543.6C168.67,-564.2 190.79,-616.34 199.75,-662.54 203.24,-680.55 196.4,-813.11 207.75,-827.54 208.16,-828.05 208.58,-828.55 209.02,-829.04"/>
<polygon fill="#000000" fill-opacity="0.200000" stroke="#000000" stroke-width="2" stroke-opacity="0.200000" points="207.55,-831.21 213.51,-833.43 210.23,-827.98 207.55,-831.21"/>
</g>
<!-- src/components/DropBoxAuth.vue&#45;&gt;src/composables/useFlogSource.ts -->
<g id="edge13" class="edge">
<title>src/components/DropBoxAuth.vue&#45;&gt;src/composables/useFlogSource.ts</title>
<path fill="none" stroke="#000000" stroke-width="2" stroke-opacity="0.200000" d="M299.51,-851.87C301.04,-852.96 302.46,-854.18 303.75,-855.54 320.44,-873.13 297.67,-893.57 316.75,-908.54 391.47,-967.15 461.12,-957.17 529.75,-891.54 569.2,-853.81 581.54,-677.78 584.55,-620.56"/>
<polygon fill="#000000" fill-opacity="0.200000" stroke="#000000" stroke-width="2" stroke-opacity="0.200000" points="586.78,-620.96 584.98,-614.87 582.59,-620.76 586.78,-620.96"/>
</g>
<!-- src/components/AddEntry.vue&#45;&gt;node_modules/vue -->
<g id="edge11" class="edge">
<title>src/components/AddEntry.vue&#45;&gt;node_modules/vue</title>
<path fill="none" stroke="#000000" stroke-opacity="0.200000" d="M400.73,-717.35C405.8,-715.12 410.43,-711.96 413.75,-707.54 425.98,-691.22 407.89,-355.49 421.75,-340.54 471.43,-286.95 512.31,-324.54 585.38,-324.54 585.38,-324.54 585.38,-324.54 692.88,-324.54 761.33,-324.54 841.46,-324.54 885.47,-324.54"/>
<polygon fill="#000000" fill-opacity="0.200000" stroke="#000000" stroke-opacity="0.200000" points="885.21,-326.64 891.21,-324.54 885.21,-322.44 885.21,-326.64"/>
</g>
<!-- src/components/AddEntry.vue&#45;&gt;src/modules/EntryData.ts -->
<g id="edge10" class="edge">
<title>src/components/AddEntry.vue&#45;&gt;src/modules/EntryData.ts</title>
<path fill="none" stroke="#000000" stroke-width="2" stroke-opacity="0.200000" d="M401.03,-721.65C467.71,-719.35 617.84,-711.26 740.75,-683.54 750.21,-681.4 760.24,-678.23 769.31,-674.99"/>
<polygon fill="#000000" fill-opacity="0.200000" stroke="#000000" stroke-width="2" stroke-opacity="0.200000" points="770.76,-676.95 775.66,-672.9 769.3,-673.01 770.76,-676.95"/>
</g>
<!-- src/components/AddFlog.vue&#45;&gt;node_modules/vue -->
<g id="edge12" class="edge">
<title>src/components/AddFlog.vue&#45;&gt;node_modules/vue</title>
<path fill="none" stroke="#000000" stroke-opacity="0.200000" d="M366.16,-653.36C365.84,-600.99 367.06,-340.57 421.75,-288.54 474.69,-238.17 512.31,-272.54 585.38,-272.54 585.38,-272.54 585.38,-272.54 692.88,-272.54 769.48,-272.54 803.51,-242.18 864.5,-288.54 872.45,-294.58 865.26,-302.65 872.5,-309.54 876.36,-313.21 881.13,-315.98 886.12,-318.08"/>
<polygon fill="#000000" fill-opacity="0.200000" stroke="#000000" stroke-opacity="0.200000" points="885.16,-320.32 891.52,-320.38 886.59,-316.37 885.16,-320.32"/>
</g>
<!-- src/components/Entry.vue -->
<g id="node19" class="node">
<title>src/components/Entry.vue</title>
<g id="a_node19"><a xlink:href="src/components/Entry.vue" xlink:title="Entry.vue">
<path fill="#41f083" stroke="black" d="M500.96,-682.41C500.96,-682.41 458.54,-682.41 458.54,-682.41 455.58,-682.41 452.62,-679.45 452.62,-676.49 452.62,-676.49 452.62,-670.58 452.62,-670.58 452.62,-667.62 455.58,-664.66 458.54,-664.66 458.54,-664.66 500.96,-664.66 500.96,-664.66 503.92,-664.66 506.88,-667.62 506.88,-670.58 506.88,-670.58 506.88,-676.49 506.88,-676.49 506.88,-679.45 503.92,-682.41 500.96,-682.41"/>
<text text-anchor="start" x="460.62" y="-669.86" font-family="Helvetica,sans-Serif" font-size="9.00">Entry.vue</text>
</a>
</g>
</g>
<!-- src/components/Entry.vue&#45;&gt;node_modules/vue -->
<g id="edge16" class="edge">
<title>src/components/Entry.vue&#45;&gt;node_modules/vue</title>
<path fill="none" stroke="#000000" stroke-opacity="0.200000" d="M502.76,-664.19C512.71,-658.79 523.6,-650.96 529.75,-640.54 546.52,-612.1 520.08,-516.54 542.75,-492.54 592.36,-439.99 815.24,-498.4 864.5,-445.54 880.76,-428.09 857.59,-357.15 872.5,-338.54 876.03,-334.12 880.92,-331.06 886.19,-328.95"/>
<polygon fill="#000000" fill-opacity="0.200000" stroke="#000000" stroke-opacity="0.200000" points="886.45,-330.75 891.5,-326.88 885.14,-326.76 886.45,-330.75"/>
</g>
<!-- src/components/Entry.vue&#45;&gt;src/modules/EntryData.ts -->
<g id="edge14" class="edge">
<title>src/components/Entry.vue&#45;&gt;src/modules/EntryData.ts</title>
<path fill="none" stroke="#000000" stroke-opacity="0.200000" d="M507.08,-676.34C554.18,-680.83 655.86,-688.09 740.75,-677.54 747.94,-676.64 755.51,-675.16 762.74,-673.47"/>
<polygon fill="none" stroke="#000000" stroke-opacity="0.200000" points="762.95,-675.34 768.28,-671.87 761.95,-671.26 762.95,-675.34"/>
</g>
<!-- src/components/Entry.vue&#45;&gt;src/composables/useFlog.ts -->
<g id="edge15" class="edge">
<title>src/components/Entry.vue&#45;&gt;src/composables/useFlog.ts</title>
<path fill="none" stroke="#000000" stroke-width="2" stroke-opacity="0.200000" d="M479.75,-664.36C479.75,-649.68 479.75,-635 479.75,-620.33"/>
<polygon fill="#000000" fill-opacity="0.200000" stroke="#000000" stroke-width="2" stroke-opacity="0.200000" points="481.85,-620.69 479.75,-614.69 477.65,-620.69 481.85,-620.69"/>
</g>
<!-- src/composables/useFlog.ts&#45;&gt;node_modules/vue -->
<g id="edge55" class="edge">
<title>src/composables/useFlog.ts&#45;&gt;node_modules/vue</title>
<path fill="none" stroke="#000000" stroke-opacity="0.200000" d="M509.14,-599.64C516.9,-597.47 524.58,-593.77 529.75,-587.54 563.14,-547.26 506.34,-508.11 542.75,-470.54 593.02,-418.67 814.7,-476.85 864.5,-424.54 877.73,-410.63 860.37,-353.41 872.5,-338.54 876.07,-334.16 880.98,-331.11 886.25,-329"/>
<polygon fill="#000000" fill-opacity="0.200000" stroke="#000000" stroke-opacity="0.200000" points="886.52,-330.8 891.56,-326.94 885.21,-326.81 886.52,-330.8"/>
</g>
<!-- src/composables/useFlog.ts&#45;&gt;src/composables/useFlogSource.ts -->
<g id="edge52" class="edge">
<title>src/composables/useFlog.ts&#45;&gt;src/composables/useFlogSource.ts</title>
<path fill="none" stroke="#000000" stroke-width="2" stroke-opacity="0.200000" d="M509.06,-602.54C516.7,-602.54 525.21,-602.54 533.69,-602.54"/>
<polygon fill="#000000" fill-opacity="0.200000" stroke="#000000" stroke-width="2" stroke-opacity="0.200000" points="533.49,-604.64 539.49,-602.54 533.49,-600.44 533.49,-604.64"/>
</g>
<!-- src/composables/useFlog.ts&#45;&gt;src/modules/EntryData.ts -->
<g id="edge53" class="edge">
<title>src/composables/useFlog.ts&#45;&gt;src/modules/EntryData.ts</title>
<path fill="none" stroke="#000000" stroke-width="2" stroke-opacity="0.200000" d="M498.12,-611.9C510.26,-617.98 527.05,-625.52 542.75,-629.54 628.35,-651.46 653.65,-632.67 740.75,-647.54 746.87,-648.58 753.3,-649.93 759.56,-651.39"/>
<polygon fill="#000000" fill-opacity="0.200000" stroke="#000000" stroke-width="2" stroke-opacity="0.200000" points="759.64,-654.06 765.96,-653.43 760.63,-649.98 759.64,-654.06"/>
</g>
<!-- src/composables/useFlog.ts&#45;&gt;src/modules/Flog.ts -->
<g id="edge54" class="edge">
<title>src/composables/useFlog.ts&#45;&gt;src/modules/Flog.ts</title>
<path fill="none" stroke="#000000" stroke-width="2" stroke-opacity="0.200000" d="M491.33,-611.76C503.05,-621.41 522.91,-636.16 542.75,-643.54 579.8,-657.31 625.25,-661.42 655.96,-662.48"/>
<polygon fill="#000000" fill-opacity="0.200000" stroke="#000000" stroke-width="2" stroke-opacity="0.200000" points="655.55,-664.66 661.6,-662.72 655.66,-660.46 655.55,-664.66"/>
</g>
<!-- src/components/EntryList.vue&#45;&gt;node_modules/vue -->
<g id="edge19" class="edge">
<title>src/components/EntryList.vue&#45;&gt;node_modules/vue</title>
<path fill="none" stroke="#000000" stroke-opacity="0.200000" d="M399.73,-747.73C405.18,-745.48 410.2,-742.22 413.75,-737.54 430.21,-715.83 411.37,-517.72 421.75,-492.54 458.46,-403.52 489.09,-350.54 585.38,-350.54 585.38,-350.54 585.38,-350.54 692.88,-350.54 769.48,-350.54 788.62,-345.06 864.5,-334.54 871.31,-333.59 878.58,-332.39 885.5,-331.14"/>
<polygon fill="#000000" fill-opacity="0.200000" stroke="#000000" stroke-opacity="0.200000" points="885.75,-333.05 891.27,-329.89 884.99,-328.92 885.75,-333.05"/>
</g>
<!-- src/components/EntryList.vue&#45;&gt;src/modules/EntryData.ts -->
<g id="edge18" class="edge">
<title>src/components/EntryList.vue&#45;&gt;src/modules/EntryData.ts</title>
<path fill="none" stroke="#000000" stroke-width="2" stroke-opacity="0.200000" d="M399.75,-751.41C466.41,-748.31 619.7,-736.88 740.75,-695.54 754.22,-690.93 768.19,-683.34 779.19,-676.59"/>
<polygon fill="#000000" fill-opacity="0.200000" stroke="#000000" stroke-width="2" stroke-opacity="0.200000" points="780.68,-677.87 784.63,-672.88 778.43,-674.32 780.68,-677.87"/>
</g>
<!-- src/components/EntryList.vue&#45;&gt;src/components/Entry.vue -->
<g id="edge17" class="edge">
<title>src/components/EntryList.vue&#45;&gt;src/components/Entry.vue</title>
<path fill="none" stroke="#000000" stroke-width="2" stroke-opacity="0.200000" d="M399.83,-744.14C404.66,-742.31 409.45,-740.12 413.75,-737.54 434.78,-724.88 454.17,-704.09 466.2,-689.65"/>
<polygon fill="#000000" fill-opacity="0.200000" stroke="#000000" stroke-width="2" stroke-opacity="0.200000" points="468.64,-690.74 470.79,-684.76 465.38,-688.1 468.64,-690.74"/>
</g>
<!-- src/components/Pretext.vue&#45;&gt;node_modules/vue -->
<g id="edge43" class="edge">
<title>src/components/Pretext.vue&#45;&gt;node_modules/vue</title>
<path fill="none" stroke="#000000" stroke-opacity="0.200000" d="M396.35,-689.03C403.09,-686.79 409.5,-683.21 413.75,-677.54 425.85,-661.4 408.03,-329.33 421.75,-314.54 471.43,-260.96 512.31,-298.54 585.38,-298.54 585.38,-298.54 585.38,-298.54 692.88,-298.54 769.48,-298.54 788.62,-304.01 864.5,-314.54 871.31,-315.48 878.58,-316.69 885.5,-317.93"/>
<polygon fill="#000000" fill-opacity="0.200000" stroke="#000000" stroke-opacity="0.200000" points="884.99,-320.16 891.27,-319.18 885.75,-316.02 884.99,-320.16"/>
</g>
<!-- src/composables/useTheme.ts -->
<g id="node27" class="node">
<title>src/composables/useTheme.ts</title>
<g id="a_node27"><a xlink:href="src/composables/useTheme.ts" xlink:title="useTheme.ts">
<path fill="#ddfeff" stroke="black" d="M508.08,-551.41C508.08,-551.41 451.42,-551.41 451.42,-551.41 448.46,-551.41 445.5,-548.45 445.5,-545.49 445.5,-545.49 445.5,-539.58 445.5,-539.58 445.5,-536.62 448.46,-533.66 451.42,-533.66 451.42,-533.66 508.08,-533.66 508.08,-533.66 511.04,-533.66 514,-536.62 514,-539.58 514,-539.58 514,-545.49 514,-545.49 514,-548.45 511.04,-551.41 508.08,-551.41"/>
<text text-anchor="start" x="453.5" y="-538.86" font-family="Helvetica,sans-Serif" font-size="9.00">useTheme.ts</text>
</a>
</g>
</g>
<!-- src/components/ThemeSwitcher.vue&#45;&gt;src/composables/useTheme.ts -->
<g id="edge44" class="edge">
<title>src/components/ThemeSwitcher.vue&#45;&gt;src/composables/useTheme.ts</title>
<path fill="none" stroke="#000000" stroke-width="2" stroke-opacity="0.200000" d="M407.88,-833.25C410.09,-831.63 412.08,-829.74 413.75,-827.54 431.85,-803.59 403.08,-581.03 421.75,-557.54 425.69,-552.58 431.05,-549.14 436.93,-546.78"/>
<polygon fill="#000000" fill-opacity="0.200000" stroke="#000000" stroke-width="2" stroke-opacity="0.200000" points="438.07,-547.99 443.16,-544.18 436.81,-543.99 438.07,-547.99"/>
</g>
<!-- src/modules/Flog.ts&#45;&gt;src/modules/EntryData.ts -->
<g id="edge70" class="edge">
<title>src/modules/Flog.ts&#45;&gt;src/modules/EntryData.ts</title>
<path fill="none" stroke="#000000" stroke-opacity="0.200000" d="M719.11,-662.54C731.8,-662.54 747.27,-662.54 761.29,-662.54"/>
<polygon fill="none" stroke="#000000" stroke-opacity="0.200000" points="761.03,-664.64 767.03,-662.54 761.03,-660.44 761.03,-664.64"/>
</g>
<!-- src/components/Intro.vue&#45;&gt;src/composables/useFlogSource.ts -->
<g id="edge37" class="edge">
<title>src/components/Intro.vue&#45;&gt;src/composables/useFlogSource.ts</title>
<path fill="none" stroke="#000000" stroke-width="2" stroke-opacity="0.200000" d="M392.42,-775.77C399.5,-773.54 407.06,-770.78 413.75,-767.54 469.87,-740.3 486.17,-733.16 529.75,-688.54 550.23,-667.56 567.41,-637.93 577.04,-619.49"/>
<polygon fill="#000000" fill-opacity="0.200000" stroke="#000000" stroke-width="2" stroke-opacity="0.200000" points="579.18,-619.95 580.03,-613.65 575.43,-618.05 579.18,-619.95"/>
</g>
<!-- src/composables/useTheme.ts&#45;&gt;node_modules/vue -->
<g id="edge64" class="edge">
<title>src/composables/useTheme.ts&#45;&gt;node_modules/vue</title>
<path fill="none" stroke="#000000" stroke-opacity="0.200000" d="M514.44,-537.85C520.28,-535.6 525.76,-532.31 529.75,-527.54 561.04,-490.1 507.97,-452.75 542.75,-418.54 593.99,-368.13 812.02,-434.64 864.5,-385.54 879.97,-371.06 858.49,-354.43 872.5,-338.54 876.08,-334.47 880.79,-331.57 885.84,-329.5"/>
<polygon fill="#000000" fill-opacity="0.200000" stroke="#000000" stroke-opacity="0.200000" points="886.35,-331.21 891.36,-327.3 885,-327.23 886.35,-331.21"/>
</g>
<!-- src/composables/useDropboxFiles.ts -->
<g id="node28" class="node">
<title>src/composables/useDropboxFiles.ts</title>
<g id="a_node28"><a xlink:href="src/composables/useDropboxFiles.ts" xlink:title="useDropboxFiles.ts">
<path fill="#ddfeff" stroke="black" d="M842.58,-595.41C842.58,-595.41 759.67,-595.41 759.67,-595.41 756.71,-595.41 753.75,-592.45 753.75,-589.49 753.75,-589.49 753.75,-583.58 753.75,-583.58 753.75,-580.62 756.71,-577.66 759.67,-577.66 759.67,-577.66 842.58,-577.66 842.58,-577.66 845.54,-577.66 848.5,-580.62 848.5,-583.58 848.5,-583.58 848.5,-589.49 848.5,-589.49 848.5,-592.45 845.54,-595.41 842.58,-595.41"/>
<text text-anchor="start" x="761.75" y="-582.86" font-family="Helvetica,sans-Serif" font-size="9.00">useDropboxFiles.ts</text>
</a>
</g>
</g>
<!-- src/composables/useDropboxFiles.ts&#45;&gt;node_modules/cross&#45;fetch -->
<g id="edge45" class="edge">
<title>src/composables/useDropboxFiles.ts&#45;&gt;node_modules/cross&#45;fetch</title>
<path fill="none" stroke="#000000" stroke-opacity="0.200000" d="M848.84,-578.15C854.54,-575.71 859.95,-572.58 864.5,-568.54 898.31,-538.53 911.63,-483.87 916.33,-456.73"/>
<polygon fill="#000000" fill-opacity="0.200000" stroke="#000000" stroke-opacity="0.200000" points="918.56,-457.1 917.44,-450.84 914.41,-456.43 918.56,-457.1"/>
</g>
<!-- src/composables/useDropboxFiles.ts&#45;&gt;node_modules/dropbox -->
<g id="edge46" class="edge">
<title>src/composables/useDropboxFiles.ts&#45;&gt;node_modules/dropbox</title>
<path fill="none" stroke="#000000" stroke-opacity="0.200000" d="M848.73,-580.2C854.81,-577.5 860.36,-573.74 864.5,-568.54 884.34,-543.65 853.08,-450.75 872.5,-425.54 875.97,-421.03 880.82,-417.85 886.08,-415.63"/>
<polygon fill="#000000" fill-opacity="0.200000" stroke="#000000" stroke-opacity="0.200000" points="886.42,-417.38 891.39,-413.42 885.03,-413.42 886.42,-417.38"/>
</g>
<!-- src/composables/useDropboxFiles.ts&#45;&gt;node_modules/vue -->
<g id="edge47" class="edge">
<title>src/composables/useDropboxFiles.ts&#45;&gt;node_modules/vue</title>
<path fill="none" stroke="#000000" stroke-opacity="0.200000" d="M824.41,-577.19C838.58,-569.97 855.83,-558.49 864.5,-542.54 875.33,-522.6 858.63,-356.49 872.5,-338.54 875.96,-334.06 880.8,-330.97 886.06,-328.85"/>
<polygon fill="#000000" fill-opacity="0.200000" stroke="#000000" stroke-opacity="0.200000" points="886.32,-330.65 891.37,-326.78 885.01,-326.66 886.32,-330.65"/>
</g>
<!-- src/composables/useDropboxFlogs.ts&#45;&gt;node_modules/@vueuse/core -->
<g id="edge50" class="edge">
<title>src/composables/useDropboxFlogs.ts&#45;&gt;node_modules/@vueuse/core</title>
<path fill="none" stroke="#000000" stroke-opacity="0.200000" d="M730.24,-577.25C780.4,-564.73 863.42,-543.87 864.5,-542.54 876.51,-527.79 860.67,-386.43 872.5,-371.54 875.92,-367.23 880.65,-364.28 885.78,-362.28"/>
<polygon fill="#000000" fill-opacity="0.200000" stroke="#000000" stroke-opacity="0.200000" points="886.33,-363.99 891.43,-360.21 885.08,-359.98 886.33,-363.99"/>
</g>
<!-- src/composables/useDropboxFlogs.ts&#45;&gt;node_modules/vue -->
<g id="edge51" class="edge">
<title>src/composables/useDropboxFlogs.ts&#45;&gt;node_modules/vue</title>
<path fill="none" stroke="#000000" stroke-opacity="0.200000" d="M703.33,-577.27C714.88,-567.5 734.44,-552.33 753.75,-543.54 799.86,-522.55 832.32,-555.67 864.5,-516.54 877.08,-501.25 860.35,-354.17 872.5,-338.54 875.97,-334.07 880.82,-330.99 886.08,-328.87"/>
<polygon fill="#000000" fill-opacity="0.200000" stroke="#000000" stroke-opacity="0.200000" points="886.34,-330.66 891.39,-326.8 885.03,-326.67 886.34,-330.66"/>
</g>
<!-- src/composables/useDropboxFlogs.ts&#45;&gt;src/modules/Flog.ts -->
<g id="edge49" class="edge">
<title>src/composables/useDropboxFlogs.ts&#45;&gt;src/modules/Flog.ts</title>
<path fill="none" stroke="#000000" stroke-width="2" stroke-opacity="0.200000" d="M691.88,-595.74C691.88,-612.11 691.88,-628.48 691.88,-644.84"/>
<polygon fill="#000000" fill-opacity="0.200000" stroke="#000000" stroke-width="2" stroke-opacity="0.200000" points="689.78,-644.4 691.88,-650.4 693.98,-644.4 689.78,-644.4"/>
</g>
<!-- src/composables/useDropboxFlogs.ts&#45;&gt;src/composables/useDropboxFiles.ts -->
<g id="edge48" class="edge">
<title>src/composables/useDropboxFlogs.ts&#45;&gt;src/composables/useDropboxFiles.ts</title>
<path fill="none" stroke="#000000" stroke-width="2" stroke-opacity="0.200000" d="M741.17,-586.54C742.32,-586.54 743.48,-586.54 744.65,-586.54"/>
<polygon fill="#000000" fill-opacity="0.200000" stroke="#000000" stroke-width="2" stroke-opacity="0.200000" points="744.54,-588.64 750.54,-586.54 744.54,-584.44 744.54,-588.64"/>
</g>
<!-- src/composables/useLoadedEntries.ts -->
<g id="node30" class="node">
<title>src/composables/useLoadedEntries.ts</title>
<g id="a_node30"><a xlink:href="src/composables/useLoadedEntries.ts" xlink:title="useLoadedEntries.ts">
<path fill="#ddfeff" stroke="black" d="M523.83,-581.41C523.83,-581.41 435.67,-581.41 435.67,-581.41 432.71,-581.41 429.75,-578.45 429.75,-575.49 429.75,-575.49 429.75,-569.58 429.75,-569.58 429.75,-566.62 432.71,-563.66 435.67,-563.66 435.67,-563.66 523.83,-563.66 523.83,-563.66 526.79,-563.66 529.75,-566.62 529.75,-569.58 529.75,-569.58 529.75,-575.49 529.75,-575.49 529.75,-578.45 526.79,-581.41 523.83,-581.41"/>
<text text-anchor="start" x="437.75" y="-568.86" font-family="Helvetica,sans-Serif" font-size="9.00">useLoadedEntries.ts</text>
</a>
</g>
</g>
<!-- src/composables/useLoadedEntries.ts&#45;&gt;node_modules/vue -->
<g id="edge61" class="edge">
<title>src/composables/useLoadedEntries.ts&#45;&gt;node_modules/vue</title>
<path fill="none" stroke="#000000" stroke-opacity="0.200000" d="M523.46,-563.21C525.8,-561.6 527.93,-559.72 529.75,-557.54 562.09,-518.68 507.17,-480.45 542.75,-444.54 593.46,-393.36 813.63,-455.56 864.5,-404.54 885.36,-383.61 853.5,-361.17 872.5,-338.54 875.98,-334.39 880.65,-331.44 885.68,-329.36"/>
<polygon fill="#000000" fill-opacity="0.200000" stroke="#000000" stroke-opacity="0.200000" points="886.18,-331.07 891.18,-327.15 884.83,-327.09 886.18,-331.07"/>
</g>
<!-- src/composables/useLoadedEntries.ts&#45;&gt;src/modules/EntryData.ts -->
<g id="edge60" class="edge">
<title>src/composables/useLoadedEntries.ts&#45;&gt;src/modules/EntryData.ts</title>
<path fill="none" stroke="#000000" stroke-width="2" stroke-opacity="0.200000" d="M521.35,-581.74C524.38,-583.37 527.23,-585.28 529.75,-587.54 540.58,-597.22 531.02,-608.96 542.75,-617.54 560.6,-630.59 719.32,-632.07 740.75,-637.54 751.93,-640.38 763.73,-645 773.85,-649.49"/>
<polygon fill="#000000" fill-opacity="0.200000" stroke="#000000" stroke-width="2" stroke-opacity="0.200000" points="773.57,-651.59 779.9,-652.19 775.32,-647.77 773.57,-651.59"/>
</g>
<!-- src/dbauthpopup.js -->
<g id="node31" class="node">
<title>src/dbauthpopup.js</title>
<g id="a_node31"><a xlink:href="src/dbauthpopup.js" xlink:title="dbauthpopup.js">
<path fill="#ffffcc" stroke="black" d="M89.83,-543.41C89.83,-543.41 21.92,-543.41 21.92,-543.41 18.96,-543.41 16,-540.45 16,-537.49 16,-537.49 16,-531.58 16,-531.58 16,-528.62 18.96,-525.66 21.92,-525.66 21.92,-525.66 89.83,-525.66 89.83,-525.66 92.79,-525.66 95.75,-528.62 95.75,-531.58 95.75,-531.58 95.75,-537.49 95.75,-537.49 95.75,-540.45 92.79,-543.41 89.83,-543.41"/>
<text text-anchor="start" x="24" y="-530.86" font-family="Helvetica,sans-Serif" font-size="9.00">dbauthpopup.js</text>
</a>
</g>
</g>
<!-- src/dbauthpopup.js&#45;&gt;node_modules/vue -->
<g id="edge66" class="edge">
<title>src/dbauthpopup.js&#45;&gt;node_modules/vue</title>
<path fill="none" stroke="#000000" stroke-opacity="0.200000" d="M88.73,-525.38C91.33,-523.74 93.73,-521.81 95.75,-519.54 238.21,-358.77 43.94,-64.54 258.75,-64.54 258.75,-64.54 258.75,-64.54 587.38,-64.54 650.03,-64.54 823.5,-69.16 864.5,-116.54 878.54,-132.77 859.53,-292.44 872.5,-309.54 875.94,-314.07 880.77,-317.25 886.03,-319.49"/>
<polygon fill="#000000" fill-opacity="0.200000" stroke="#000000" stroke-opacity="0.200000" points="884.98,-321.69 891.34,-321.69 886.37,-317.73 884.98,-321.69"/>
</g>
<!-- src/dbauthpopup.js&#45;&gt;src/DbAuthPopup.vue -->
<g id="edge65" class="edge">
<title>src/dbauthpopup.js&#45;&gt;src/DbAuthPopup.vue</title>
<path fill="none" stroke="#000000" stroke-width="2" stroke-opacity="0.200000" d="M96.07,-534.54C97.22,-534.54 98.37,-534.54 99.52,-534.54"/>
<polygon fill="#000000" fill-opacity="0.200000" stroke="#000000" stroke-width="2" stroke-opacity="0.200000" points="99.41,-536.64 105.41,-534.54 99.41,-532.44 99.41,-536.64"/>
</g>
<!-- src/main.js -->
<g id="node32" class="node">
<title>src/main.js</title>
<g id="a_node32"><a xlink:href="src/main.js" xlink:title="main.js">
<path fill="#ffffcc" stroke="black" d="M76.96,-513.41C76.96,-513.41 34.79,-513.41 34.79,-513.41 31.83,-513.41 28.88,-510.45 28.88,-507.49 28.88,-507.49 28.88,-501.58 28.88,-501.58 28.88,-498.62 31.83,-495.66 34.79,-495.66 34.79,-495.66 76.96,-495.66 76.96,-495.66 79.92,-495.66 82.88,-498.62 82.88,-501.58 82.88,-501.58 82.88,-507.49 82.88,-507.49 82.88,-510.45 79.92,-513.41 76.96,-513.41"/>
<text text-anchor="start" x="41.25" y="-500.86" font-family="Helvetica,sans-Serif" font-size="9.00">main.js</text>
</a>
</g>
</g>
<!-- src/main.js&#45;&gt;node_modules/vue -->
<g id="edge68" class="edge">
<title>src/main.js&#45;&gt;node_modules/vue</title>
<path fill="none" stroke="#000000" stroke-opacity="0.200000" d="M57.25,-495.47C59.86,-434.59 76.15,-86.86 108.75,-54.54 156.36,-7.33 191.71,-38.54 258.75,-38.54 258.75,-38.54 258.75,-38.54 587.38,-38.54 711.95,-38.54 784.31,14.8 864.5,-80.54 880.89,-100.02 857.18,-289.2 872.5,-309.54 875.92,-314.08 880.75,-317.27 886.01,-319.5"/>
<polygon fill="#000000" fill-opacity="0.200000" stroke="#000000" stroke-opacity="0.200000" points="884.95,-321.71 891.31,-321.71 886.34,-317.75 884.95,-321.71"/>
</g>
<!-- src/main.js&#45;&gt;node_modules/vue&#45;showdown -->
<g id="edge69" class="edge">
<title>src/main.js&#45;&gt;node_modules/vue&#45;showdown</title>
<path fill="none" stroke="#000000" stroke-opacity="0.200000" d="M57.18,-495.27C59.37,-431.46 73.6,-58.72 108.75,-24.54 156.69,22.09 191.87,-12.54 258.75,-12.54 258.75,-12.54 258.75,-12.54 692.88,-12.54 775.59,-12.54 811.06,-21.4 864.5,-84.54 906.25,-133.86 915.8,-214.58 917.98,-248.61"/>
<polygon fill="#000000" fill-opacity="0.200000" stroke="#000000" stroke-opacity="0.200000" points="915.93,-248.62 918.36,-254.5 920.12,-248.39 915.93,-248.62"/>
</g>
<!-- src/main.js&#45;&gt;src/App.vue -->
<g id="edge67" class="edge">
<title>src/main.js&#45;&gt;src/App.vue</title>
<path fill="none" stroke="#000000" stroke-width="2" stroke-opacity="0.200000" d="M83,-511.06C87.69,-513.16 92.2,-515.92 95.75,-519.54 100.91,-524.79 133.67,-619.96 147.31,-660.01"/>
<polygon fill="#000000" fill-opacity="0.200000" stroke="#000000" stroke-width="2" stroke-opacity="0.200000" points="146.27,-661.5 150.19,-666.5 150.25,-660.14 146.27,-661.5"/>
</g>
</g>
</svg>
