<svg xmlns="http://www.w3.org/2000/svg" version="1.1" xmlns:xlink="http://www.w3.org/1999/xlink" xmlns:svgjs="http://svgjs.dev/svgjs" width="230.74000549316406" height="359.62322998046875"><svg xmlns="http://www.w3.org/2000/svg" viewBox="0 65.0146484375 230.74000549316406 359.62322998046875" data-asc="0.83251953125"><g fill="#000000"><g fill="#000000" transform="translate(0, 0)"><path d=""></path></g><g fill="#000000" transform="translate(0, 65.0146484375)"><path d="M0 56.64L0 0L30.00 0L30.00 56.64L0 56.64ZM30.00 56.64L30.00 0L60.01 0L60.01 56.64L30.00 56.64ZM60.01 56.64L60.01 0L90.01 0L90.01 56.64L60.01 56.64ZM90.01 56.64L90.01 0L120.02 0L120.02 56.64L90.01 56.64ZM120.02 56.64L120.02 0L150.02 0L150.02 56.64L120.02 56.64ZM150.02 56.64L150.02 0L180.03 0L180.03 56.64L150.02 56.64ZM180.03 56.64L180.03 0L210.03 0L210.03 56.64L180.03 56.64ZM227.15 56.64L227.15 26.73L210.03 26.73L210.03 23.14L230.74 23.14L230.74 56.64L227.15 56.64M219.34 34.55L210.03 34.55L210.03 30.96L222.92 30.96L222.92 56.64L219.34 56.64L219.34 34.55Z"></path></g><g fill="#000000" transform="translate(0, 130.029296875)"><path d="M0 56.64L0 0L30.00 0L30.00 56.64L0 56.64ZM30.00 56.64L30.00 0L60.01 0L60.01 56.64L30.00 56.64ZM72.90 56.64L69.31 56.64L69.31 23.14L90.01 23.14L90.01 26.73L72.90 26.73L72.90 56.64M80.71 34.55L80.71 56.64L77.12 56.64L77.12 30.96L90.01 30.96L90.01 34.55L80.71 34.55ZM120.02 26.73L90.01 26.73L90.01 23.14L120.02 23.14L120.02 26.73M120.02 34.55L90.01 34.55L90.01 30.96L120.02 30.96L120.02 34.55ZM150.02 26.73L120.02 26.73L120.02 23.14L150.02 23.14L150.02 26.73M150.02 34.55L120.02 34.55L120.02 30.96L150.02 30.96L150.02 34.55ZM180.03 26.73L150.02 26.73L150.02 23.14L180.03 23.14L180.03 26.73M180.03 34.55L150.02 34.55L150.02 30.96L180.03 30.96L180.03 34.55ZM210.03 26.73L180.03 26.73L180.03 23.14L210.03 23.14L210.03 26.73M210.03 34.55L180.03 34.55L180.03 30.96L210.03 30.96L210.03 34.55ZM227.15 0L230.74 0L230.74 34.55L210.03 34.55L210.03 30.96L227.15 30.96L227.15 0M219.34 23.14L219.34 0L222.92 0L222.92 26.73L210.03 26.73L210.03 23.14L219.34 23.14Z"></path></g><g fill="#000000" transform="translate(0, 195.0439453125)"><path d="M0 56.64L0 0L30.00 0L30.00 56.64L0 56.64ZM30.00 56.64L30.00 0L60.01 0L60.01 56.64L30.00 56.64ZM60.01 56.64L60.01 0L90.01 0L90.01 56.64L60.01 56.64ZM90.01 56.64L90.01 0L120.02 0L120.02 56.64L90.01 56.64ZM120.02 56.64L120.02 0L150.02 0L150.02 56.64L120.02 56.64ZM167.14 56.64L167.14 26.73L150.02 26.73L150.02 23.14L170.73 23.14L170.73 56.64L167.14 56.64M159.33 34.55L150.02 34.55L150.02 30.96L162.92 30.96L162.92 56.64L159.33 56.64L159.33 34.55Z"></path></g><g fill="#000000" transform="translate(0, 260.05859375)"><path d="M0 56.64L0 0L30.00 0L30.00 56.64L0 56.64ZM30.00 56.64L30.00 0L60.01 0L60.01 56.64L30.00 56.64ZM72.90 56.64L69.31 56.64L69.31 23.14L90.01 23.14L90.01 26.73L72.90 26.73L72.90 56.64M80.71 34.55L80.71 56.64L77.12 56.64L77.12 30.96L90.01 30.96L90.01 34.55L80.71 34.55ZM120.02 26.73L90.01 26.73L90.01 23.14L120.02 23.14L120.02 26.73M120.02 34.55L90.01 34.55L90.01 30.96L120.02 30.96L120.02 34.55ZM150.02 26.73L120.02 26.73L120.02 23.14L150.02 23.14L150.02 26.73M150.02 34.55L120.02 34.55L120.02 30.96L150.02 30.96L150.02 34.55ZM167.14 0L170.73 0L170.73 34.55L150.02 34.55L150.02 30.96L167.14 30.96L167.14 0M159.33 23.14L159.33 0L162.92 0L162.92 26.73L150.02 26.73L150.02 23.14L159.33 23.14Z"></path></g><g fill="#000000" transform="translate(0, 325.0732421875)"><path d="M0 56.64L0 0L30.00 0L30.00 56.64L0 56.64ZM30.00 56.64L30.00 0L60.01 0L60.01 56.64L30.00 56.64ZM77.12 56.64L77.12 0L80.71 0L80.71 56.64L77.12 56.64M69.31 56.64L69.31 0L72.90 0L72.90 56.64L69.31 56.64Z"></path></g><g fill="#000000" transform="translate(0, 390.087890625)"><path d="M12.89 0L12.89 30.96L30.00 30.96L30.00 34.55L9.30 34.55L9.30 0L12.89 0M20.70 23.14L30.00 23.14L30.00 26.73L17.11 26.73L17.11 0L20.70 0L20.70 23.14ZM60.01 26.73L30.00 26.73L30.00 23.14L60.01 23.14L60.01 26.73M60.01 34.55L30.00 34.55L30.00 30.96L60.01 30.96L60.01 34.55ZM77.12 0L80.71 0L80.71 34.55L60.01 34.55L60.01 30.96L77.12 30.96L77.12 0M69.31 23.14L69.31 0L72.90 0L72.90 26.73L60.01 26.73L60.01 23.14L69.31 23.14Z"></path></g><g fill="#000000" transform="translate(0, 455.1025390625)"><path d=""></path></g><g fill="#000000" transform="translate(0, 520.1171875)"><path d=""></path></g></g></svg><style>@media (prefers-color-scheme: light) { :root { filter: none; } }
@media (prefers-color-scheme: dark) { :root { filter: invert(100%); } }
</style></svg>